<svg id="esG2SfNCRo11" xmlns="http://www.w3.org/2000/svg" xmlns:xlink="http://www.w3.org/1999/xlink" viewBox="0 0 1248 911" shape-rendering="geometricPrecision" text-rendering="geometricPrecision"><style><![CDATA[#esG2SfNCRo17_ts {animation: esG2SfNCRo17_ts__ts 12000ms linear infinite normal forwards}@keyframes esG2SfNCRo17_ts__ts { 0% {transform: translate(694.5px,83px) scale(1,1)} 50% {transform: translate(694.5px,83px) scale(0.184569,0.184569)} 100% {transform: translate(694.5px,83px) scale(1,1)}} #esG2SfNCRo18_ts {animation: esG2SfNCRo18_ts__ts 12000ms linear infinite normal forwards}@keyframes esG2SfNCRo18_ts__ts { 0% {transform: translate(644px,431.5px) scale(1,1)} 24% {transform: translate(644px,431.5px) scale(0.230363,0.230363)} 50.666667% {transform: translate(644px,431.5px) scale(1,1)} 75.666667% {transform: translate(644px,431.5px) scale(0.230363,0.230363)} 99% {transform: translate(644px,431.5px) scale(1,1)} 100% {transform: translate(644px,431.5px) scale(1,1)}}]]></style><g id="esG2SfNCRo12"><g id="esG2SfNCRo13"><path id="esG2SfNCRo14" d="M1050.63564,745.749736C1065.71414,745.749736,1079.21798,749.010498,1091.14717,755.532022C1103.07636,762.053545,1112.33342,771.308355,1118.91833,783.29645C1125.50324,795.284545,1128.7957,809.046879,1128.7957,824.58345C1128.7957,829.999248,1128.45756,834.905325,1127.78126,839.301679L1127.6505,840.120022L1011.69876,840.120022L1011.75492,840.756821C1012.80259,851.961629,1016.79208,860.76441,1023.72338,867.165164C1030.78547,873.686688,1039.46992,876.94745,1049.77674,876.94745C1064.48922,876.94745,1075.00765,870.672133,1081.33202,858.121498L1081.5561,857.670593L1124.78749,857.670593L1124.55882,858.42305C1119.91769,873.428111,1111.21403,885.788769,1098.44784,895.505022C1085.46888,905.383212,1069.53148,910.322307,1050.63564,910.322307C1035.36628,910.322307,1021.67156,906.917688,1009.55151,900.10845C997.431448,893.299212,987.983528,883.660783,981.207748,871.193164C974.431967,858.725545,971.044077,844.339831,971.044077,828.036022C971.044077,811.540403,974.38425,797.058783,981.064597,784.591164C987.744944,772.123545,997.09743,762.533069,1009.12205,755.819736C1021.14668,749.106403,1034.98454,745.749736,1050.63564,745.749736ZM1247.4,746.03745L1247.4,788.33145L1236.80688,788.33145L1236.14673,788.334195C1223.87743,788.436683,1214.60184,791.408815,1208.31997,797.250593C1202.02429,803.10521,1198.82803,813.236748,1198.73117,827.645207L1198.7289,828.323736L1198.7289,907.732879L1158.64682,907.732879L1158.64682,748.339164L1198.7289,748.339164L1198.7289,773.082593L1199.12842,772.436986C1204.22838,764.304817,1210.82326,757.902591,1218.91309,753.230307C1227.02272,748.546586,1236.27043,746.150264,1246.65622,746.04134L1247.4,746.03745ZM880.725117,746.022307C899.607721,746.022307,914.866392,752.014671,926.501128,763.999398C938.019517,775.864278,943.836303,792.380665,943.951487,813.54856L943.953232,814.191435L943.953232,907.672307L903.899222,907.672307L903.898278,819.277672C903.835966,806.80626,900.689179,797.200927,894.45792,790.461676C888.163718,783.654351,879.580716,780.250688,868.708914,780.250688C857.646378,780.250688,848.920326,783.654351,842.530757,790.461676C836.205085,797.200927,833.01062,806.80626,832.947364,819.277672L832.946405,907.672307L829.995021,907.672307L829.995057,907.705284L827.122821,907.705284L804.224621,748.072307L829.995057,748.072307L829.995021,748.323307L832.946405,748.323375L832.946405,768.170083L833.107065,767.963433C838.423462,761.158687,845.188627,755.810474,853.40256,751.918793C861.699462,747.987803,870.806981,746.022307,880.725117,746.022307ZM1049.49044,778.836879C1039.56535,778.836879,1031.21492,781.857879,1024.43914,787.899879C1017.79621,793.823408,1013.6758,802.005364,1012.07791,812.445746L1011.98506,813.074879L1087.28212,813.074879C1087.09125,802.717164,1083.36934,794.421403,1076.11639,788.187593C1068.86344,781.953783,1059.98813,778.836879,1049.49044,778.836879Z" fill="rgb(255,200,0)" stroke="none" stroke-width="1"/><path id="esG2SfNCRo15" d="M678.934221,748.072307L718.98823,748.072307L718.989174,836.336362C719.051487,848.830006,722.198273,858.45246,728.429532,865.203724C734.723734,872.023184,743.306736,875.432913,754.178539,875.432913C765.241075,875.432913,773.919443,872.023184,780.213645,865.203724C786.444905,858.45246,789.591691,848.830006,789.654003,836.336362L789.654947,748.072307L794.526221,748.072307L817.424421,907.705107L789.654947,907.705284L789.654947,887.535052L789.499981,887.742071C784.370522,894.558947,777.698825,899.916693,769.484892,903.815311C761.18799,907.753308,752.175838,909.722307,742.448436,909.722307C730.050766,909.722307,719.083597,907.080967,709.546928,901.798288C700.010259,896.515608,692.523974,888.735661,687.088073,878.458448C681.70653,868.284007,678.988851,856.17975,678.934221,842.145677L678.934221,748.072307ZM609.664221,708.922307L609.664221,748.339164L645.165494,748.339164L645.165494,781.426307L609.664221,781.426307L609.664221,858.533736L609.667771,859.017883C609.743486,864.13844,611.030656,867.861201,613.529279,870.186164C616.032365,872.51528,620.201524,873.713111,626.036759,873.779657L626.555956,873.782593L645.165494,873.782593L645.165494,907.732879L619.971043,907.732879L618.962606,907.72793C586.18254,907.404583,569.628606,891.23561,569.300805,859.221011L569.295839,858.246022L569.295839,781.426307L550.4,781.426307L550.4,748.339164L569.295839,748.339164L569.295839,708.922307L609.664221,708.922307ZM444.809857,747.372307C469.546211,747.372307,488.032916,755.383471,500.890214,771.669975L501.671228,772.670485C512.61764,786.856944,518.572999,806.413286,519.319778,831.113557L519.344501,832.008577L519.355,832.496307L400.709517,832.496711L401.069857,836.82832L401.136989,837.602544C402.506144,852.772653,406.761313,864.618952,413.977088,872.832963C421.539713,881.441808,432.457121,885.833592,446.03305,885.833592C457.2637,885.833592,466.512553,883.274909,473.92065,878.04501L474.38126,877.714662L474.781791,877.403016C479.694186,873.519943,484.017099,867.850848,488.046529,860.196574L488.401313,859.51604L488.571,859.182307L515.657,859.182307L515.593525,859.383244C511.763836,871.193194,505.290245,881.234971,496.276107,889.261479C482.922772,900.601044,466.367154,906.322307,446.338848,906.322307C424.191821,906.322307,406.696673,899.595875,393.710375,886.266065L392.821797,885.347033C379.169489,871.121507,372.360302,851.739098,372.360302,826.694142C372.360302,804.133396,378.711123,785.704385,391.691952,770.746591L392.234402,770.124791L392.637977,769.642406C405.200039,754.768879,422.525159,747.372307,444.809857,747.372307ZM282.747413,748.697307L283.855438,748.703179C319.867104,749.086868,337.503375,768.282115,337.8525,808.024918L337.857789,809.235537L337.857789,902.346307L311.122,902.346307L311.122826,812.279793L311.118757,811.444395C310.850276,784.007976,297.297096,769.61774,271.473784,769.61774C261.872903,769.61774,253.279806,773.086656,246.169175,779.852749C238.292727,787.06553,233.622263,797.467951,232.218087,810.600502L232.129436,811.476112L232.129,902.346307L205.394,902.346307L205.394,752.958307L232.129,752.958307L232.129436,778.265564L239.201216,769.786865L239.735894,769.152818C245.286632,762.642623,251.465048,757.626007,257.967667,754.386561L259.223908,753.771277C266.127819,750.444624,273.568749,748.798546,281.958118,748.701838L282.747413,748.697307ZM104.533,691.722307L104.533,712.938307L79.788713,712.939114L79.302597,712.943159C73.987924,713.032186,69.74891,714.592181,66.569906,717.756044C63.401837,720.909024,62.09527,725.258111,62.03035,731.365994L62.027793,731.851859L62.027793,751.677629L158.965,751.677307L158.965,901.022307L132.104,901.022307L132.104832,771.981411L62.027793,771.981411L62.027,901.022307L35.166,901.022307L35.166796,771.981411L0,771.981307L0,751.677307L35.166796,751.677629L35.166796,730.938834L35.169815,730.29295C35.28255,718.285999,38.551662,709.053299,44.956861,702.472472L45.414078,702.007401L45.729468,701.673103C51.986623,695.152822,61.459554,691.833894,74.243078,691.725074L74.895941,691.722307L104.533,691.722307ZM446.597512,772.522307C435.049989,772.522307,426.237405,775.490307,419.551997,782.019907C413.293192,788.132846,409.080536,797.100728,406.914026,808.923554L406.788945,809.622307L487.621608,809.622307C484.582786,784.691107,470.908087,772.522307,446.597512,772.522307Z" fill="rgb(0,145,145)" fill-rule="evenodd" stroke="none" stroke-width="1"/><path id="esG2SfNCRo16" d="M699.122735,401.467647C725.218306,386.422914,752.984947,378.332196,776.615043,378.339755C798.826555,378.34687,814.983463,385.460661,822.145105,397.847246C829.306748,410.23383,827.397842,427.763003,816.298253,446.974776C804.489765,467.413549,783.58964,487.380409,757.494069,502.425142C731.398498,517.469876,703.631857,525.560594,680.001761,525.553035C657.790249,525.545919,641.633341,518.432129,634.471698,506.045544C628.484712,495.690612,628.836785,481.741721,635.598106,466.220315C650.440144,470.730679,666.769661,466.385628,676.250813,453.821712C684.917751,442.336749,685.396055,427.251741,678.973532,414.813102C685.248293,410.05786,691.991521,405.578966,699.122735,401.467647ZM651.681768,317.915229C694.807568,293.052153,737.611408,281.447617,774.603766,280.995335C778.290649,292.267015,787.676782,301.206112,799.969354,303.592128C812.628986,306.049391,825.037827,300.909356,832.638313,291.310278C847.198633,297.441465,859.361244,306.205132,868.380108,317.30954L869.192339,318.326677L870.045266,319.427381L870.752564,320.362054L871.478462,321.339823C871.72316,321.672415,871.970407,322.01142,872.21965,322.356069L872.972817,323.406177L873.734655,324.485529L874.501855,325.589508L875.46335,326.997081L876.421588,328.426902L877.181488,329.580718L877.181488,329.580718L877.931856,330.738384L878.669383,331.895284L879.390759,333.046801L880.092675,334.188318L880.092675,334.188318L880.771821,335.315217L881.35747,336.307328L881.920172,337.280562L882.456652,338.232129C882.892637,339.014867,883.299466,339.77123,883.670966,340.492607L884.099412,341.340915C884.510111,342.171326,884.866379,342.946396,885.15755,343.651243L884.649006,345.889029L884.270953,347.646138L884.184221,347.994858L884.101284,348.283803L883.948153,348.753552L881.944913,354.330657L880.272978,359.079731L878.972719,362.82342C872.150089,382.556874,858.718523,407.56905,844.250772,427.74233L844.245043,427.738418C847.741623,412.445176,846.223655,397.95031,839.110356,385.64734C827.885165,366.232549,804.95916,356.138365,776.222861,356.129166C748.905147,356.120422,717.723213,365.206296,688.699096,381.939408C679.875473,387.026442,671.565096,392.639327,663.887836,398.652073C647.066406,388.321812,625.274708,391.407788,613.696271,406.750913C602.775287,421.222818,604.856107,441.410827,617.36218,454.817557C607.714434,476.220759,607.005354,497.083457,616.709228,513.867017C623.822527,526.169987,635.634447,534.730139,650.646046,539.352964C648.953528,539.663333,647.191155,539.94788,645.367798,540.205825L643.790193,540.420389C639.544524,540.975089,634.993493,541.389648,630.243062,541.65476L628.452511,541.747153C627.552769,541.789829,626.646482,541.82721,625.734349,541.859234L623.902495,541.916123C622.063261,541.965835,620.202505,541.993957,618.325815,542L616.44402,542L614.552845,541.982501C612.025576,541.951015,609.476603,541.879695,606.91917,541.767378L604.999717,541.675434C602.438882,541.542546,599.8729,541.368368,597.315014,541.151739L595.398325,540.98129C583.271532,539.851135,571.402139,537.756602,561.209646,534.573012C559.449136,533.182426,557.424096,530.862292,555.3599,528.098388L554.739692,527.256389C554.532715,526.971609,554.325572,526.682877,554.118487,526.390679L553.497637,525.504172L552.827019,524.523701L552.492999,524.026754L552.492999,524.026754L551.82861,523.021751C551.608102,522.684591,551.388645,522.345477,551.170524,522.005026L550.359397,520.723281L549.564162,519.436248L549.251269,518.921575L548.635584,517.895018L548.034308,516.875548L547.450627,515.866029L546.746403,514.624908L546.074188,513.413241L545.815017,512.938443L545.314511,512.00831L544.839219,511.107218L544.39086,510.238872L543.971154,509.406979L543.58182,508.615244L543.224577,507.867372L542.901144,507.16707C542.748167,506.829429,542.608513,506.511016,542.48315,506.213916L542.251765,505.648751C542.216472,505.559498,542.182839,505.472769,542.150901,505.388639C517.89705,447.528196,561.032526,370.176729,651.681768,317.915229ZM599.699582,235.649395L603.777573,233.311825C669.932669,195.875628,734.323456,181.355498,789.446934,189.336506C833.107133,195.657812,869.233274,215.943871,894.071306,247.508993L894.078087,247.510119C895.833956,268.673121,895.067827,289.860302,891.898122,310.630345L891.893881,310.628894C891.024774,308.849601,890.091128,307.095618,889.092466,305.36836C878.424717,286.917707,861.402905,273.357787,839.812737,265.049533C837.908373,251.021435,827.482796,239.188387,813.051378,236.387216C797.665635,233.400808,782.650323,241.63598,776.18679,255.459201C732.912066,256.774411,684.689396,271.308552,639.723482,297.232499C591.374304,325.106979,552.562855,362.821736,530.362469,402.695048C507.390485,443.954199,503.632781,485.019722,522.094945,516.951386C523.093606,518.678644,524.147953,520.36304,525.25652,522.004279L525.255658,522.008672C505.672941,514.370732,486.928932,504.449208,469.464549,492.362075L469.466978,492.355808C458.636872,465.229646,455.941857,435.691781,461.572008,405.742294C472.898962,405.931568,484.158444,402.308842,493.308754,394.641803C514.01707,377.290318,516.172774,345.718595,498.326708,323.687065C521.866672,291.325048,555.412655,261.640025,597.905473,236.696267L599.699582,235.649395ZM552.534904,146.433471C587.132102,126.487343,621.506198,111.849606,654.688352,102.558235C665.988257,119.737689,689.630296,129.233269,708.99269,125.522011C726.780512,122.112557,740.572906,107.709781,742.174529,90.514479C749.009695,90.635682,755.737685,91.034011,762.347781,91.708691C797.282269,95.27439,827.799118,106.487667,852.325578,124.359124L852.330399,124.354298C854.504076,127.757055,856.612701,131.223802,858.653694,134.753849C870.201226,154.726152,878.908974,175.557501,884.90204,196.781677L886.869804,204.277511C886.167669,202.561753,884.383739,200.340505,881.954488,197.905165L881.306419,197.265194L880.630794,196.61666L880.630794,196.61666L879.929336,195.960711L879.203766,195.298499L878.832478,194.965402L878.832478,194.965402L878.073969,194.295949L877.295654,193.623105L876.499254,192.94802L875.686492,192.271845L874.859088,191.595727L874.018765,190.920818L873.167245,190.248267L872.30625,189.579222L871.437502,188.914835L870.123609,187.9295L869.243011,187.281784L868.360687,186.642749L867.03773,185.702986L866.158623,185.090682L865.283816,184.491081L864.415032,183.905333L863.553991,183.334589L862.702417,182.779998L861.862031,182.242709L860.829904,181.597181L859.622714,180.863765L858.646804,180.289569L857.888187,179.856036L857.51684,179.648272L857.51684,179.648272L856.791148,179.25147L856.791148,179.25147C838.192369,169.246933,816.537245,162.972983,793.753863,159.67431C732.245117,150.768816,662.05288,166.369416,591.128514,206.026441L588.979075,207.235532C587.547835,208.043599,586.128185,208.862062,584.712776,209.678079L582.600302,210.913157C536.568459,237.951032,499.836397,270.501262,473.77548,306.44292C457.685405,300.945529,439.64729,303.468604,426.178783,314.753857C405.225065,332.310964,403.266277,364.427336,421.803707,386.487783C425.074168,390.379792,428.764093,393.698783,432.738744,396.429394C430.081847,409.056118,428.705304,421.659286,428.705304,434.071901C428.705304,434.435335,428.719277,434.843381,428.745292,435.28722L428.793108,435.978721L428.857541,436.7173L428.937147,437.496343L429.030477,438.309237L429.136085,439.149369L429.252525,440.010127L429.378349,440.884896L429.581517,442.208856L429.724473,443.089723L429.87175,443.961456L430.021901,444.817442L430.173479,445.651068L430.325038,446.455721L430.549176,447.59391L430.694357,448.297198L430.834455,448.948367L430.968022,449.540805L431.093614,450.067898L431.209782,450.523032L431.31508,450.899596L431.419855,451.243014L431.768125,452.31772L432.517727,454.516976L433.935561,458.543799L435.854576,463.890734L436.545871,465.801529C435.111088,464.555003,433.546084,463.084134,431.897147,461.448145L430.898082,460.447211L430.898082,460.447211L429.881096,459.409492L428.848408,458.337829C428.675109,458.156548,428.501248,457.973971,428.326871,457.790157L427.010109,456.389293L425.67836,454.947608L424.605088,453.7686L423.527224,452.569862L421.906679,450.740982L420.827055,449.505357L419.750616,448.259953L419.214285,447.634471L418.146788,446.379727L417.08803,445.12231L416.040233,443.865063L414.493947,441.985728L413.483271,440.741342L412.491331,439.507075L411.52035,438.28577L410.572549,437.08027L409.19917,435.307873C401.656336,425.484048,394.94555,415.005625,389.346171,405.321088C387.305177,401.791041,385.352898,398.234157,383.488641,394.653012L383.495237,394.651255C380.25916,364.505373,385.792692,332.508172,400.167526,300.514446C425.908395,243.223605,478.394612,189.177159,552.534904,146.433471ZM516.034801,83.30387C594.005453,38.351887,672.343828,21.287796,740.842734,32.12621C747.337057,33.15379,753.709774,34.428574,759.951974,35.944682L759.953339,35.941778C781.491201,48.387565,804.762293,67.079843,821.973935,85.686715L820.697293,85.090073L819.35521,84.477349C818.897638,84.270758,818.430206,84.061984,817.953958,83.851524L816.49981,83.215579L815.75486,82.894744L814.23313,82.249211L812.516486,81.536161C806.728567,79.158362,800.329309,76.792951,794.710192,75.101341C788.199767,73.141406,780.742671,71.862045,773.19503,70.904334L771.036837,70.639145L768.338927,70.32944L765.648916,70.040546L764.577066,69.930001C755.708116,69.024764,746.66276,68.575863,737.46355,68.581108C727.152781,49.486861,702.621285,38.0949,681.64737,41.482157C661.961474,44.6614,647.62813,62.34101,648.053085,81.684335C613.265802,91.49583,577.449596,106.790651,541.573142,127.474302C463.648998,172.399473,407.915103,229.790138,380.164967,291.552957C375.539152,301.848522,371.735772,312.178962,368.756011,322.488496C367.89942,325.452174,367.139234,329.173972,366.538366,333.058515L366.333013,334.435319C366.233747,335.12613,366.139672,335.819828,366.051135,336.51314L365.881548,337.898283L365.727342,339.276582C365.312798,343.166573,365.090879,346.90411,365.124499,349.893818C357.38482,325.632248,353.024877,295.408857,353,270.560308L353,270.560579C354.809432,264.404354,356.890215,258.255922,359.24619,252.125929C378.05658,203.183329,413.551937,157.359116,463.513121,118.478781C472.292438,123.601666,484.637833,123.401838,495.263187,117.026614C507.122404,109.911071,513.185407,97.294732,511.05049,86.217016C512.699781,85.239529,514.361765,84.268416,516.034801,83.30387ZM488.765542,36.294315C560.39813,-5.00362,643.065404,-9.928035,715.318982,15.782214L716.318262,15.824183C652.436822,13.325389,577.486478,30.180254,508.361568,70.032452C506.615514,71.039094,504.881324,72.053561,503.159031,73.075725C494.370559,65.965184,480.346861,65.376666,468.471657,72.501801C455.271718,80.42178,449.252635,95.156623,453.726236,106.999345C414.61743,137.981159,384.138101,173.453156,362.926543,211.013612L361.971225,212.719651L361.822799,213.012716L361.651867,213.377962L361.45843,213.815389L361.165503,214.510908L360.832566,215.33475L360.360129,216.545007L359.937167,217.657576L359.100708,219.913348L357.994715,222.972584L357.060192,225.603858C363.089392,190.009639,376.199022,155.740239,395.783449,125.036708C402.019045,115.330947,408.879881,105.960483,416.310313,97.024613C436.147293,73.322458,460.418383,52.637144,488.765542,36.294315Z" fill="rgb(0,145,145)" fill-rule="evenodd" stroke="none" stroke-width="1"/><g id="esG2SfNCRo17_ts" transform="translate(694.5,83) scale(1,1)"><path id="esG2SfNCRo17" d="M683.596479,57.59802C669.890363,59.969232,660.791876,74.067233,665.061613,87.071752C669.65568,101.064097,689.417449,111.48193,705.208037,108.482414C719.359073,105.79434,728.0791,92.678274,723.987712,80.216958C719.250025,65.787186,703.260285,54.196104,683.596479,57.59802Z" transform="translate(-694.5,-83)" fill="rgb(255,201,42)" stroke="none" stroke-width="1"/></g><g id="esG2SfNCRo18_ts" transform="translate(644,431.5) scale(1,1)"><path id="esG2SfNCRo18" d="M624.942591,417.031654C631.966482,407.640823,646.250018,406.182562,656.892796,414.262538C667.535574,422.342513,670.081301,436.577515,663.057409,445.968346C659.334747,450.945486,653.57285,453.694368,647.394539,453.975944L646.693415,453.997267C641.422957,454.077947,635.896454,452.373451,631.107204,448.737462C620.464426,440.657487,617.918699,426.422485,624.942591,417.031654Z" transform="translate(-644,-431.5)" fill="rgb(255,69,90)" stroke="none" stroke-width="1"/></g></g></g></svg>