<?xml version="1.0" encoding="UTF-8" standalone="no"?>
<svg
   xmlns:dc="http://purl.org/dc/elements/1.1/"
   xmlns:cc="http://creativecommons.org/ns#"
   xmlns:rdf="http://www.w3.org/1999/02/22-rdf-syntax-ns#"
   xmlns:svg="http://www.w3.org/2000/svg"
   xmlns="http://www.w3.org/2000/svg"
   xmlns:sodipodi="http://sodipodi.sourceforge.net/DTD/sodipodi-0.dtd"
   xmlns:inkscape="http://www.inkscape.org/namespaces/inkscape"
   version="1.1"
   viewBox="0 0 490 204"
   stroke-miterlimit="10"
   id="svg45"
   sodipodi:docname="finetuner-composition.svg"
   width="490"
   height="204"
   style="fill:none;stroke:none;stroke-linecap:square;stroke-miterlimit:10"
   inkscape:version="0.92.5 (2060ec1f9f, 2020-04-08)">
  <metadata
     id="metadata51">
    <rdf:RDF>
      <cc:Work
         rdf:about="">
        <dc:format>image/svg+xml</dc:format>
        <dc:type
           rdf:resource="http://purl.org/dc/dcmitype/StillImage" />
        <dc:title></dc:title>
      </cc:Work>
    </rdf:RDF>
  </metadata>
  <defs
     id="defs49" />
  <sodipodi:namedview
     pagecolor="#ffffff"
     bordercolor="#666666"
     borderopacity="1"
     objecttolerance="10"
     gridtolerance="10"
     guidetolerance="10"
     inkscape:pageopacity="0"
     inkscape:pageshadow="2"
     inkscape:window-width="1848"
     inkscape:window-height="1016"
     id="namedview47"
     showgrid="false"
     inkscape:zoom="0.65306122"
     inkscape:cx="343"
     inkscape:cy="102"
     inkscape:window-x="72"
     inkscape:window-y="27"
     inkscape:window-maximized="1"
     inkscape:current-layer="g43" />
  <clipPath
     id="p.0">
    <path
       d="M 0,0 H 686 V 204 H 0 Z"
       id="path2"
       inkscape:connector-curvature="0"
       style="clip-rule:nonzero" />
  </clipPath>
  <g
     clip-path="url(#p.0)"
     id="g43">
    <path
       d="M 0,0 H 686 V 204 H 0 Z"
       id="path5"
       inkscape:connector-curvature="0"
       style="fill:#000000;fill-opacity:0;fill-rule:evenodd" />
    <path
       d="M 61.603237,13.454068 H 233.11854 c 23.68132,0 42.87883,38.259678 42.87883,85.455376 0,47.195696 -19.19751,85.455376 -42.87883,85.455376 H 61.603237 v 0 c -23.681324,0 -42.87883,-38.25967 -42.87883,-85.455376 0,-47.1957 19.197504,-85.455376 42.87883,-85.455376 z"
       id="path7"
       inkscape:connector-curvature="0"
       style="fill:#ffcc66;fill-opacity:0.75980003;fill-rule:evenodd" />
    <path
       d="m 233.11855,184.36482 c -23.68132,0 -42.87883,-38.25967 -42.87883,-85.455376 0,-47.1957 19.19751,-85.455376 42.87883,-85.455376"
       id="path9"
       inkscape:connector-curvature="0"
       style="fill:#000000;fill-opacity:0;fill-rule:evenodd" />
    <path
       d="M 61.603237,13.454068 H 233.11854 c 23.68132,0 42.87883,38.259678 42.87883,85.455376 0,47.195696 -19.19751,85.455376 -42.87883,85.455376 H 61.603237 v 0 c -23.681324,0 -42.87883,-38.25967 -42.87883,-85.455376 0,-47.1957 19.197504,-85.455376 42.87883,-85.455376 z"
       id="path11"
       inkscape:connector-curvature="0"
       style="fill:#000000;fill-opacity:0;fill-rule:evenodd" />
    <path
       d="m 233.11855,184.36482 c -23.68132,0 -42.87883,-38.25967 -42.87883,-85.455376 0,-47.1957 19.19751,-85.455376 42.87883,-85.455376"
       id="path13"
       inkscape:connector-curvature="0"
       style="fill-rule:evenodd;stroke:#ffffff;stroke-width:3;stroke-linecap:butt;stroke-linejoin:round" />
    <path
       d="M 61.603237,13.454068 H 233.11854 c 23.68132,0 42.87883,38.259678 42.87883,85.455376 0,47.195696 -19.19751,85.455376 -42.87883,85.455376 H 61.603237 v 0 c -23.681324,0 -42.87883,-38.25967 -42.87883,-85.455376 0,-47.1957 19.197504,-85.455376 42.87883,-85.455376 z"
       id="path15"
       inkscape:connector-curvature="0"
       style="fill-rule:evenodd;stroke:#ffffff;stroke-width:3;stroke-linecap:butt;stroke-linejoin:round" />
    <path
       d="m 81.18136,92.7357 v 2.546875 h -3.46875 v 10.546875 h -3.1875 V 95.282575 H 71.05636 V 92.7357 Z m 0.963348,7.875 q 0,-1.609375 0.609375,-2.8125 0.609375,-1.21875 1.65625,-1.875 1.046875,-0.65625 2.328125,-0.65625 1.109375,0 1.9375,0.453125 0.828125,0.453125 1.28125,1.171875 V 95.4232 h 3.1875 v 10.40625 h -3.1875 v -1.46875 q -0.46875,0.71875 -1.3125,1.17187 -0.828125,0.45313 -1.921875,0.45313 -1.265625,0 -2.3125,-0.65625 -1.046875,-0.67188 -1.65625,-1.89063 -0.609375,-1.23437 -0.609375,-2.82812 z m 7.8125,0.0156 q 0,-1.20312 -0.671875,-1.89062 -0.65625,-0.6875 -1.609375,-0.6875 -0.953125,0 -1.625,0.6875 -0.65625,0.671875 -0.65625,1.875 0,1.1875 0.65625,1.89062 0.671875,0.70313 1.625,0.70313 0.953125,0 1.609375,-0.6875 0.671875,-0.70313 0.671875,-1.89063 z m 7.105103,-6.29687 q -0.84375,0 -1.375,-0.484375 -0.53125,-0.5 -0.53125,-1.21875 0,-0.75 0.53125,-1.234375 0.53125,-0.5 1.375,-0.5 0.8125,0 1.34375,0.5 0.53125,0.484375 0.53125,1.234375 0,0.71875 -0.53125,1.21875 -0.53125,0.484375 -1.34375,0.484375 z m 1.578125,1.09375 v 10.40625 h -3.1875 V 95.4232 Z m 5.503604,-3.40625 v 13.8125 h -3.1875 v -13.8125 z m 7.05047,13.96875 q -1.53125,0 -2.75,-0.65625 -1.21875,-0.65625 -1.92187,-1.85938 -0.70313,-1.21875 -0.70313,-2.84375 0,-1.60937 0.70313,-2.82812 0.71875,-1.21875 1.95312,-1.875 1.23438,-0.65625 2.76563,-0.65625 1.53125,0 2.75,0.65625 1.23437,0.65625 1.9375,1.875 0.71875,1.21875 0.71875,2.82812 0,1.60938 -0.71875,2.82813 -0.71875,1.21875 -1.96875,1.875 -1.23438,0.65625 -2.76563,0.65625 z m 0,-2.76563 q 0.92188,0 1.5625,-0.67187 0.64063,-0.67188 0.64063,-1.92188 0,-1.249995 -0.625,-1.92187 -0.625,-0.671875 -1.53125,-0.671875 -0.9375,0 -1.5625,0.671875 -0.60938,0.65625 -0.60938,1.92187 0,1.25 0.60938,1.92188 0.60937,0.67187 1.51562,0.67187 z m 10.33716,-6.062495 q 0.5625,-0.859375 1.39063,-1.34375 0.84375,-0.5 1.875,-0.5 v 3.375 h -0.875 q -1.1875,0 -1.79688,0.515625 -0.59375,0.5 -0.59375,1.79687 v 4.82813 h -3.1875 V 95.4232 h 3.1875 z"
       id="path17"
       inkscape:connector-curvature="0"
       style="fill:#000000;fill-rule:nonzero" />
    <path
       d="m 260.33026,13.454068 h 171.51532 c 23.68134,0 42.87882,38.259678 42.87882,85.455376 0,47.195696 -19.19748,85.455376 -42.87882,85.455376 H 260.33026 v 0 c -23.68132,0 -42.87881,-38.25967 -42.87881,-85.455376 0,-47.1957 19.19749,-85.455376 42.87881,-85.455376 z"
       id="path19"
       inkscape:connector-curvature="0"
       style="fill:#32c8cd;fill-opacity:0.88829998;fill-rule:evenodd" />
    <path
       d="m 431.84558,184.36482 c -23.68134,0 -42.87882,-38.25967 -42.87882,-85.455376 0,-47.1957 19.19748,-85.455376 42.87882,-85.455376"
       id="path21"
       inkscape:connector-curvature="0"
       style="fill:#000000;fill-opacity:0;fill-rule:evenodd" />
    <path
       d="m 260.33026,13.454068 h 171.51532 c 23.68134,0 42.87882,38.259678 42.87882,85.455376 0,47.195696 -19.19748,85.455376 -42.87882,85.455376 H 260.33026 v 0 c -23.68132,0 -42.87881,-38.25967 -42.87881,-85.455376 0,-47.1957 19.19749,-85.455376 42.87881,-85.455376 z"
       id="path23"
       inkscape:connector-curvature="0"
       style="fill:#000000;fill-opacity:0;fill-rule:evenodd" />
    <path
       d="m 431.84558,184.36482 c -23.68134,0 -42.87882,-38.25967 -42.87882,-85.455376 0,-47.1957 19.19748,-85.455376 42.87882,-85.455376"
       id="path25"
       inkscape:connector-curvature="0"
       style="fill-rule:evenodd;stroke:#ffffff;stroke-width:3;stroke-linecap:butt;stroke-linejoin:round" />
    <path
       d="m 260.33026,13.454068 h 171.51532 c 23.68134,0 42.87882,38.259678 42.87882,85.455376 0,47.195696 -19.19748,85.455376 -42.87882,85.455376 H 260.33026 v 0 c -23.68132,0 -42.87881,-38.25967 -42.87881,-85.455376 0,-47.1957 19.19749,-85.455376 42.87881,-85.455376 z"
       id="path27"
       inkscape:connector-curvature="0"
       style="fill-rule:evenodd;stroke:#ffffff;stroke-width:3;stroke-linecap:butt;stroke-linejoin:round" />
    <path
       d="m 279.9084,92.7357 v 2.546875 h -3.46875 v 10.546875 h -3.1875 V 95.282575 H 269.7834 V 92.7357 Z m 11.88522,2.6875 v 10.40625 h -3.1875 v -1.42188 q -0.48437,0.6875 -1.32812,1.10938 -0.82813,0.42187 -1.82813,0.42187 -1.1875,0 -2.10937,-0.53125 -0.90625,-0.53125 -1.42188,-1.53125 -0.5,-1.01562 -0.5,-2.375 V 95.4232 h 3.17188 v 5.65625 q 0,1.03125 0.53125,1.60937 0.54687,0.57813 1.46875,0.57813 0.92187,0 1.46875,-0.57813 0.54687,-0.57812 0.54687,-1.60937 V 95.4232 Z m 8.63681,-0.109375 q 1.82813,0 2.92188,1.1875 1.09375,1.171875 1.09375,3.25 v 6.078125 h -3.17188 v -5.65625 q 0,-1.046875 -0.54687,-1.625 -0.54688,-0.578125 -1.45313,-0.578125 -0.92187,0 -1.46875,0.578125 -0.53125,0.578125 -0.53125,1.625 v 5.65625 h -3.1875 V 95.4232 h 3.1875 v 1.375 q 0.48438,-0.6875 1.29688,-1.078125 0.82812,-0.40625 1.85937,-0.40625 z m 16.04306,5.140625 q 0,0.45312 -0.0625,0.9375 h -7.21875 q 0.0781,0.96875 0.625,1.48437 0.5625,0.51563 1.35938,0.51563 1.1875,0 1.65625,-1.01563 h 3.40625 q -0.26563,1.03125 -0.95313,1.85938 -0.67187,0.8125 -1.70312,1.28125 -1.03125,0.46875 -2.29688,0.46875 -1.53125,0 -2.73437,-0.65625 -1.1875,-0.65625 -1.85938,-1.85938 -0.67187,-1.21875 -0.67187,-2.84375 0,-1.624995 0.65625,-2.82812 0.67187,-1.21875 1.85937,-1.875 1.20313,-0.65625 2.75,-0.65625 1.51563,0 2.6875,0.640625 1.17188,0.625 1.82813,1.8125 0.67187,1.171875 0.67187,2.734375 z m -3.26562,-0.84375 q 0,-0.8125 -0.5625,-1.296875 -0.5625,-0.484375 -1.39063,-0.484375 -0.8125,0 -1.35937,0.46875 -0.54688,0.453125 -0.67188,1.3125 z m 8.13287,-2.453125 q 0.5625,-0.859375 1.39063,-1.34375 0.84375,-0.5 1.875,-0.5 v 3.375 h -0.875 q -1.1875,0 -1.79688,0.515625 -0.59375,0.5 -0.59375,1.79687 v 4.82813 h -3.1875 V 95.4232 h 3.1875 z"
       id="path29"
       inkscape:connector-curvature="0"
       style="fill:#000000;fill-rule:nonzero" />
    <path
       d="m 625.2996,184.36482 c -23.68127,0 -42.87878,-38.25967 -42.87878,-85.455376 0,-47.1957 19.19751,-85.455376 42.87878,-85.455376"
       id="path33"
       inkscape:connector-curvature="0"
       style="fill:#000000;fill-opacity:0;fill-rule:evenodd" />
    <path
       d="m 453.78433,13.454068 h 171.51529 c 23.68133,0 42.87884,38.259678 42.87884,85.455376 0,47.195696 -19.19751,85.455376 -42.87884,85.455376 H 453.78433 v 0 c -23.68131,0 -42.87881,-38.25967 -42.87881,-85.455376 0,-47.1957 19.19751,-85.455376 42.87881,-85.455376 z"
       id="path35"
       inkscape:connector-curvature="0"
       style="fill:#000000;fill-opacity:0;fill-rule:evenodd" />
    <path
       d="m 625.2996,184.36482 c -23.68127,0 -42.87878,-38.25967 -42.87878,-85.455376 0,-47.1957 19.19751,-85.455376 42.87878,-85.455376"
       id="path37"
       inkscape:connector-curvature="0"
       style="fill-rule:evenodd;stroke:#ffffff;stroke-width:3;stroke-linecap:butt;stroke-linejoin:round" />
  </g>
</svg>
