<svg version="1.1" viewBox="0.0 0.0 816.50656167979 255.9737532808399" fill="none" stroke="none" stroke-linecap="square" stroke-miterlimit="10" xmlns:xlink="http://www.w3.org/1999/xlink" xmlns="http://www.w3.org/2000/svg"><clipPath id="p.0"><path d="m0 0l816.5066 0l0 255.97375l-816.5066 0l0 -255.97375z" clip-rule="nonzero"/></clipPath><g clip-path="url(#p.0)"><path fill="#000000" fill-opacity="0.0" d="m0 0l816.5066 0l0 255.97375l-816.5066 0z" fill-rule="evenodd"/><path fill="#ffffff" d="m9.395013 21.238863l0 0c0 -7.037654 5.705146 -12.7428 12.742801 -12.7428l114.51439 0c3.3796082 0 6.6207886 1.3425407 9.010529 3.7322798c2.38974 2.389738 3.7322845 5.6309195 3.7322845 9.01052l0 209.53802c0 7.0376587 -5.7051544 12.742798 -12.742813 12.742798l-114.51439 0c-7.037655 0 -12.742801 -5.705139 -12.742801 -12.742798z" fill-rule="evenodd"/><path stroke="#f3f3f3" stroke-width="1.0" stroke-linejoin="round" stroke-linecap="butt" d="m9.395013 21.238863l0 0c0 -7.037654 5.705146 -12.7428 12.742801 -12.7428l114.51439 0c3.3796082 0 6.6207886 1.3425407 9.010529 3.7322798c2.38974 2.389738 3.7322845 5.6309195 3.7322845 9.01052l0 209.53802c0 7.0376587 -5.7051544 12.742798 -12.742813 12.742798l-114.51439 0c-7.037655 0 -12.742801 -5.705139 -12.742801 -12.742798z" fill-rule="evenodd"/><path fill="#ffcc66" fill-opacity="0.7598" d="m268.53107 45.347378l171.51529 0c23.681335 0 42.878845 38.259678 42.878845 85.45538c0 47.195694 -19.19751 85.45537 -42.878845 85.45537l-171.51529 0l0 0c-23.681335 0 -42.87883 -38.259674 -42.87883 -85.45537c0 -47.19571 19.197495 -85.45538 42.87883 -85.45538z" fill-rule="evenodd"/><path fill="#000000" fill-opacity="0.0" d="m440.04636 216.25813c-23.681305 0 -42.878815 -38.259674 -42.878815 -85.45537c0 -47.19571 19.19751 -85.45538 42.878815 -85.45538" fill-rule="evenodd"/><path fill="#000000" fill-opacity="0.0" d="m268.53107 45.347378l171.51529 0c23.681335 0 42.878845 38.259678 42.878845 85.45538c0 47.195694 -19.19751 85.45537 -42.878845 85.45537l-171.51529 0l0 0c-23.681335 0 -42.87883 -38.259674 -42.87883 -85.45537c0 -47.19571 19.197495 -85.45538 42.87883 -85.45538z" fill-rule="evenodd"/><path stroke="#ffffff" stroke-width="3.0" stroke-linejoin="round" stroke-linecap="butt" d="m440.04636 216.25813c-23.681305 0 -42.878815 -38.259674 -42.878815 -85.45537c0 -47.19571 19.19751 -85.45538 42.878815 -85.45538" fill-rule="evenodd"/><path stroke="#ffffff" stroke-width="3.0" stroke-linejoin="round" stroke-linecap="butt" d="m268.53107 45.347378l171.51529 0c23.681335 0 42.878845 38.259678 42.878845 85.45538c0 47.195694 -19.19751 85.45537 -42.878845 85.45537l-171.51529 0l0 0c-23.681335 0 -42.87883 -38.259674 -42.87883 -85.45537c0 -47.19571 19.197495 -85.45538 42.87883 -85.45538z" fill-rule="evenodd"/><path fill="#32c8cd" fill-opacity="0.8883" d="m475.80402 45.347378l171.51532 0c23.681335 0 42.878845 38.259678 42.878845 85.45538c0 47.195694 -19.19751 85.45537 -42.878845 85.45537l-171.51532 0l0 0c-23.681305 0 -42.878815 -38.259674 -42.878815 -85.45537c0 -47.19571 19.19751 -85.45538 42.878815 -85.45538z" fill-rule="evenodd"/><path fill="#000000" fill-opacity="0.0" d="m647.31934 216.25813c-23.681335 0 -42.878845 -38.259674 -42.878845 -85.45537c0 -47.19571 19.19751 -85.45538 42.878845 -85.45538" fill-rule="evenodd"/><path fill="#000000" fill-opacity="0.0" d="m475.80402 45.347378l171.51532 0c23.681335 0 42.878845 38.259678 42.878845 85.45538c0 47.195694 -19.19751 85.45537 -42.878845 85.45537l-171.51532 0l0 0c-23.681305 0 -42.878815 -38.259674 -42.878815 -85.45537c0 -47.19571 19.19751 -85.45538 42.878815 -85.45538z" fill-rule="evenodd"/><path stroke="#ffffff" stroke-width="3.0" stroke-linejoin="round" stroke-linecap="butt" d="m647.31934 216.25813c-23.681335 0 -42.878845 -38.259674 -42.878845 -85.45537c0 -47.19571 19.19751 -85.45538 42.878845 -85.45538" fill-rule="evenodd"/><path stroke="#ffffff" stroke-width="3.0" stroke-linejoin="round" stroke-linecap="butt" d="m475.80402 45.347378l171.51532 0c23.681335 0 42.878845 38.259678 42.878845 85.45538c0 47.195694 -19.19751 85.45537 -42.878845 85.45537l-171.51532 0l0 0c-23.681305 0 -42.878815 -38.259674 -42.878815 -85.45537c0 -47.19571 19.19751 -85.45538 42.878815 -85.45538z" fill-rule="evenodd"/><path fill="#000000" fill-opacity="0.0" d="m7.3097115 32.911682l142.07875 0l0 73.13386l-142.07875 0z" fill-rule="evenodd"/><path fill="#000000" d="m34.102585 51.99861l0 8.21875q0 1.734375 0.84375 2.578125q0.859375 0.84375 2.375 0.84375q1.484375 0 2.328125 -0.84375q0.859375 -0.84375 0.859375 -2.578125l0 -8.21875l1.6875 0l0 8.203125q0 1.625 -0.65625 2.734375q-0.640625 1.109375 -1.75 1.65625q-1.109375 0.53125 -2.5 0.53125q-1.375 0 -2.484375 -0.53125q-1.109375 -0.546875 -1.75 -1.65625q-0.640625 -1.109375 -0.640625 -2.734375l0 -8.203125l1.6875 0zm15.921097 2.59375q1.859375 0 3.015625 1.125q1.15625 1.125 1.15625 3.25l0 6.03125l-1.671875 0l0 -5.78125q0 -1.53125 -0.765625 -2.34375q-0.765625 -0.8125 -2.09375 -0.8125q-1.34375 0 -2.140625 0.84375q-0.78125 0.84375 -0.78125 2.4375l0 5.65625l-1.703125 0l0 -10.21875l1.703125 0l0 1.453125q0.5 -0.78125 1.359375 -1.203125q0.875 -0.4375 1.921875 -0.4375zm8.658752 -3.40625l0 13.8125l-1.703125 0l0 -13.8125l1.703125 0zm2.2456818 8.65625q0 -1.5625 0.640625 -2.734375q0.640625 -1.1875 1.75 -1.84375q1.109375 -0.65625 2.46875 -0.65625q1.34375 0 2.328125 0.578125q0.984375 0.578125 1.46875 1.453125l0 -1.859375l1.71875 0l0 10.21875l-1.71875 0l0 -1.90625q-0.5 0.90625 -1.5 1.5q-1.0 0.578125 -2.3125 0.578125q-1.375 0 -2.46875 -0.671875q-1.09375 -0.671875 -1.734375 -1.875q-0.640625 -1.21875 -0.640625 -2.78125zm8.65625 0.03125q0 -1.15625 -0.46875 -2.015625q-0.453125 -0.859375 -1.25 -1.3125q-0.796875 -0.46875 -1.75 -0.46875q-0.953125 0 -1.734375 0.453125q-0.78125 0.453125 -1.25 1.3125q-0.46875 0.84375 -0.46875 2.0q0 1.1875 0.46875 2.0625q0.46875 0.859375 1.25 1.3125q0.78125 0.453125 1.734375 0.453125q0.953125 0 1.75 -0.453125q0.796875 -0.453125 1.25 -1.3125q0.46875 -0.875 0.46875 -2.03125zm6.2991333 -3.203125q0.515625 -0.90625 1.515625 -1.484375q1.015625 -0.578125 2.296875 -0.578125q1.390625 0 2.484375 0.65625q1.109375 0.65625 1.734375 1.84375q0.640625 1.171875 0.640625 2.734375q0 1.5625 -0.640625 2.78125q-0.625 1.203125 -1.734375 1.875q-1.109375 0.671875 -2.484375 0.671875q-1.3125 0 -2.3125 -0.578125q-1.0 -0.578125 -1.5 -1.484375l0 1.890625l-1.703125 0l0 -13.8125l1.703125 0l0 5.484375zm6.9375 3.171875q0 -1.15625 -0.46875 -2.0q-0.46875 -0.859375 -1.265625 -1.3125q-0.78125 -0.453125 -1.734375 -0.453125q-0.9375 0 -1.734375 0.46875q-0.796875 0.453125 -1.265625 1.328125q-0.46875 0.859375 -0.46875 2.0q0 1.15625 0.46875 2.03125q0.46875 0.859375 1.265625 1.3125q0.796875 0.453125 1.734375 0.453125q0.953125 0 1.734375 -0.453125q0.796875 -0.453125 1.265625 -1.3125q0.46875 -0.875 0.46875 -2.0625zm13.299133 -0.34375q0 0.484375 -0.0625 1.015625l-8.171875 0q0.09375 1.515625 1.03125 2.375q0.953125 0.84375 2.296875 0.84375q1.09375 0 1.828125 -0.515625q0.75 -0.515625 1.046875 -1.375l1.828125 0q-0.40625 1.484375 -1.640625 2.40625q-1.234375 0.921875 -3.0625 0.921875q-1.453125 0 -2.609375 -0.65625q-1.140625 -0.65625 -1.796875 -1.859375q-0.65625 -1.203125 -0.65625 -2.78125q0 -1.59375 0.640625 -2.78125q0.640625 -1.203125 1.78125 -1.84375q1.140625 -0.640625 2.640625 -0.640625q1.453125 0 2.5625 0.640625q1.125 0.625 1.734375 1.734375q0.609375 1.109375 0.609375 2.515625zm-1.75 -0.359375q0 -0.96875 -0.4375 -1.671875q-0.421875 -0.703125 -1.171875 -1.0625q-0.734375 -0.359375 -1.625 -0.359375q-1.28125 0 -2.1875 0.828125q-0.90625 0.8125 -1.03125 2.265625l6.453125 0zm5.6918793 -7.953125l0 13.8125l-1.703125 0l0 -13.8125l1.703125 0zm12.214432 8.3125q0 0.484375 -0.0625 1.015625l-8.171875 0q0.09375 1.515625 1.03125 2.375q0.953125 0.84375 2.296875 0.84375q1.09375 0 1.828125 -0.515625q0.75 -0.515625 1.046875 -1.375l1.828125 0q-0.40625 1.484375 -1.640625 2.40625q-1.234375 0.921875 -3.0625 0.921875q-1.453125 0 -2.609375 -0.65625q-1.140625 -0.65625 -1.796875 -1.859375q-0.65625 -1.203125 -0.65625 -2.78125q0 -1.59375 0.640625 -2.78125q0.640625 -1.203125 1.78125 -1.84375q1.140625 -0.640625 2.640625 -0.640625q1.453125 0 2.5625 0.640625q1.125 0.625 1.734375 1.734375q0.609375 1.109375 0.609375 2.515625zm-1.75 -0.359375q0 -0.96875 -0.4375 -1.671875q-0.421875 -0.703125 -1.171875 -1.0625q-0.734375 -0.359375 -1.625 -0.359375q-1.28125 0 -2.1875 0.828125q-0.90625 0.8125 -1.03125 2.265625l6.453125 0zm3.3481293 0.703125q0 -1.5625 0.640625 -2.734375q0.640625 -1.1875 1.75 -1.84375q1.109375 -0.65625 2.484375 -0.65625q1.1875 0 2.21875 0.546875q1.03125 0.546875 1.5625 1.453125l0 -5.421875l1.71875 0l0 13.8125l-1.71875 0l0 -1.921875q-0.5 0.921875 -1.484375 1.515625q-0.984375 0.578125 -2.3125 0.578125q-1.359375 0 -2.46875 -0.671875q-1.109375 -0.671875 -1.75 -1.875q-0.640625 -1.21875 -0.640625 -2.78125zm8.65625 0.03125q0 -1.15625 -0.46875 -2.015625q-0.453125 -0.859375 -1.25 -1.3125q-0.796875 -0.46875 -1.75 -0.46875q-0.953125 0 -1.734375 0.453125q-0.78125 0.453125 -1.25 1.3125q-0.46875 0.84375 -0.46875 2.0q0 1.1875 0.46875 2.0625q0.46875 0.859375 1.25 1.3125q0.78125 0.453125 1.734375 0.453125q0.953125 0 1.75 -0.453125q0.796875 -0.453125 1.25 -1.3125q0.46875 -0.875 0.46875 -2.03125z" fill-rule="nonzero"/><path fill="#000000" d="m56.83307 82.24236q0 -1.5625 0.640625 -2.734375q0.640625 -1.1875 1.75 -1.84375q1.109375 -0.65625 2.484375 -0.65625q1.1875 0 2.21875 0.546875q1.03125 0.546875 1.5625 1.453125l0 -5.421875l1.71875 0l0 13.8125l-1.71875 0l0 -1.921875q-0.5 0.921875 -1.484375 1.515625q-0.984375 0.578125 -2.3125 0.578125q-1.359375 0 -2.46875 -0.671875q-1.109375 -0.671875 -1.75 -1.875q-0.640625 -1.21875 -0.640625 -2.78125zm8.65625 0.03125q0 -1.15625 -0.46875 -2.015625q-0.453125 -0.859375 -1.25 -1.3125q-0.796875 -0.46875 -1.75 -0.46875q-0.953125 0 -1.734375 0.453125q-0.78125 0.453125 -1.25 1.3125q-0.46875 0.84375 -0.46875 2.0q0 1.1875 0.46875 2.0625q0.46875 0.859375 1.25 1.3125q0.78125 0.453125 1.734375 0.453125q0.953125 0 1.75 -0.453125q0.796875 -0.453125 1.25 -1.3125q0.46875 -0.875 0.46875 -2.03125zm3.9553833 -0.03125q0 -1.5625 0.640625 -2.734375q0.640625 -1.1875 1.75 -1.84375q1.109375 -0.65625 2.46875 -0.65625q1.34375 0 2.328125 0.578125q0.984375 0.578125 1.46875 1.453125l0 -1.859375l1.71875 0l0 10.21875l-1.71875 0l0 -1.90625q-0.5 0.90625 -1.5 1.5q-1.0 0.578125 -2.3125 0.578125q-1.375 0 -2.46875 -0.671875q-1.09375 -0.671875 -1.734375 -1.875q-0.640625 -1.21875 -0.640625 -2.78125zm8.65625 0.03125q0 -1.15625 -0.46875 -2.015625q-0.453125 -0.859375 -1.25 -1.3125q-0.796875 -0.46875 -1.75 -0.46875q-0.953125 0 -1.734375 0.453125q-0.78125 0.453125 -1.25 1.3125q-0.46875 0.84375 -0.46875 2.0q0 1.1875 0.46875 2.0625q0.46875 0.859375 1.25 1.3125q0.78125 0.453125 1.734375 0.453125q0.953125 0 1.75 -0.453125q0.796875 -0.453125 1.25 -1.3125q0.46875 -0.875 0.46875 -2.03125zm6.6585083 -3.703125l0 6.03125q0 0.75 0.3125 1.0625q0.328125 0.296875 1.109375 0.296875l1.25 0l0 1.4375l-1.53125 0q-1.40625 0 -2.125 -0.65625q-0.703125 -0.65625 -0.703125 -2.140625l0 -6.03125l-1.328125 0l0 -1.390625l1.328125 0l0 -2.578125l1.6875 0l0 2.578125l2.671875 0l0 1.390625l-2.671875 0zm4.0877533 3.671875q0 -1.5625 0.640625 -2.734375q0.640625 -1.1875 1.75 -1.84375q1.109375 -0.65625 2.46875 -0.65625q1.34375 0 2.328125 0.578125q0.984375 0.578125 1.46875 1.453125l0 -1.859375l1.71875 0l0 10.21875l-1.71875 0l0 -1.90625q-0.5 0.90625 -1.5 1.5q-1.0 0.578125 -2.3125 0.578125q-1.375 0 -2.46875 -0.671875q-1.09375 -0.671875 -1.734375 -1.875q-0.640625 -1.21875 -0.640625 -2.78125zm8.65625 0.03125q0 -1.15625 -0.46875 -2.015625q-0.453125 -0.859375 -1.25 -1.3125q-0.796875 -0.46875 -1.75 -0.46875q-0.953125 0 -1.734375 0.453125q-0.78125 0.453125 -1.25 1.3125q-0.46875 0.84375 -0.46875 2.0q0 1.1875 0.46875 2.0625q0.46875 0.859375 1.25 1.3125q0.78125 0.453125 1.734375 0.453125q0.953125 0 1.75 -0.453125q0.796875 -0.453125 1.25 -1.3125q0.46875 -0.875 0.46875 -2.03125z" fill-rule="nonzero"/><path fill="#000000" fill-opacity="0.0" d="m7.3097115 155.55736l142.07875 0l0 73.13385l-142.07875 0z" fill-rule="evenodd"/><path fill="#000000" d="m52.75624 178.40991q-0.53125 -1.140625 -1.5625 -1.765625q-1.03125 -0.625 -2.390625 -0.625q-1.359375 0 -2.453125 0.625q-1.09375 0.625 -1.71875 1.796875q-0.625 1.15625 -0.625 2.6875q0 1.53125 0.625 2.6875q0.625 1.15625 1.71875 1.78125q1.09375 0.625 2.453125 0.625q1.90625 0 3.140625 -1.125q1.234375 -1.140625 1.4375 -3.09375l-5.1875 0l0 -1.375l7.0 0l0 1.3125q-0.15625 1.59375 -1.015625 2.9375q-0.859375 1.328125 -2.265625 2.109375q-1.390625 0.765625 -3.109375 0.765625q-1.8125 0 -3.3125 -0.84375q-1.484375 -0.84375 -2.359375 -2.359375q-0.859375 -1.515625 -0.859375 -3.421875q0 -1.890625 0.859375 -3.40625q0.875 -1.53125 2.359375 -2.375q1.5 -0.859375 3.3125 -0.859375q2.078125 0 3.671875 1.03125q1.59375 1.03125 2.328125 2.890625l-2.046875 0zm13.998947 3.734375q0 0.484375 -0.0625 1.015625l-8.171875 0q0.09375 1.515625 1.03125 2.375q0.953125 0.84375 2.296875 0.84375q1.09375 0 1.828125 -0.515625q0.75 -0.515625 1.046875 -1.375l1.828125 0q-0.40625 1.484375 -1.640625 2.40625q-1.234375 0.921875 -3.0625 0.921875q-1.453125 0 -2.609375 -0.65625q-1.140625 -0.65625 -1.796875 -1.859375q-0.65625 -1.203125 -0.65625 -2.78125q0 -1.59375 0.640625 -2.78125q0.640625 -1.203125 1.78125 -1.84375q1.140625 -0.640625 2.640625 -0.640625q1.453125 0 2.5625 0.640625q1.125 0.625 1.734375 1.734375q0.609375 1.109375 0.609375 2.515625zm-1.75 -0.359375q0 -0.96875 -0.4375 -1.671875q-0.421875 -0.703125 -1.171875 -1.0625q-0.734375 -0.359375 -1.625 -0.359375q-1.28125 0 -2.1875 0.828125q-0.90625 0.8125 -1.03125 2.265625l6.453125 0zm8.973129 -4.546875q1.859375 0 3.015625 1.125q1.15625 1.125 1.15625 3.25l0 6.03125l-1.671875 0l0 -5.78125q0 -1.53125 -0.765625 -2.34375q-0.765625 -0.8125 -2.09375 -0.8125q-1.34375 0 -2.140625 0.84375q-0.78125 0.84375 -0.78125 2.4375l0 5.65625l-1.703125 0l0 -10.21875l1.703125 0l0 1.453125q0.5 -0.78125 1.359375 -1.203125q0.875 -0.4375 1.921875 -0.4375zm16.283752 4.90625q0 0.484375 -0.0625 1.015625l-8.171875 0q0.09375 1.515625 1.03125 2.375q0.953125 0.84375 2.296875 0.84375q1.09375 0 1.828125 -0.515625q0.75 -0.515625 1.046875 -1.375l1.828125 0q-0.40625 1.484375 -1.640625 2.40625q-1.234375 0.921875 -3.0625 0.921875q-1.453125 0 -2.609375 -0.65625q-1.140625 -0.65625 -1.796875 -1.859375q-0.65625 -1.203125 -0.65625 -2.78125q0 -1.59375 0.640625 -2.78125q0.640625 -1.203125 1.78125 -1.84375q1.140625 -0.640625 2.640625 -0.640625q1.453125 0 2.5625 0.640625q1.125 0.625 1.734375 1.734375q0.609375 1.109375 0.609375 2.515625zm-1.75 -0.359375q0 -0.96875 -0.4375 -1.671875q-0.421875 -0.703125 -1.171875 -1.0625q-0.734375 -0.359375 -1.625 -0.359375q-1.28125 0 -2.1875 0.828125q-0.90625 0.8125 -1.03125 2.265625l6.453125 0zm5.6918793 -2.703125q0.4375 -0.875 1.265625 -1.359375q0.84375 -0.484375 2.03125 -0.484375l0 1.75l-0.453125 0q-2.84375 0 -2.84375 3.09375l0 5.5625l-1.703125 0l0 -10.21875l1.703125 0l0 1.65625zm4.615036 3.40625q0 -1.5625 0.640625 -2.734375q0.640625 -1.1875 1.75 -1.84375q1.109375 -0.65625 2.46875 -0.65625q1.34375 0 2.328125 0.578125q0.984375 0.578125 1.46875 1.453125l0 -1.859375l1.71875 0l0 10.21875l-1.71875 0l0 -1.90625q-0.5 0.90625 -1.5 1.5q-1.0 0.578125 -2.3125 0.578125q-1.375 0 -2.46875 -0.671875q-1.09375 -0.671875 -1.734375 -1.875q-0.640625 -1.21875 -0.640625 -2.78125zm8.65625 0.03125q0 -1.15625 -0.46875 -2.015625q-0.453125 -0.859375 -1.25 -1.3125q-0.796875 -0.46875 -1.75 -0.46875q-0.953125 0 -1.734375 0.453125q-0.78125 0.453125 -1.25 1.3125q-0.46875 0.84375 -0.46875 2.0q0 1.1875 0.46875 2.0625q0.46875 0.859375 1.25 1.3125q0.78125 0.453125 1.734375 0.453125q0.953125 0 1.75 -0.453125q0.796875 -0.453125 1.25 -1.3125q0.46875 -0.875 0.46875 -2.03125zm6.2991333 -8.6875l0 13.8125l-1.703125 0l0 -13.8125l1.703125 0z" fill-rule="nonzero"/><path fill="#000000" d="m62.121513 199.63803q1.1875 0 2.125 0.5q0.9375 0.484375 1.46875 1.484375q0.546875 0.984375 0.546875 2.390625l0 6.03125l-1.6875 0l0 -5.78125q0 -1.53125 -0.75 -2.34375q-0.75 -0.8125 -2.046875 -0.8125q-1.3125 0 -2.109375 0.859375q-0.78125 0.84375 -0.78125 2.4375l0 5.640625l-1.671875 0l0 -5.78125q0 -1.53125 -0.765625 -2.34375q-0.75 -0.8125 -2.03125 -0.8125q-1.328125 0 -2.109375 0.859375q-0.78125 0.84375 -0.78125 2.4375l0 5.640625l-1.703125 0l0 -10.21875l1.703125 0l0 1.46875q0.5 -0.796875 1.34375 -1.21875q0.84375 -0.4375 1.875 -0.4375q1.296875 0 2.28125 0.578125q0.984375 0.578125 1.46875 1.6875q0.4375 -1.078125 1.421875 -1.671875q0.984375 -0.59375 2.203125 -0.59375zm11.372185 10.578125q-1.4375 0 -2.6093674 -0.65625q-1.15625 -0.65625 -1.828125 -1.859375q-0.65625 -1.203125 -0.65625 -2.78125q0 -1.578125 0.6875 -2.78125q0.6875 -1.203125 1.859375 -1.84375q1.1718674 -0.640625 2.6249924 -0.640625q1.453125 0 2.625 0.640625q1.1875 0.640625 1.859375 1.84375q0.6875 1.1875 0.6875 2.78125q0 1.578125 -0.703125 2.78125q-0.703125 1.203125 -1.90625 1.859375q-1.1875 0.65625 -2.640625 0.65625zm0 -1.5q0.921875 0 1.71875 -0.421875q0.796875 -0.4375 1.296875 -1.296875q0.5 -0.859375 0.5 -2.078125q0 -1.234375 -0.484375 -2.09375q-0.484375 -0.859375 -1.28125 -1.28125q-0.78125 -0.421875 -1.6875 -0.421875q-0.9375 0 -1.71875 0.421875q-0.7656174 0.421875 -1.2343674 1.28125q-0.46875 0.859375 -0.46875 2.09375q0 1.25 0.453125 2.109375q0.46875 0.84375 1.2343674 1.265625q0.765625 0.421875 1.671875 0.421875zm6.8462524 -3.828125q0 -1.5625 0.640625 -2.734375q0.640625 -1.1875 1.75 -1.84375q1.109375 -0.65625 2.484375 -0.65625q1.1875 0 2.21875 0.546875q1.03125 0.546875 1.5625 1.453125l0 -5.421875l1.71875 0l0 13.8125l-1.71875 0l0 -1.921875q-0.5 0.921875 -1.484375 1.515625q-0.984375 0.578125 -2.3125 0.578125q-1.359375 0 -2.46875 -0.671875q-1.109375 -0.671875 -1.75 -1.875q-0.640625 -1.21875 -0.640625 -2.78125zm8.65625 0.03125q0 -1.15625 -0.46875 -2.015625q-0.453125 -0.859375 -1.25 -1.3125q-0.796875 -0.46875 -1.75 -0.46875q-0.953125 0 -1.734375 0.453125q-0.78125 0.453125 -1.25 1.3125q-0.46875 0.84375 -0.46875 2.0q0 1.1875 0.46875 2.0625q0.46875 0.859375 1.25 1.3125q0.78125 0.453125 1.734375 0.453125q0.953125 0 1.75 -0.453125q0.796875 -0.453125 1.25 -1.3125q0.46875 -0.875 0.46875 -2.03125zm13.924133 -0.375q0 0.484375 -0.0625 1.015625l-8.171875 0q0.09375 1.515625 1.03125 2.375q0.953125 0.84375 2.296875 0.84375q1.09375 0 1.828125 -0.515625q0.75 -0.515625 1.046875 -1.375l1.828125 0q-0.40625 1.484375 -1.640625 2.40625q-1.234375 0.921875 -3.0625 0.921875q-1.453125 0 -2.609375 -0.65625q-1.140625 -0.65625 -1.796875 -1.859375q-0.65625 -1.203125 -0.65625 -2.78125q0 -1.59375 0.640625 -2.78125q0.640625 -1.203125 1.78125 -1.84375q1.140625 -0.640625 2.640625 -0.640625q1.453125 0 2.5625 0.640625q1.125 0.625 1.734375 1.734375q0.609375 1.109375 0.609375 2.515625zm-1.75 -0.359375q0 -0.96875 -0.4375 -1.671875q-0.421875 -0.703125 -1.171875 -1.0625q-0.734375 -0.359375 -1.625 -0.359375q-1.28125 0 -2.1875 0.828125q-0.90625 0.8125 -1.03125 2.265625l6.453125 0zm5.6918793 -7.953125l0 13.8125l-1.703125 0l0 -13.8125l1.703125 0z" fill-rule="nonzero"/><path fill="#ff7673" fill-opacity="0.4972" d="m514.3185 24.529793l234.66492 0c32.40045 0 58.6662 47.580025 58.6662 106.27297c0 58.692932 -26.265747 106.272964 -58.6662 106.272964l-234.66492 0l0 0c-32.400482 0 -58.66626 -47.580032 -58.66626 -106.272964c0 -58.692947 26.265778 -106.27297 58.66626 -106.27297z" fill-rule="evenodd"/><path fill="#000000" fill-opacity="0.0" d="m748.9834 237.07573c-32.400513 0 -58.66626 -47.580032 -58.66626 -106.272964c0 -58.692947 26.265747 -106.27297 58.66626 -106.27297" fill-rule="evenodd"/><path fill="#000000" fill-opacity="0.0" d="m514.3185 24.529793l234.66492 0c32.40045 0 58.6662 47.580025 58.6662 106.27297c0 58.692932 -26.265747 106.272964 -58.6662 106.272964l-234.66492 0l0 0c-32.400482 0 -58.66626 -47.580032 -58.66626 -106.272964c0 -58.692947 26.265778 -106.27297 58.66626 -106.27297z" fill-rule="evenodd"/><path stroke="#ffffff" stroke-width="3.0" stroke-linejoin="round" stroke-linecap="butt" d="m748.9834 237.07573c-32.400513 0 -58.66626 -47.580032 -58.66626 -106.272964c0 -58.692947 26.265747 -106.27297 58.66626 -106.27297" fill-rule="evenodd"/><path stroke="#ffffff" stroke-width="3.0" stroke-linejoin="round" stroke-linecap="butt" d="m514.3185 24.529793l234.66492 0c32.40045 0 58.6662 47.580025 58.6662 106.27297c0 58.692932 -26.265747 106.272964 -58.6662 106.272964l-234.66492 0l0 0c-32.400482 0 -58.66626 -47.580032 -58.66626 -106.272964c0 -58.692947 26.265778 -106.27297 58.66626 -106.27297z" fill-rule="evenodd"/><path fill="#000000" fill-opacity="0.0" d="m149.38846 69.478615l64.976364 61.322838" fill-rule="evenodd"/><path stroke="#000000" stroke-width="1.0" stroke-linejoin="round" stroke-linecap="butt" d="m149.38846 69.478615l62.483994 58.970604" fill-rule="evenodd"/><path fill="#000000" stroke="#000000" stroke-width="1.0" stroke-linecap="butt" d="m211.87245 128.44922l-1.5897369 0.04598999l3.0189362 1.3028412l-1.4751892 -2.938568z" fill-rule="evenodd"/><path fill="#000000" fill-opacity="0.0" d="m149.38846 192.12428l64.976364 -61.32283" fill-rule="evenodd"/><path stroke="#000000" stroke-width="1.0" stroke-linejoin="round" stroke-linecap="butt" d="m149.38846 192.12428l62.483994 -58.97061" fill-rule="evenodd"/><path fill="#000000" stroke="#000000" stroke-width="1.0" stroke-linecap="butt" d="m211.87245 133.15369l-0.04598999 1.5897217l1.4751892 -2.938568l-3.0189362 1.3028564z" fill-rule="evenodd"/><path fill="#ff7673" fill-opacity="0.4972" d="m273.0455 24.529793l234.66492 0c32.400482 0 58.66623 47.580025 58.66623 106.27297c0 58.692932 -26.265747 106.272964 -58.66623 106.272964l-234.66492 0l0 0c-32.400467 0 -58.66623 -47.580032 -58.66623 -106.272964c0 -58.692947 26.265762 -106.27297 58.66623 -106.27297z" fill-rule="evenodd"/><path fill="#000000" fill-opacity="0.0" d="m507.71042 237.07573c-32.400482 0 -58.66623 -47.580032 -58.66623 -106.272964c0 -58.692947 26.265747 -106.27297 58.66623 -106.27297" fill-rule="evenodd"/><path fill="#000000" fill-opacity="0.0" d="m273.0455 24.529793l234.66492 0c32.400482 0 58.66623 47.580025 58.66623 106.27297c0 58.692932 -26.265747 106.272964 -58.66623 106.272964l-234.66492 0l0 0c-32.400467 0 -58.66623 -47.580032 -58.66623 -106.272964c0 -58.692947 26.265762 -106.27297 58.66623 -106.27297z" fill-rule="evenodd"/><path fill="#ffffff" d="m286.38925 48.98104l4.1875 0l0 2.46875l-7.375 0l0 -13.09375l3.1875 0l0 10.625zm5.0708923 -2.75q0 -1.609375 0.609375 -2.8125q0.609375 -1.21875 1.65625 -1.875q1.046875 -0.65625 2.328125 -0.65625q1.109375 0 1.9375 0.453125q0.828125 0.453125 1.28125 1.171875l0 -1.46875l3.1875 0l0 10.40625l-3.1875 0l0 -1.46875q-0.46875 0.71875 -1.3125 1.171875q-0.828125 0.453125 -1.921875 0.453125q-1.265625 0 -2.3125 -0.65625q-1.046875 -0.671875 -1.65625 -1.890625q-0.609375 -1.234375 -0.609375 -2.828125zm7.8125 0.015625q0 -1.203125 -0.671875 -1.890625q-0.65625 -0.6875 -1.609375 -0.6875q-0.953125 0 -1.625 0.6875q-0.65625 0.671875 -0.65625 1.875q0 1.1875 0.65625 1.890625q0.671875 0.703125 1.625 0.703125q0.953125 0 1.609375 -0.6875q0.671875 -0.703125 0.671875 -1.890625zm8.683228 -3.734375q0.453125 -0.71875 1.28125 -1.171875q0.84375 -0.453125 1.9375 -0.453125q1.28125 0 2.328125 0.65625q1.046875 0.65625 1.640625 1.875q0.609375 1.203125 0.609375 2.8125q0 1.59375 -0.609375 2.828125q-0.59375 1.21875 -1.640625 1.890625q-1.046875 0.65625 -2.328125 0.65625q-1.109375 0 -1.9375 -0.4375q-0.8125 -0.453125 -1.28125 -1.171875l0 1.453125l-3.1875 0l0 -13.8125l3.1875 0l0 4.875zm4.5625 3.71875q0 -1.203125 -0.671875 -1.875q-0.65625 -0.6875 -1.625 -0.6875q-0.953125 0 -1.625 0.6875q-0.65625 0.6875 -0.65625 1.890625q0 1.1875 0.65625 1.890625q0.671875 0.6875 1.625 0.6875q0.953125 0 1.625 -0.703125q0.671875 -0.703125 0.671875 -1.890625zm14.730103 -0.15625q0 0.453125 -0.0625 0.9375l-7.21875 0q0.078125 0.96875 0.625 1.484375q0.5625 0.515625 1.359375 0.515625q1.1875 0 1.65625 -1.015625l3.40625 0q-0.265625 1.03125 -0.953125 1.859375q-0.671875 0.8125 -1.703125 1.28125q-1.03125 0.46875 -2.296875 0.46875q-1.53125 0 -2.734375 -0.65625q-1.1875 -0.65625 -1.859375 -1.859375q-0.671875 -1.21875 -0.671875 -2.84375q0 -1.625 0.65625 -2.828125q0.671875 -1.21875 1.859375 -1.875q1.203125 -0.65625 2.75 -0.65625q1.515625 0 2.6875 0.640625q1.171875 0.625 1.828125 1.8125q0.671875 1.171875 0.671875 2.734375zm-3.265625 -0.84375q0 -0.8125 -0.5625 -1.296875q-0.5625 -0.484375 -1.390625 -0.484375q-0.8125 0 -1.359375 0.46875q-0.546875 0.453125 -0.671875 1.3125l3.984375 0zm8.132874 -7.59375l0 13.8125l-3.1875 0l0 -13.8125l3.1875 0zm12.128601 8.4375q0 0.453125 -0.0625 0.9375l-7.21875 0q0.078125 0.96875 0.625 1.484375q0.5625 0.515625 1.359375 0.515625q1.1875 0 1.65625 -1.015625l3.40625 0q-0.265625 1.03125 -0.953125 1.859375q-0.671875 0.8125 -1.703125 1.28125q-1.03125 0.46875 -2.296875 0.46875q-1.53125 0 -2.734375 -0.65625q-1.1875 -0.65625 -1.859375 -1.859375q-0.671875 -1.21875 -0.671875 -2.84375q0 -1.625 0.65625 -2.828125q0.671875 -1.21875 1.859375 -1.875q1.203125 -0.65625 2.75 -0.65625q1.515625 0 2.6875 0.640625q1.171875 0.625 1.828125 1.8125q0.671875 1.171875 0.671875 2.734375zm-3.265625 -0.84375q0 -0.8125 -0.5625 -1.296875q-0.5625 -0.484375 -1.390625 -0.484375q-0.8125 0 -1.359375 0.46875q-0.546875 0.453125 -0.671875 1.3125l3.984375 0zm8.132874 -2.453125q0.5625 -0.859375 1.390625 -1.34375q0.84375 -0.5 1.875 -0.5l0 3.375l-0.875 0q-1.1875 0 -1.796875 0.515625q-0.59375 0.5 -0.59375 1.796875l0 4.828125l-3.1875 0l0 -10.40625l3.1875 0l0 1.734375z" fill-rule="nonzero"/><path fill="#000000" fill-opacity="0.0" d="m268.8756 109.8849l314.96063 0l0 314.96063l-314.96063 0z" fill-rule="evenodd"/><path fill="#ffffff" d="m288.45374 123.71115l0 2.546875l-3.46875 0l0 10.546875l-3.1875 0l0 -10.546875l-3.46875 0l0 -2.546875l10.125 0zm0.9633484 7.875q0 -1.609375 0.609375 -2.8125q0.609375 -1.21875 1.65625 -1.875q1.046875 -0.65625 2.328125 -0.65625q1.109375 0 1.9375 0.453125q0.828125 0.453125 1.28125 1.171875l0 -1.46875l3.1875 0l0 10.40625l-3.1875 0l0 -1.46875q-0.46875 0.71875 -1.3125 1.171875q-0.828125 0.453125 -1.921875 0.453125q-1.265625 0 -2.3125 -0.65625q-1.046875 -0.671875 -1.65625 -1.890625q-0.609375 -1.234375 -0.609375 -2.828125zm7.8125 0.015625q0 -1.203125 -0.671875 -1.890625q-0.65625 -0.6875 -1.609375 -0.6875q-0.953125 0 -1.625 0.6875q-0.65625 0.671875 -0.65625 1.875q0 1.1875 0.65625 1.890625q0.671875 0.703125 1.625 0.703125q0.953125 0 1.609375 -0.6875q0.671875 -0.703125 0.671875 -1.890625zm7.1051025 -6.296875q-0.84375 0 -1.375 -0.484375q-0.53125 -0.5 -0.53125 -1.21875q0 -0.75 0.53125 -1.234375q0.53125 -0.5 1.375 -0.5q0.8125 0 1.34375 0.5q0.53125 0.484375 0.53125 1.234375q0 0.71875 -0.53125 1.21875q-0.53125 0.484375 -1.34375 0.484375zm1.578125 1.09375l0 10.40625l-3.1875 0l0 -10.40625l3.1875 0zm5.503601 -3.40625l0 13.8125l-3.1875 0l0 -13.8125l3.1875 0zm7.050476 13.96875q-1.53125 0 -2.75 -0.65625q-1.21875 -0.65625 -1.921875 -1.859375q-0.703125 -1.21875 -0.703125 -2.84375q0 -1.609375 0.703125 -2.828125q0.71875 -1.21875 1.953125 -1.875q1.234375 -0.65625 2.765625 -0.65625q1.53125 0 2.75 0.65625q1.234375 0.65625 1.9375 1.875q0.71875 1.21875 0.71875 2.828125q0 1.609375 -0.71875 2.828125q-0.71875 1.21875 -1.96875 1.875q-1.234375 0.65625 -2.765625 0.65625zm0 -2.765625q0.921875 0 1.5625 -0.671875q0.640625 -0.671875 0.640625 -1.921875q0 -1.25 -0.625 -1.921875q-0.625 -0.671875 -1.53125 -0.671875q-0.9375 0 -1.5625 0.671875q-0.609375 0.65625 -0.609375 1.921875q0 1.25 0.609375 1.921875q0.609375 0.671875 1.515625 0.671875zm10.337158 -6.0625q0.5625 -0.859375 1.390625 -1.34375q0.84375 -0.5 1.875 -0.5l0 3.375l-0.875 0q-1.1875 0 -1.796875 0.515625q-0.59375 0.5 -0.59375 1.796875l0 4.828125l-3.1875 0l0 -10.40625l3.1875 0l0 1.734375z" fill-rule="nonzero"/><path fill="#000000" fill-opacity="0.0" d="m475.70636 109.8849l314.96063 0l0 314.96063l-314.96063 0z" fill-rule="evenodd"/><path fill="#ffffff" d="m495.2845 123.71115l0 2.546875l-3.46875 0l0 10.546875l-3.1875 0l0 -10.546875l-3.46875 0l0 -2.546875l10.125 0zm11.885223 2.6875l0 10.40625l-3.1875 0l0 -1.421875q-0.484375 0.6875 -1.328125 1.109375q-0.828125 0.421875 -1.828125 0.421875q-1.1875 0 -2.109375 -0.53125q-0.90625 -0.53125 -1.421875 -1.53125q-0.5 -1.015625 -0.5 -2.375l0 -6.078125l3.171875 0l0 5.65625q0 1.03125 0.53125 1.609375q0.546875 0.578125 1.46875 0.578125q0.921875 0 1.46875 -0.578125q0.546875 -0.578125 0.546875 -1.609375l0 -5.65625l3.1875 0zm8.63681 -0.109375q1.828125 0 2.921875 1.1875q1.09375 1.171875 1.09375 3.25l0 6.078125l-3.171875 0l0 -5.65625q0 -1.046875 -0.546875 -1.625q-0.546875 -0.578125 -1.453125 -0.578125q-0.921875 0 -1.46875 0.578125q-0.53125 0.578125 -0.53125 1.625l0 5.65625l-3.1875 0l0 -10.40625l3.1875 0l0 1.375q0.484375 -0.6875 1.296875 -1.078125q0.828125 -0.40625 1.859375 -0.40625zm16.04309 5.140625q0 0.453125 -0.0625 0.9375l-7.21875 0q0.078125 0.96875 0.625 1.484375q0.5625 0.515625 1.359375 0.515625q1.1875 0 1.65625 -1.015625l3.40625 0q-0.265625 1.03125 -0.953125 1.859375q-0.671875 0.8125 -1.703125 1.28125q-1.03125 0.46875 -2.296875 0.46875q-1.53125 0 -2.734375 -0.65625q-1.1875 -0.65625 -1.859375 -1.859375q-0.671875 -1.21875 -0.671875 -2.84375q0 -1.625 0.65625 -2.828125q0.671875 -1.21875 1.859375 -1.875q1.203125 -0.65625 2.75 -0.65625q1.515625 0 2.6875 0.640625q1.171875 0.625 1.828125 1.8125q0.671875 1.171875 0.671875 2.734375zm-3.265625 -0.84375q0 -0.8125 -0.5625 -1.296875q-0.5625 -0.484375 -1.390625 -0.484375q-0.8125 0 -1.359375 0.46875q-0.546875 0.453125 -0.671875 1.3125l3.984375 0zm8.132874 -2.453125q0.5625 -0.859375 1.390625 -1.34375q0.84375 -0.5 1.875 -0.5l0 3.375l-0.875 0q-1.1875 0 -1.796875 0.515625q-0.59375 0.5 -0.59375 1.796875l0 4.828125l-3.1875 0l0 -10.40625l3.1875 0l0 1.734375z" fill-rule="nonzero"/></g></svg>