<svg version="1.1" viewBox="0.0 0.0 686.0 204.0" fill="none" stroke="none" stroke-linecap="square" stroke-miterlimit="10" xmlns:xlink="http://www.w3.org/1999/xlink" xmlns="http://www.w3.org/2000/svg"><clipPath id="p.0"><path d="m0 0l686.0 0l0 204.0l-686.0 0l0 -204.0z" clip-rule="nonzero"/></clipPath><g clip-path="url(#p.0)"><path fill="#000000" fill-opacity="0.0" d="m0 0l686.0 0l0 204.0l-686.0 0z" fill-rule="evenodd"/><path fill="#ffcc66" fill-opacity="0.7598" d="m61.603237 13.454068l171.5153 0c23.68132 0 42.87883 38.259678 42.87883 85.455376c0 47.1957 -19.19751 85.455376 -42.87883 85.455376l-171.5153 0l0 0c-23.681324 0 -42.87883 -38.259674 -42.87883 -85.455376c0 -47.1957 19.197504 -85.455376 42.87883 -85.455376z" fill-rule="evenodd"/><path fill="#000000" fill-opacity="0.0" d="m233.11855 184.36482c-23.68132 0 -42.87883 -38.259674 -42.87883 -85.455376c0 -47.1957 19.19751 -85.455376 42.87883 -85.455376" fill-rule="evenodd"/><path fill="#000000" fill-opacity="0.0" d="m61.603237 13.454068l171.5153 0c23.68132 0 42.87883 38.259678 42.87883 85.455376c0 47.1957 -19.19751 85.455376 -42.87883 85.455376l-171.5153 0l0 0c-23.681324 0 -42.87883 -38.259674 -42.87883 -85.455376c0 -47.1957 19.197504 -85.455376 42.87883 -85.455376z" fill-rule="evenodd"/><path stroke="#ffffff" stroke-width="3.0" stroke-linejoin="round" stroke-linecap="butt" d="m233.11855 184.36482c-23.68132 0 -42.87883 -38.259674 -42.87883 -85.455376c0 -47.1957 19.19751 -85.455376 42.87883 -85.455376" fill-rule="evenodd"/><path stroke="#ffffff" stroke-width="3.0" stroke-linejoin="round" stroke-linecap="butt" d="m61.603237 13.454068l171.5153 0c23.68132 0 42.87883 38.259678 42.87883 85.455376c0 47.1957 -19.19751 85.455376 -42.87883 85.455376l-171.5153 0l0 0c-23.681324 0 -42.87883 -38.259674 -42.87883 -85.455376c0 -47.1957 19.197504 -85.455376 42.87883 -85.455376z" fill-rule="evenodd"/><path fill="#000000" d="m81.18136 92.7357l0 2.546875l-3.46875 0l0 10.546875l-3.1875 0l0 -10.546875l-3.46875 0l0 -2.546875l10.125 0zm0.9633484 7.875q0 -1.609375 0.609375 -2.8125q0.609375 -1.21875 1.65625 -1.875q1.046875 -0.65625 2.328125 -0.65625q1.109375 0 1.9375 0.453125q0.828125 0.453125 1.28125 1.171875l0 -1.46875l3.1875 0l0 10.40625l-3.1875 0l0 -1.46875q-0.46875 0.71875 -1.3125 1.171875q-0.828125 0.453125 -1.921875 0.453125q-1.265625 0 -2.3125 -0.65625q-1.046875 -0.671875 -1.65625 -1.890625q-0.609375 -1.234375 -0.609375 -2.828125zm7.8125 0.015625q0 -1.203125 -0.671875 -1.890625q-0.65625 -0.6875 -1.609375 -0.6875q-0.953125 0 -1.625 0.6875q-0.65625 0.671875 -0.65625 1.875q0 1.1875 0.65625 1.890625q0.671875 0.703125 1.625 0.703125q0.953125 0 1.609375 -0.6875q0.671875 -0.703125 0.671875 -1.890625zm7.1051025 -6.296875q-0.84375 0 -1.375 -0.484375q-0.53125 -0.5 -0.53125 -1.21875q0 -0.75 0.53125 -1.234375q0.53125 -0.5 1.375 -0.5q0.8125 0 1.34375 0.5q0.53125 0.484375 0.53125 1.234375q0 0.71875 -0.53125 1.21875q-0.53125 0.484375 -1.34375 0.484375zm1.578125 1.09375l0 10.40625l-3.1875 0l0 -10.40625l3.1875 0zm5.503601 -3.40625l0 13.8125l-3.1875 0l0 -13.8125l3.1875 0zm7.050476 13.96875q-1.53125 0 -2.75 -0.65625q-1.21875 -0.65625 -1.921875 -1.859375q-0.703125 -1.21875 -0.703125 -2.84375q0 -1.609375 0.703125 -2.828125q0.71875 -1.21875 1.953125 -1.875q1.234375 -0.65625 2.765625 -0.65625q1.53125 0 2.75 0.65625q1.234375 0.65625 1.9375 1.875q0.71875 1.21875 0.71875 2.828125q0 1.609375 -0.71875 2.828125q-0.71875 1.21875 -1.96875 1.875q-1.234375 0.65625 -2.765625 0.65625zm0 -2.765625q0.921875 0 1.5625 -0.671875q0.640625 -0.671875 0.640625 -1.921875q0 -1.25 -0.625 -1.921875q-0.625 -0.671875 -1.53125 -0.671875q-0.9375 0 -1.5625 0.671875q-0.609375 0.65625 -0.609375 1.921875q0 1.25 0.609375 1.921875q0.609375 0.671875 1.515625 0.671875zm10.337158 -6.0625q0.5625 -0.859375 1.390625 -1.34375q0.84375 -0.5 1.875 -0.5l0 3.375l-0.875 0q-1.1875 0 -1.796875 0.515625q-0.59375 0.5 -0.59375 1.796875l0 4.828125l-3.1875 0l0 -10.40625l3.1875 0l0 1.734375z" fill-rule="nonzero"/><path fill="#32c8cd" fill-opacity="0.8883" d="m260.33026 13.454068l171.51532 0c23.681335 0 42.878815 38.259678 42.878815 85.455376c0 47.1957 -19.19748 85.455376 -42.878815 85.455376l-171.51532 0l0 0c-23.68132 0 -42.878815 -38.259674 -42.878815 -85.455376c0 -47.1957 19.197495 -85.455376 42.878815 -85.455376z" fill-rule="evenodd"/><path fill="#000000" fill-opacity="0.0" d="m431.84558 184.36482c-23.681335 0 -42.878815 -38.259674 -42.878815 -85.455376c0 -47.1957 19.19748 -85.455376 42.878815 -85.455376" fill-rule="evenodd"/><path fill="#000000" fill-opacity="0.0" d="m260.33026 13.454068l171.51532 0c23.681335 0 42.878815 38.259678 42.878815 85.455376c0 47.1957 -19.19748 85.455376 -42.878815 85.455376l-171.51532 0l0 0c-23.68132 0 -42.878815 -38.259674 -42.878815 -85.455376c0 -47.1957 19.197495 -85.455376 42.878815 -85.455376z" fill-rule="evenodd"/><path stroke="#ffffff" stroke-width="3.0" stroke-linejoin="round" stroke-linecap="butt" d="m431.84558 184.36482c-23.681335 0 -42.878815 -38.259674 -42.878815 -85.455376c0 -47.1957 19.19748 -85.455376 42.878815 -85.455376" fill-rule="evenodd"/><path stroke="#ffffff" stroke-width="3.0" stroke-linejoin="round" stroke-linecap="butt" d="m260.33026 13.454068l171.51532 0c23.681335 0 42.878815 38.259678 42.878815 85.455376c0 47.1957 -19.19748 85.455376 -42.878815 85.455376l-171.51532 0l0 0c-23.68132 0 -42.878815 -38.259674 -42.878815 -85.455376c0 -47.1957 19.197495 -85.455376 42.878815 -85.455376z" fill-rule="evenodd"/><path fill="#000000" d="m279.9084 92.7357l0 2.546875l-3.46875 0l0 10.546875l-3.1875 0l0 -10.546875l-3.46875 0l0 -2.546875l10.125 0zm11.885223 2.6875l0 10.40625l-3.1875 0l0 -1.421875q-0.484375 0.6875 -1.328125 1.109375q-0.828125 0.421875 -1.828125 0.421875q-1.1875 0 -2.109375 -0.53125q-0.90625 -0.53125 -1.421875 -1.53125q-0.5 -1.015625 -0.5 -2.375l0 -6.078125l3.171875 0l0 5.65625q0 1.03125 0.53125 1.609375q0.546875 0.578125 1.46875 0.578125q0.921875 0 1.46875 -0.578125q0.546875 -0.578125 0.546875 -1.609375l0 -5.65625l3.1875 0zm8.63681 -0.109375q1.828125 0 2.921875 1.1875q1.09375 1.171875 1.09375 3.25l0 6.078125l-3.171875 0l0 -5.65625q0 -1.046875 -0.546875 -1.625q-0.546875 -0.578125 -1.453125 -0.578125q-0.921875 0 -1.46875 0.578125q-0.53125 0.578125 -0.53125 1.625l0 5.65625l-3.1875 0l0 -10.40625l3.1875 0l0 1.375q0.484375 -0.6875 1.296875 -1.078125q0.828125 -0.40625 1.859375 -0.40625zm16.04306 5.140625q0 0.453125 -0.0625 0.9375l-7.21875 0q0.078125 0.96875 0.625 1.484375q0.5625 0.515625 1.359375 0.515625q1.1875 0 1.65625 -1.015625l3.40625 0q-0.265625 1.03125 -0.953125 1.859375q-0.671875 0.8125 -1.703125 1.28125q-1.03125 0.46875 -2.296875 0.46875q-1.53125 0 -2.734375 -0.65625q-1.1875 -0.65625 -1.859375 -1.859375q-0.671875 -1.21875 -0.671875 -2.84375q0 -1.625 0.65625 -2.828125q0.671875 -1.21875 1.859375 -1.875q1.203125 -0.65625 2.75 -0.65625q1.515625 0 2.6875 0.640625q1.171875 0.625 1.828125 1.8125q0.671875 1.171875 0.671875 2.734375zm-3.265625 -0.84375q0 -0.8125 -0.5625 -1.296875q-0.5625 -0.484375 -1.390625 -0.484375q-0.8125 0 -1.359375 0.46875q-0.546875 0.453125 -0.671875 1.3125l3.984375 0zm8.132874 -2.453125q0.5625 -0.859375 1.390625 -1.34375q0.84375 -0.5 1.875 -0.5l0 3.375l-0.875 0q-1.1875 0 -1.796875 0.515625q-0.59375 0.5 -0.59375 1.796875l0 4.828125l-3.1875 0l0 -10.40625l3.1875 0l0 1.734375z" fill-rule="nonzero"/><path fill="#ff7673" fill-opacity="0.8101" d="m453.78433 13.454068l171.51529 0c23.681335 0 42.878845 38.259678 42.878845 85.455376c0 47.1957 -19.19751 85.455376 -42.878845 85.455376l-171.51529 0l0 0c-23.681305 0 -42.878815 -38.259674 -42.878815 -85.455376c0 -47.1957 19.19751 -85.455376 42.878815 -85.455376z" fill-rule="evenodd"/><path fill="#000000" fill-opacity="0.0" d="m625.2996 184.36482c-23.681274 0 -42.878784 -38.259674 -42.878784 -85.455376c0 -47.1957 19.19751 -85.455376 42.878784 -85.455376" fill-rule="evenodd"/><path fill="#000000" fill-opacity="0.0" d="m453.78433 13.454068l171.51529 0c23.681335 0 42.878845 38.259678 42.878845 85.455376c0 47.1957 -19.19751 85.455376 -42.878845 85.455376l-171.51529 0l0 0c-23.681305 0 -42.878815 -38.259674 -42.878815 -85.455376c0 -47.1957 19.19751 -85.455376 42.878815 -85.455376z" fill-rule="evenodd"/><path stroke="#ffffff" stroke-width="3.0" stroke-linejoin="round" stroke-linecap="butt" d="m625.2996 184.36482c-23.681274 0 -42.878784 -38.259674 -42.878784 -85.455376c0 -47.1957 19.19751 -85.455376 42.878784 -85.455376" fill-rule="evenodd"/><path stroke="#ffffff" stroke-width="3.0" stroke-linejoin="round" stroke-linecap="butt" d="m453.78433 13.454068l171.51529 0c23.681335 0 42.878845 38.259678 42.878845 85.455376c0 47.1957 -19.19751 85.455376 -42.878845 85.455376l-171.51529 0l0 0c-23.681305 0 -42.878815 -38.259674 -42.878815 -85.455376c0 -47.1957 19.19751 -85.455376 42.878815 -85.455376z" fill-rule="evenodd"/><path fill="#000000" d="m467.12808 103.3607l4.1875 0l0 2.46875l-7.375 0l0 -13.09375l3.1875 0l0 10.625zm5.070923 -2.75q0 -1.609375 0.609375 -2.8125q0.609375 -1.21875 1.65625 -1.875q1.046875 -0.65625 2.328125 -0.65625q1.109375 0 1.9375 0.453125q0.828125 0.453125 1.28125 1.171875l0 -1.46875l3.1875 0l0 10.40625l-3.1875 0l0 -1.46875q-0.46875 0.71875 -1.3125 1.171875q-0.828125 0.453125 -1.921875 0.453125q-1.265625 0 -2.3125 -0.65625q-1.046875 -0.671875 -1.65625 -1.890625q-0.609375 -1.234375 -0.609375 -2.828125zm7.8125 0.015625q0 -1.203125 -0.671875 -1.890625q-0.65625 -0.6875 -1.609375 -0.6875q-0.953125 0 -1.625 0.6875q-0.65625 0.671875 -0.65625 1.875q0 1.1875 0.65625 1.890625q0.671875 0.703125 1.625 0.703125q0.953125 0 1.609375 -0.6875q0.671875 -0.703125 0.671875 -1.890625zm8.683228 -3.734375q0.453125 -0.71875 1.28125 -1.171875q0.84375 -0.453125 1.9375 -0.453125q1.28125 0 2.328125 0.65625q1.046875 0.65625 1.640625 1.875q0.609375 1.203125 0.609375 2.8125q0 1.59375 -0.609375 2.828125q-0.59375 1.21875 -1.640625 1.890625q-1.046875 0.65625 -2.328125 0.65625q-1.109375 0 -1.9375 -0.4375q-0.8125 -0.453125 -1.28125 -1.171875l0 1.453125l-3.1875 0l0 -13.8125l3.1875 0l0 4.875zm4.5625 3.71875q0 -1.203125 -0.671875 -1.875q-0.65625 -0.6875 -1.625 -0.6875q-0.953125 0 -1.625 0.6875q-0.65625 0.6875 -0.65625 1.890625q0 1.1875 0.65625 1.890625q0.671875 0.6875 1.625 0.6875q0.953125 0 1.625 -0.703125q0.671875 -0.703125 0.671875 -1.890625zm14.730103 -0.15625q0 0.453125 -0.0625 0.9375l-7.21875 0q0.078125 0.96875 0.625 1.484375q0.5625 0.515625 1.359375 0.515625q1.1875 0 1.65625 -1.015625l3.40625 0q-0.265625 1.03125 -0.953125 1.859375q-0.671875 0.8125 -1.703125 1.28125q-1.03125 0.46875 -2.296875 0.46875q-1.53125 0 -2.734375 -0.65625q-1.1875 -0.65625 -1.859375 -1.859375q-0.671875 -1.21875 -0.671875 -2.84375q0 -1.625 0.65625 -2.828125q0.671875 -1.21875 1.859375 -1.875q1.203125 -0.65625 2.75 -0.65625q1.515625 0 2.6875 0.640625q1.171875 0.625 1.828125 1.8125q0.671875 1.171875 0.671875 2.734375zm-3.265625 -0.84375q0 -0.8125 -0.5625 -1.296875q-0.5625 -0.484375 -1.390625 -0.484375q-0.8125 0 -1.359375 0.46875q-0.546875 0.453125 -0.671875 1.3125l3.984375 0zm8.132843 -7.59375l0 13.8125l-3.1874695 0l0 -13.8125l3.1874695 0zm12.128601 8.4375q0 0.453125 -0.0625 0.9375l-7.21875 0q0.078125 0.96875 0.625 1.484375q0.5625 0.515625 1.359375 0.515625q1.1875 0 1.65625 -1.015625l3.40625 0q-0.265625 1.03125 -0.953125 1.859375q-0.671875 0.8125 -1.703125 1.28125q-1.03125 0.46875 -2.296875 0.46875q-1.53125 0 -2.734375 -0.65625q-1.1875 -0.65625 -1.859375 -1.859375q-0.671875 -1.21875 -0.671875 -2.84375q0 -1.625 0.65625 -2.828125q0.671875 -1.21875 1.859375 -1.875q1.203125 -0.65625 2.75 -0.65625q1.515625 0 2.6875 0.640625q1.171875 0.625 1.828125 1.8125q0.671875 1.171875 0.671875 2.734375zm-3.265625 -0.84375q0 -0.8125 -0.5625 -1.296875q-0.5625 -0.484375 -1.390625 -0.484375q-0.8125 0 -1.359375 0.46875q-0.546875 0.453125 -0.671875 1.3125l3.984375 0zm8.132874 -2.453125q0.5625 -0.859375 1.390625 -1.34375q0.84375 -0.5 1.875 -0.5l0 3.375l-0.875 0q-1.1875 0 -1.796875 0.515625q-0.59375 0.5 -0.59375 1.796875l0 4.828125l-3.1875 0l0 -10.40625l3.1875 0l0 1.734375z" fill-rule="nonzero"/></g></svg>