<svg version="1.1" viewBox="0.0 0.0 814.9606299212599 1040.6640419947507" fill="none" stroke="none" stroke-linecap="square" stroke-miterlimit="10" xmlns:xlink="http://www.w3.org/1999/xlink" xmlns="http://www.w3.org/2000/svg"><clipPath id="p.0"><path d="m0 0l814.96063 0l0 1040.6641l-814.96063 0l0 -1040.6641z" clip-rule="nonzero"/></clipPath><g clip-path="url(#p.0)"><path fill="#000000" fill-opacity="0.0" d="m0 0l814.96063 0l0 1040.6641l-814.96063 0z" fill-rule="evenodd"/><path fill="#ffffff" d="m12.742783 19.82154l0 0c0 -7.037655 5.705145 -12.742801 12.7428 -12.742801l114.514404 0c3.379593 0 6.6207733 1.3425407 9.010513 3.7322798c2.38974 2.389738 3.7322845 5.6309204 3.7322845 9.010521l0 996.7821c0 7.0376587 -5.705139 12.742798 -12.742798 12.742798l-114.514404 0c-7.037655 0 -12.7428 -5.705139 -12.7428 -12.742798z" fill-rule="evenodd"/><path stroke="#f3f3f3" stroke-width="1.0" stroke-linejoin="round" stroke-linecap="butt" d="m12.742783 19.82154l0 0c0 -7.037655 5.705145 -12.742801 12.7428 -12.742801l114.514404 0c3.379593 0 6.6207733 1.3425407 9.010513 3.7322798c2.38974 2.389738 3.7322845 5.6309204 3.7322845 9.010521l0 996.7821c0 7.0376587 -5.705139 12.742798 -12.742798 12.742798l-114.514404 0c-7.037655 0 -12.7428 -5.705139 -12.7428 -12.742798z" fill-rule="evenodd"/><path fill="#ffcc66" fill-opacity="0.7598" d="m260.60587 246.41168l171.51532 0c23.681305 0 42.878815 38.259674 42.878815 85.45538c0 47.19571 -19.19751 85.45538 -42.878815 85.45538l-171.51532 0l0 0c-23.68132 0 -42.87883 -38.259674 -42.87883 -85.45538c0 -47.19571 19.19751 -85.45538 42.87883 -85.45538z" fill-rule="evenodd"/><path fill="#000000" fill-opacity="0.0" d="m432.1212 417.32245c-23.681335 0 -42.878845 -38.259674 -42.878845 -85.45538c0 -47.19571 19.19751 -85.45538 42.878845 -85.45538" fill-rule="evenodd"/><path fill="#000000" fill-opacity="0.0" d="m260.60587 246.41168l171.51532 0c23.681305 0 42.878815 38.259674 42.878815 85.45538c0 47.19571 -19.19751 85.45538 -42.878815 85.45538l-171.51532 0l0 0c-23.68132 0 -42.87883 -38.259674 -42.87883 -85.45538c0 -47.19571 19.19751 -85.45538 42.87883 -85.45538z" fill-rule="evenodd"/><path stroke="#ffffff" stroke-width="3.0" stroke-linejoin="round" stroke-linecap="butt" d="m432.1212 417.32245c-23.681335 0 -42.878845 -38.259674 -42.878845 -85.45538c0 -47.19571 19.19751 -85.45538 42.878845 -85.45538" fill-rule="evenodd"/><path stroke="#ffffff" stroke-width="3.0" stroke-linejoin="round" stroke-linecap="butt" d="m260.60587 246.41168l171.51532 0c23.681305 0 42.878815 38.259674 42.878815 85.45538c0 47.19571 -19.19751 85.45538 -42.878815 85.45538l-171.51532 0l0 0c-23.68132 0 -42.87883 -38.259674 -42.87883 -85.45538c0 -47.19571 19.19751 -85.45538 42.87883 -85.45538z" fill-rule="evenodd"/><path fill="#000000" d="m280.184 325.69333l0 2.546875l-3.46875 0l0 10.546875l-3.1875 0l0 -10.546875l-3.46875 0l0 -2.546875l10.125 0zm0.9633484 7.875q0 -1.609375 0.609375 -2.8125q0.609375 -1.21875 1.65625 -1.875q1.046875 -0.65625 2.328125 -0.65625q1.109375 0 1.9375 0.453125q0.828125 0.453125 1.28125 1.171875l0 -1.46875l3.1875 0l0 10.40625l-3.1875 0l0 -1.46875q-0.46875 0.71875 -1.3125 1.171875q-0.828125 0.453125 -1.921875 0.453125q-1.265625 0 -2.3125 -0.65625q-1.046875 -0.671875 -1.65625 -1.890625q-0.609375 -1.234375 -0.609375 -2.828125zm7.8125 0.015625q0 -1.203125 -0.671875 -1.890625q-0.65625 -0.6875 -1.609375 -0.6875q-0.953125 0 -1.625 0.6875q-0.65625 0.671875 -0.65625 1.875q0 1.1875 0.65625 1.890625q0.671875 0.703125 1.625 0.703125q0.953125 0 1.609375 -0.6875q0.671875 -0.703125 0.671875 -1.890625zm7.1051025 -6.296875q-0.84375 0 -1.375 -0.484375q-0.53125 -0.5 -0.53125 -1.21875q0 -0.75 0.53125 -1.234375q0.53125 -0.5 1.375 -0.5q0.8125 0 1.34375 0.5q0.53125 0.484375 0.53125 1.234375q0 0.71875 -0.53125 1.21875q-0.53125 0.484375 -1.34375 0.484375zm1.578125 1.09375l0 10.40625l-3.1875 0l0 -10.40625l3.1875 0zm5.503601 -3.40625l0 13.8125l-3.1875 0l0 -13.8125l3.1875 0zm7.050476 13.96875q-1.53125 0 -2.75 -0.65625q-1.21875 -0.65625 -1.921875 -1.859375q-0.703125 -1.21875 -0.703125 -2.84375q0 -1.609375 0.703125 -2.828125q0.71875 -1.21875 1.953125 -1.875q1.234375 -0.65625 2.765625 -0.65625q1.53125 0 2.75 0.65625q1.234375 0.65625 1.9375 1.875q0.71875 1.21875 0.71875 2.828125q0 1.609375 -0.71875 2.828125q-0.71875 1.21875 -1.96875 1.875q-1.234375 0.65625 -2.765625 0.65625zm0 -2.765625q0.921875 0 1.5625 -0.671875q0.640625 -0.671875 0.640625 -1.921875q0 -1.25 -0.625 -1.921875q-0.625 -0.671875 -1.53125 -0.671875q-0.9375 0 -1.5625 0.671875q-0.609375 0.65625 -0.609375 1.921875q0 1.25 0.609375 1.921875q0.609375 0.671875 1.515625 0.671875zm10.337158 -6.0625q0.5625 -0.859375 1.390625 -1.34375q0.84375 -0.5 1.875 -0.5l0 3.375l-0.875 0q-1.1875 0 -1.796875 0.515625q-0.59375 0.5 -0.59375 1.796875l0 4.828125l-3.1875 0l0 -10.40625l3.1875 0l0 1.734375z" fill-rule="nonzero"/><path fill="#32c8cd" fill-opacity="0.8883" d="m463.8788 246.41168l171.51535 0c23.681274 0 42.878784 38.259674 42.878784 85.45538c0 47.19571 -19.19751 85.45538 -42.878784 85.45538l-171.51535 0l0 0c-23.681305 0 -42.878815 -38.259674 -42.878815 -85.45538c0 -47.19571 19.19751 -85.45538 42.878815 -85.45538z" fill-rule="evenodd"/><path fill="#000000" fill-opacity="0.0" d="m635.39417 417.32245c-23.681335 0 -42.878845 -38.259674 -42.878845 -85.45538c0 -47.19571 19.19751 -85.45538 42.878845 -85.45538" fill-rule="evenodd"/><path fill="#000000" fill-opacity="0.0" d="m463.8788 246.41168l171.51535 0c23.681274 0 42.878784 38.259674 42.878784 85.45538c0 47.19571 -19.19751 85.45538 -42.878784 85.45538l-171.51535 0l0 0c-23.681305 0 -42.878815 -38.259674 -42.878815 -85.45538c0 -47.19571 19.19751 -85.45538 42.878815 -85.45538z" fill-rule="evenodd"/><path stroke="#ffffff" stroke-width="3.0" stroke-linejoin="round" stroke-linecap="butt" d="m635.39417 417.32245c-23.681335 0 -42.878845 -38.259674 -42.878845 -85.45538c0 -47.19571 19.19751 -85.45538 42.878845 -85.45538" fill-rule="evenodd"/><path stroke="#ffffff" stroke-width="3.0" stroke-linejoin="round" stroke-linecap="butt" d="m463.8788 246.41168l171.51535 0c23.681274 0 42.878784 38.259674 42.878784 85.45538c0 47.19571 -19.19751 85.45538 -42.878784 85.45538l-171.51535 0l0 0c-23.681305 0 -42.878815 -38.259674 -42.878815 -85.45538c0 -47.19571 19.19751 -85.45538 42.878815 -85.45538z" fill-rule="evenodd"/><path fill="#000000" d="m483.45694 325.69333l0 2.546875l-3.46875 0l0 10.546875l-3.1875 0l0 -10.546875l-3.46875 0l0 -2.546875l10.125 0zm11.885223 2.6875l0 10.40625l-3.1875 0l0 -1.421875q-0.484375 0.6875 -1.328125 1.109375q-0.828125 0.421875 -1.828125 0.421875q-1.1875 0 -2.109375 -0.53125q-0.90625 -0.53125 -1.421875 -1.53125q-0.5 -1.015625 -0.5 -2.375l0 -6.078125l3.171875 0l0 5.65625q0 1.03125 0.53125 1.609375q0.546875 0.578125 1.46875 0.578125q0.921875 0 1.46875 -0.578125q0.546875 -0.578125 0.546875 -1.609375l0 -5.65625l3.1875 0zm8.63681 -0.109375q1.828125 0 2.921875 1.1875q1.09375 1.171875 1.09375 3.25l0 6.078125l-3.171875 0l0 -5.65625q0 -1.046875 -0.546875 -1.625q-0.546875 -0.578125 -1.453125 -0.578125q-0.921875 0 -1.46875 0.578125q-0.53125 0.578125 -0.53125 1.625l0 5.65625l-3.1875 0l0 -10.40625l3.1875 0l0 1.375q0.484375 -0.6875 1.296875 -1.078125q0.828125 -0.40625 1.859375 -0.40625zm16.04306 5.140625q0 0.453125 -0.0625 0.9375l-7.21875 0q0.078125 0.96875 0.625 1.484375q0.5625 0.515625 1.359375 0.515625q1.1875 0 1.65625 -1.015625l3.40625 0q-0.265625 1.03125 -0.953125 1.859375q-0.671875 0.8125 -1.703125 1.28125q-1.03125 0.46875 -2.296875 0.46875q-1.53125 0 -2.734375 -0.65625q-1.1875 -0.65625 -1.859375 -1.859375q-0.671875 -1.21875 -0.671875 -2.84375q0 -1.625 0.65625 -2.828125q0.671875 -1.21875 1.859375 -1.875q1.203125 -0.65625 2.75 -0.65625q1.515625 0 2.6875 0.640625q1.171875 0.625 1.828125 1.8125q0.671875 1.171875 0.671875 2.734375zm-3.265625 -0.84375q0 -0.8125 -0.5625 -1.296875q-0.5625 -0.484375 -1.390625 -0.484375q-0.8125 0 -1.359375 0.46875q-0.546875 0.453125 -0.671875 1.3125l3.984375 0zm8.132874 -2.453125q0.5625 -0.859375 1.390625 -1.34375q0.84375 -0.5 1.875 -0.5l0 3.375l-0.875 0q-1.1875 0 -1.796875 0.515625q-0.59375 0.5 -0.59375 1.796875l0 4.828125l-3.1875 0l0 -10.40625l3.1875 0l0 1.734375z" fill-rule="nonzero"/><path fill="#32c8cd" fill-opacity="0.8883" d="m281.88144 524.0049l171.51532 0c23.681335 0 42.878845 38.259644 42.878845 85.45538c0 47.19568 -19.19751 85.45538 -42.878845 85.45538l-171.51532 0l0 0c-23.681305 0 -42.878815 -38.259705 -42.878815 -85.45538c0 -47.19574 19.19751 -85.45538 42.878815 -85.45538z" fill-rule="evenodd"/><path fill="#000000" fill-opacity="0.0" d="m453.39676 694.91565c-23.681305 0 -42.878815 -38.259705 -42.878815 -85.45538c0 -47.19574 19.19751 -85.45538 42.878815 -85.45538" fill-rule="evenodd"/><path fill="#000000" fill-opacity="0.0" d="m281.88144 524.0049l171.51532 0c23.681335 0 42.878845 38.259644 42.878845 85.45538c0 47.19568 -19.19751 85.45538 -42.878845 85.45538l-171.51532 0l0 0c-23.681305 0 -42.878815 -38.259705 -42.878815 -85.45538c0 -47.19574 19.19751 -85.45538 42.878815 -85.45538z" fill-rule="evenodd"/><path stroke="#ffffff" stroke-width="3.0" stroke-linejoin="round" stroke-linecap="butt" d="m453.39676 694.91565c-23.681305 0 -42.878815 -38.259705 -42.878815 -85.45538c0 -47.19574 19.19751 -85.45538 42.878815 -85.45538" fill-rule="evenodd"/><path stroke="#ffffff" stroke-width="3.0" stroke-linejoin="round" stroke-linecap="butt" d="m281.88144 524.0049l171.51532 0c23.681335 0 42.878845 38.259644 42.878845 85.45538c0 47.19568 -19.19751 85.45538 -42.878845 85.45538l-171.51532 0l0 0c-23.681305 0 -42.878815 -38.259705 -42.878815 -85.45538c0 -47.19574 19.19751 -85.45538 42.878815 -85.45538z" fill-rule="evenodd"/><path fill="#ffcc66" fill-opacity="0.7598" d="m271.8788 831.15314l171.51532 0c23.681335 0 42.878845 38.259705 42.878845 85.45538c0 47.19574 -19.19751 85.45538 -42.878845 85.45538l-171.51532 0l0 0c-23.681305 0 -42.878815 -38.259644 -42.878815 -85.45538c0 -47.19568 19.19751 -85.45538 42.878815 -85.45538z" fill-rule="evenodd"/><path fill="#000000" fill-opacity="0.0" d="m443.39413 1002.0639c-23.681305 0 -42.878815 -38.259644 -42.878815 -85.45538c0 -47.19568 19.19751 -85.45538 42.878815 -85.45538" fill-rule="evenodd"/><path fill="#000000" fill-opacity="0.0" d="m271.8788 831.15314l171.51532 0c23.681335 0 42.878845 38.259705 42.878845 85.45538c0 47.19574 -19.19751 85.45538 -42.878845 85.45538l-171.51532 0l0 0c-23.681305 0 -42.878815 -38.259644 -42.878815 -85.45538c0 -47.19568 19.19751 -85.45538 42.878815 -85.45538z" fill-rule="evenodd"/><path stroke="#ffffff" stroke-width="3.0" stroke-linejoin="round" stroke-linecap="butt" d="m443.39413 1002.0639c-23.681305 0 -42.878815 -38.259644 -42.878815 -85.45538c0 -47.19568 19.19751 -85.45538 42.878815 -85.45538" fill-rule="evenodd"/><path stroke="#ffffff" stroke-width="3.0" stroke-linejoin="round" stroke-linecap="butt" d="m271.8788 831.15314l171.51532 0c23.681335 0 42.878845 38.259705 42.878845 85.45538c0 47.19574 -19.19751 85.45538 -42.878845 85.45538l-171.51532 0l0 0c-23.681305 0 -42.878815 -38.259644 -42.878815 -85.45538c0 -47.19568 19.19751 -85.45538 42.878815 -85.45538z" fill-rule="evenodd"/><path fill="#32c8cd" fill-opacity="0.8883" d="m479.1518 831.15314l171.51532 0c23.681335 0 42.878845 38.259705 42.878845 85.45538c0 47.19574 -19.19751 85.45538 -42.878845 85.45538l-171.51532 0l0 0c-23.681335 0 -42.878815 -38.259644 -42.878815 -85.45538c0 -47.19568 19.19748 -85.45538 42.878815 -85.45538z" fill-rule="evenodd"/><path fill="#000000" fill-opacity="0.0" d="m650.6671 1002.0639c-23.681335 0 -42.878845 -38.259644 -42.878845 -85.45538c0 -47.19568 19.19751 -85.45538 42.878845 -85.45538" fill-rule="evenodd"/><path fill="#000000" fill-opacity="0.0" d="m479.1518 831.15314l171.51532 0c23.681335 0 42.878845 38.259705 42.878845 85.45538c0 47.19574 -19.19751 85.45538 -42.878845 85.45538l-171.51532 0l0 0c-23.681335 0 -42.878815 -38.259644 -42.878815 -85.45538c0 -47.19568 19.19748 -85.45538 42.878815 -85.45538z" fill-rule="evenodd"/><path stroke="#ffffff" stroke-width="3.0" stroke-linejoin="round" stroke-linecap="butt" d="m650.6671 1002.0639c-23.681335 0 -42.878845 -38.259644 -42.878845 -85.45538c0 -47.19568 19.19751 -85.45538 42.878845 -85.45538" fill-rule="evenodd"/><path stroke="#ffffff" stroke-width="3.0" stroke-linejoin="round" stroke-linecap="butt" d="m479.1518 831.15314l171.51532 0c23.681335 0 42.878845 38.259705 42.878845 85.45538c0 47.19574 -19.19751 85.45538 -42.878845 85.45538l-171.51532 0l0 0c-23.681335 0 -42.878815 -38.259644 -42.878815 -85.45538c0 -47.19568 19.19748 -85.45538 42.878815 -85.45538z" fill-rule="evenodd"/><path fill="#32c8cd" fill-opacity="0.8883" d="m253.33553 6.8329425l171.5153 0c23.681335 0 42.878815 38.259678 42.878815 85.45538c0 47.1957 -19.19748 85.455376 -42.878815 85.455376l-171.5153 0l0 0c-23.68132 0 -42.87883 -38.259674 -42.87883 -85.455376c0 -47.1957 19.19751 -85.45538 42.87883 -85.45538z" fill-rule="evenodd"/><path fill="#000000" fill-opacity="0.0" d="m424.85083 177.7437c-23.681335 0 -42.878815 -38.259674 -42.878815 -85.455376c0 -47.1957 19.19748 -85.45538 42.878815 -85.45538" fill-rule="evenodd"/><path fill="#000000" fill-opacity="0.0" d="m253.33553 6.8329425l171.5153 0c23.681335 0 42.878815 38.259678 42.878815 85.45538c0 47.1957 -19.19748 85.455376 -42.878815 85.455376l-171.5153 0l0 0c-23.68132 0 -42.87883 -38.259674 -42.87883 -85.455376c0 -47.1957 19.19751 -85.45538 42.87883 -85.45538z" fill-rule="evenodd"/><path stroke="#ffffff" stroke-width="3.0" stroke-linejoin="round" stroke-linecap="butt" d="m424.85083 177.7437c-23.681335 0 -42.878815 -38.259674 -42.878815 -85.455376c0 -47.1957 19.19748 -85.45538 42.878815 -85.45538" fill-rule="evenodd"/><path stroke="#ffffff" stroke-width="3.0" stroke-linejoin="round" stroke-linecap="butt" d="m253.33553 6.8329425l171.5153 0c23.681335 0 42.878815 38.259678 42.878815 85.45538c0 47.1957 -19.19748 85.455376 -42.878815 85.455376l-171.5153 0l0 0c-23.68132 0 -42.87883 -38.259674 -42.87883 -85.455376c0 -47.1957 19.19751 -85.45538 42.87883 -85.45538z" fill-rule="evenodd"/><path fill="#000000" d="m272.91364 86.11457l0 2.546875l-3.46875 0l0 10.546875l-3.1875 0l0 -10.546875l-3.46875 0l0 -2.546875l10.125 0zm11.885223 2.6875l0 10.40625l-3.1875 0l0 -1.421875q-0.484375 0.6875 -1.328125 1.109375q-0.828125 0.421875 -1.828125 0.421875q-1.1875 0 -2.109375 -0.53125q-0.90625 -0.53125 -1.421875 -1.53125q-0.5 -1.015625 -0.5 -2.375l0 -6.078125l3.171875 0l0 5.65625q0 1.03125 0.53125 1.609375q0.546875 0.578125 1.46875 0.578125q0.921875 0 1.46875 -0.578125q0.546875 -0.578125 0.546875 -1.609375l0 -5.65625l3.1875 0zm8.63681 -0.109375q1.828125 0 2.921875 1.1875q1.09375 1.171875 1.09375 3.25l0 6.078125l-3.171875 0l0 -5.65625q0 -1.046875 -0.546875 -1.625q-0.546875 -0.578125 -1.453125 -0.578125q-0.921875 0 -1.46875 0.578125q-0.53125 0.578125 -0.53125 1.625l0 5.65625l-3.1875 0l0 -10.40625l3.1875 0l0 1.375q0.484375 -0.6875 1.296875 -1.078125q0.828125 -0.40625 1.859375 -0.40625zm16.04306 5.140625q0 0.453125 -0.0625 0.9375l-7.21875 0q0.078125 0.96875 0.625 1.484375q0.5625 0.515625 1.359375 0.515625q1.1875 0 1.65625 -1.015625l3.40625 0q-0.265625 1.03125 -0.953125 1.859375q-0.671875 0.8125 -1.703125 1.28125q-1.03125 0.46875 -2.296875 0.46875q-1.53125 0 -2.734375 -0.65625q-1.1875 -0.65625 -1.859375 -1.859375q-0.671875 -1.21875 -0.671875 -2.84375q0 -1.625 0.65625 -2.828125q0.671875 -1.21875 1.859375 -1.875q1.203125 -0.65625 2.75 -0.65625q1.515625 0 2.6875 0.640625q1.171875 0.625 1.828125 1.8125q0.671875 1.171875 0.671875 2.734375zm-3.265625 -0.84375q0 -0.8125 -0.5625 -1.296875q-0.5625 -0.484375 -1.390625 -0.484375q-0.8125 0 -1.359375 0.46875q-0.546875 0.453125 -0.671875 1.3125l3.984375 0zm8.132874 -2.453125q0.5625 -0.859375 1.390625 -1.34375q0.84375 -0.5 1.875 -0.5l0 3.375l-0.875 0q-1.1875 0 -1.796875 0.515625q-0.59375 0.5 -0.59375 1.796875l0 4.828125l-3.1875 0l0 -10.40625l3.1875 0l0 1.734375z" fill-rule="nonzero"/><path fill="#000000" fill-opacity="0.0" d="m10.65748 6.8342547l142.07874 0l0 73.13386l-142.07874 0z" fill-rule="evenodd"/><path fill="#000000" d="m23.22518 48.74618l4.546875 0l0 1.375l-6.25 0l0 -13.0l1.703125 0l0 11.625zm5.7157593 -3.78125q0 -1.5625 0.640625 -2.734375q0.640625 -1.1875 1.75 -1.84375q1.1093769 -0.65625 2.468752 -0.65625q1.34375 0 2.328125 0.578125q0.984375 0.578125 1.46875 1.453125l0 -1.859375l1.71875 0l0 10.21875l-1.71875 0l0 -1.90625q-0.5 0.90625 -1.5 1.5q-1.0 0.578125 -2.3125 0.578125q-1.375 0 -2.468752 -0.671875q-1.09375 -0.671875 -1.734375 -1.875q-0.640625 -1.21875 -0.640625 -2.78125zm8.656252 0.03125q0 -1.15625 -0.46875 -2.015625q-0.453125 -0.859375 -1.25 -1.3125q-0.796875 -0.46875 -1.75 -0.46875q-0.953125 0 -1.734375 0.453125q-0.7812519 0.453125 -1.2500019 1.3125q-0.46875 0.84375 -0.46875 2.0q0 1.1875 0.46875 2.0625q0.46875 0.859375 1.2500019 1.3125q0.78125 0.453125 1.734375 0.453125q0.953125 0 1.75 -0.453125q0.796875 -0.453125 1.25 -1.3125q0.46875 -0.875 0.46875 -2.03125zm6.2991333 -3.203125q0.515625 -0.90625 1.515625 -1.484375q1.015625 -0.578125 2.296875 -0.578125q1.390625 0 2.484375 0.65625q1.109375 0.65625 1.734375 1.84375q0.640625 1.171875 0.640625 2.734375q0 1.5625 -0.640625 2.78125q-0.625 1.203125 -1.734375 1.875q-1.109375 0.671875 -2.484375 0.671875q-1.3125 0 -2.3125 -0.578125q-1.0 -0.578125 -1.5 -1.484375l0 1.890625l-1.703125 0l0 -13.8125l1.703125 0l0 5.484375zm6.9375 3.171875q0 -1.15625 -0.46875 -2.0q-0.46875 -0.859375 -1.265625 -1.3125q-0.78125 -0.453125 -1.734375 -0.453125q-0.9375 0 -1.734375 0.46875q-0.796875 0.453125 -1.265625 1.328125q-0.46875 0.859375 -0.46875 2.0q0 1.15625 0.46875 2.03125q0.46875 0.859375 1.265625 1.3125q0.796875 0.453125 1.734375 0.453125q0.953125 0 1.734375 -0.453125q0.796875 -0.453125 1.265625 -1.3125q0.46875 -0.875 0.46875 -2.0625zm13.299133 -0.34375q0 0.484375 -0.0625 1.015625l-8.171875 0q0.09375 1.515625 1.03125 2.375q0.953125 0.84375 2.296875 0.84375q1.09375 0 1.828125 -0.515625q0.75 -0.515625 1.046875 -1.375l1.828125 0q-0.40625 1.484375 -1.640625 2.40625q-1.234375 0.921875 -3.0625 0.921875q-1.453125 0 -2.609375 -0.65625q-1.140625 -0.65625 -1.796875 -1.859375q-0.65625 -1.203125 -0.65625 -2.78125q0 -1.59375 0.640625 -2.78125q0.640625 -1.203125 1.78125 -1.84375q1.140625 -0.640625 2.640625 -0.640625q1.453125 0 2.5625 0.640625q1.125 0.625 1.734375 1.734375q0.609375 1.109375 0.609375 2.515625zm-1.75 -0.359375q0 -0.96875 -0.4375 -1.671875q-0.421875 -0.703125 -1.171875 -1.0625q-0.734375 -0.359375 -1.625 -0.359375q-1.28125 0 -2.1875 0.828125q-0.90625 0.8125 -1.03125 2.265625l6.453125 0zm5.6918793 -7.953125l0 13.8125l-1.703125 0l0 -13.8125l1.703125 0zm12.214432 8.3125q0 0.484375 -0.0625 1.015625l-8.171875 0q0.09375 1.515625 1.03125 2.375q0.953125 0.84375 2.296875 0.84375q1.09375 0 1.828125 -0.515625q0.75 -0.515625 1.046875 -1.375l1.828125 0q-0.40625 1.484375 -1.640625 2.40625q-1.234375 0.921875 -3.0625 0.921875q-1.453125 0 -2.609375 -0.65625q-1.140625 -0.65625 -1.796875 -1.859375q-0.65625 -1.203125 -0.65625 -2.78125q0 -1.59375 0.640625 -2.78125q0.640625 -1.203125 1.78125 -1.84375q1.140625 -0.640625 2.640625 -0.640625q1.453125 0 2.5625 0.640625q1.125 0.625 1.734375 1.734375q0.609375 1.109375 0.609375 2.515625zm-1.75 -0.359375q0 -0.96875 -0.4375 -1.671875q-0.421875 -0.703125 -1.171875 -1.0625q-0.734375 -0.359375 -1.625 -0.359375q-1.28125 0 -2.1875 0.828125q-0.90625 0.8125 -1.03125 2.265625l6.453125 0zm3.3481293 0.703125q0 -1.5625 0.640625 -2.734375q0.640625 -1.1875 1.75 -1.84375q1.109375 -0.65625 2.484375 -0.65625q1.1875 0 2.21875 0.546875q1.03125 0.546875 1.5625 1.453125l0 -5.421875l1.71875 0l0 13.8125l-1.71875 0l0 -1.921875q-0.5 0.921875 -1.484375 1.515625q-0.984375 0.578125 -2.3125 0.578125q-1.359375 0 -2.46875 -0.671875q-1.109375 -0.671875 -1.75 -1.875q-0.640625 -1.21875 -0.640625 -2.78125zm8.65625 0.03125q0 -1.15625 -0.46875 -2.015625q-0.453125 -0.859375 -1.25 -1.3125q-0.796875 -0.46875 -1.75 -0.46875q-0.953125 0 -1.734375 0.453125q-0.78125 0.453125 -1.25 1.3125q-0.46875 0.84375 -0.46875 2.0q0 1.1875 0.46875 2.0625q0.46875 0.859375 1.25 1.3125q0.78125 0.453125 1.734375 0.453125q0.953125 0 1.75 -0.453125q0.796875 -0.453125 1.25 -1.3125q0.46875 -0.875 0.46875 -2.03125zm8.9366 -0.03125q0 -1.5625 0.640625 -2.734375q0.640625 -1.1875 1.75 -1.84375q1.109375 -0.65625 2.484375 -0.65625q1.1875 0 2.21875 0.546875q1.03125 0.546875 1.5625 1.453125l0 -5.421875l1.71875 0l0 13.8125l-1.71875 0l0 -1.921875q-0.5 0.921875 -1.484375 1.515625q-0.984375 0.578125 -2.3125 0.578125q-1.359375 0 -2.46875 -0.671875q-1.109375 -0.671875 -1.75 -1.875q-0.640625 -1.21875 -0.640625 -2.78125zm8.65625 0.03125q0 -1.15625 -0.46875 -2.015625q-0.453125 -0.859375 -1.25 -1.3125q-0.796875 -0.46875 -1.75 -0.46875q-0.953125 0 -1.734375 0.453125q-0.78125 0.453125 -1.25 1.3125q-0.46875 0.84375 -0.46875 2.0q0 1.1875 0.46875 2.0625q0.46875 0.859375 1.25 1.3125q0.78125 0.453125 1.734375 0.453125q0.953125 0 1.75 -0.453125q0.796875 -0.453125 1.25 -1.3125q0.46875 -0.875 0.46875 -2.03125zm3.9553833 -0.03125q0 -1.5625 0.640625 -2.734375q0.640625 -1.1875 1.75 -1.84375q1.109375 -0.65625 2.46875 -0.65625q1.34375 0 2.328125 0.578125q0.984375 0.578125 1.46875 1.453125l0 -1.859375l1.71875 0l0 10.21875l-1.71875 0l0 -1.90625q-0.5 0.90625 -1.5 1.5q-1.0 0.578125 -2.3125 0.578125q-1.375 0 -2.46875 -0.671875q-1.09375 -0.671875 -1.734375 -1.875q-0.640625 -1.21875 -0.640625 -2.78125zm8.65625 0.03125q0 -1.15625 -0.46875 -2.015625q-0.453125 -0.859375 -1.25 -1.3125q-0.796875 -0.46875 -1.75 -0.46875q-0.953125 0 -1.734375 0.453125q-0.78125 0.453125 -1.25 1.3125q-0.46875 0.84375 -0.46875 2.0q0 1.1875 0.46875 2.0625q0.46875 0.859375 1.25 1.3125q0.78125 0.453125 1.734375 0.453125q0.953125 0 1.75 -0.453125q0.796875 -0.453125 1.25 -1.3125q0.46875 -0.875 0.46875 -2.03125zm6.6585083 -3.703125l0 6.03125q0 0.75 0.3125 1.0625q0.32813263 0.296875 1.1093826 0.296875l1.25 0l0 1.4375l-1.53125 0q-1.4062576 0 -2.1250076 -0.65625q-0.703125 -0.65625 -0.703125 -2.140625l0 -6.03125l-1.328125 0l0 -1.390625l1.328125 0l0 -2.578125l1.6875 0l0 2.578125l2.6718826 0l0 1.390625l-2.6718826 0zm4.087761 3.671875q0 -1.5625 0.640625 -2.734375q0.640625 -1.1875 1.75 -1.84375q1.109375 -0.65625 2.46875 -0.65625q1.34375 0 2.328125 0.578125q0.984375 0.578125 1.46875 1.453125l0 -1.859375l1.71875 0l0 10.21875l-1.71875 0l0 -1.90625q-0.5 0.90625 -1.5 1.5q-1.0 0.578125 -2.3125 0.578125q-1.375 0 -2.46875 -0.671875q-1.09375 -0.671875 -1.734375 -1.875q-0.640625 -1.21875 -0.640625 -2.78125zm8.65625 0.03125q0 -1.15625 -0.46875 -2.015625q-0.453125 -0.859375 -1.25 -1.3125q-0.796875 -0.46875 -1.75 -0.46875q-0.953125 0 -1.734375 0.453125q-0.78125 0.453125 -1.25 1.3125q-0.46875 0.84375 -0.46875 2.0q0 1.1875 0.46875 2.0625q0.46875 0.859375 1.25 1.3125q0.78125 0.453125 1.734375 0.453125q0.953125 0 1.75 -0.453125q0.796875 -0.453125 1.25 -1.3125q0.46875 -0.875 0.46875 -2.03125z" fill-rule="nonzero"/><path fill="#000000" fill-opacity="0.0" d="m10.65748 104.41431l142.07874 0l0 73.133865l-142.07874 0z" fill-rule="evenodd"/><path fill="#000000" d="m31.17275 124.876236l0 4.34375l4.734377 0l0 1.40625l-4.734377 0l0 4.46875l5.296877 0l0 1.40625l-7.000002 0l0 -13.015625l7.000002 0l0 1.390625l-5.296877 0zm20.164415 1.21875q1.1875 0 2.125 0.5q0.9375 0.484375 1.46875 1.484375q0.546875 0.984375 0.546875 2.390625l0 6.03125l-1.6875 0l0 -5.78125q0 -1.53125 -0.75 -2.34375q-0.75 -0.8125 -2.046875 -0.8125q-1.3125 0 -2.109375 0.859375q-0.78125 0.84375 -0.78125 2.4375l0 5.640625l-1.671875 0l0 -5.78125q0 -1.53125 -0.765625 -2.34375q-0.75 -0.8125 -2.03125 -0.8125q-1.328125 0 -2.109375 0.859375q-0.78125 0.84375 -0.78125 2.4375l0 5.640625l-1.703125 0l0 -10.21875l1.703125 0l0 1.46875q0.5 -0.796875 1.34375 -1.21875q0.84375 -0.4375 1.875 -0.4375q1.296875 0 2.28125 0.578125q0.984375 0.578125 1.46875 1.6875q0.4375 -1.078125 1.421875 -1.671875q0.984375 -0.59375 2.203125 -0.59375zm8.622192 2.078125q0.515625 -0.90625 1.515625 -1.484375q1.015625 -0.578125 2.296875 -0.578125q1.390625 0 2.484375 0.65625q1.109375 0.65625 1.734375 1.84375q0.640625 1.171875 0.640625 2.734375q0 1.5625 -0.640625 2.78125q-0.625 1.203125 -1.734375 1.875q-1.109375 0.671875 -2.484375 0.671875q-1.3125 0 -2.3125 -0.578125q-1.0 -0.578125 -1.5 -1.484375l0 1.890625l-1.703125 0l0 -13.8125l1.703125 0l0 5.484375zm6.9375 3.171875q0 -1.15625 -0.46875 -2.0q-0.46875 -0.859375 -1.265625 -1.3125q-0.78125 -0.453125 -1.734375 -0.453125q-0.9375 0 -1.734375 0.46875q-0.796875 0.453125 -1.265625 1.328125q-0.46875 0.859375 -0.46875 2.0q0 1.15625 0.46875 2.03125q0.46875 0.859375 1.265625 1.3125q0.796875 0.453125 1.734375 0.453125q0.953125 0 1.734375 -0.453125q0.796875 -0.453125 1.265625 -1.3125q0.46875 -0.875 0.46875 -2.0625zm13.299133 -0.34375q0 0.484375 -0.0625 1.015625l-8.171875 0q0.09375 1.515625 1.03125 2.375q0.953125 0.84375 2.296875 0.84375q1.09375 0 1.828125 -0.515625q0.75 -0.515625 1.046875 -1.375l1.828125 0q-0.40625 1.484375 -1.640625 2.40625q-1.234375 0.921875 -3.0625 0.921875q-1.453125 0 -2.609375 -0.65625q-1.140625 -0.65625 -1.796875 -1.859375q-0.65625 -1.203125 -0.65625 -2.78125q0 -1.59375 0.640625 -2.78125q0.640625 -1.203125 1.78125 -1.84375q1.140625 -0.640625 2.640625 -0.640625q1.453125 0 2.5625 0.640625q1.125 0.625 1.734375 1.734375q0.609375 1.109375 0.609375 2.515625zm-1.75 -0.359375q0 -0.96875 -0.4375 -1.671875q-0.421875 -0.703125 -1.171875 -1.0625q-0.734375 -0.359375 -1.625 -0.359375q-1.28125 0 -2.1875 0.828125q-0.90625 0.8125 -1.03125 2.265625l6.453125 0zm3.3481293 0.703125q0 -1.5625 0.640625 -2.734375q0.640625 -1.1875 1.75 -1.84375q1.109375 -0.65625 2.484375 -0.65625q1.1875 0 2.21875 0.546875q1.03125 0.546875 1.5625 1.453125l0 -5.421875l1.71875 0l0 13.8125l-1.71875 0l0 -1.921875q-0.5 0.921875 -1.484375 1.515625q-0.984375 0.578125 -2.3125 0.578125q-1.359375 0 -2.46875 -0.671875q-1.109375 -0.671875 -1.75 -1.875q-0.640625 -1.21875 -0.640625 -2.78125zm8.65625 0.03125q0 -1.15625 -0.46875 -2.015625q-0.453125 -0.859375 -1.25 -1.3125q-0.796875 -0.46875 -1.75 -0.46875q-0.953125 0 -1.734375 0.453125q-0.78125 0.453125 -1.25 1.3125q-0.46875 0.84375 -0.46875 2.0q0 1.1875 0.46875 2.0625q0.46875 0.859375 1.25 1.3125q0.78125 0.453125 1.734375 0.453125q0.953125 0 1.75 -0.453125q0.796875 -0.453125 1.25 -1.3125q0.46875 -0.875 0.46875 -2.03125zm3.9553833 -0.03125q0 -1.5625 0.640625 -2.734375q0.640625 -1.1875 1.75 -1.84375q1.109375 -0.65625 2.484375 -0.65625q1.1875 0 2.21875 0.546875q1.03125 0.546875 1.5625 1.453125l0 -5.421875l1.71875 0l0 13.8125l-1.71875 0l0 -1.921875q-0.5 0.921875 -1.484375 1.515625q-0.984375 0.578125 -2.3125 0.578125q-1.359375 0 -2.46875 -0.671875q-1.109375 -0.671875 -1.75 -1.875q-0.640625 -1.21875 -0.640625 -2.78125zm8.65625 0.03125q0 -1.15625 -0.46875 -2.015625q-0.453125 -0.859375 -1.25 -1.3125q-0.796875 -0.46875 -1.75 -0.46875q-0.953125 0 -1.734375 0.453125q-0.78125 0.453125 -1.25 1.3125q-0.46875 0.84375 -0.46875 2.0q0 1.1875 0.46875 2.0625q0.46875 0.859375 1.25 1.3125q0.78125 0.453125 1.734375 0.453125q0.953125 0 1.75 -0.453125q0.796875 -0.453125 1.25 -1.3125q0.46875 -0.875 0.46875 -2.03125zm5.4710083 -6.765625q-0.484375 0 -0.828125 -0.328125q-0.328125 -0.34375 -0.328125 -0.828125q0 -0.484375 0.328125 -0.8125q0.34375 -0.34375 0.828125 -0.34375q0.46875 0 0.796875 0.34375q0.328125 0.328125 0.328125 0.8125q0 0.484375 -0.328125 0.828125q-0.328125 0.328125 -0.796875 0.328125zm0.828125 1.671875l0 10.21875l-1.703125 0l0 -10.21875l1.703125 0zm7.870682 -0.1875q1.859375 0 3.015625 1.125q1.15625 1.125 1.15625 3.25l0 6.03125l-1.671875 0l0 -5.78125q0 -1.53125 -0.765625 -2.34375q-0.765625 -0.8125 -2.09375 -0.8125q-1.34375 0 -2.140625 0.84375q-0.78125 0.84375 -0.78125 2.4375l0 5.65625l-1.703125 0l0 -10.21875l1.703125 0l0 1.453125q0.5 -0.78125 1.359375 -1.203125q0.875 -0.4375 1.921875 -0.4375zm11.174385 0.015625q1.328125 0 2.3125 0.578125q1.0 0.578125 1.484375 1.453125l0 -1.859375l1.71875 0l0 10.4375q0 1.40625 -0.59375 2.5q-0.59375 1.09375 -1.703125 1.703125q-1.109375 0.609375 -2.59375 0.609375q-2.0156326 0 -3.3593826 -0.953125q-1.34375 -0.9375 -1.578125 -2.578125l1.671875 0q0.28125 0.921875 1.15625 1.484375q0.890625 0.578125 2.1093826 0.578125q1.40625 0 2.28125 -0.875q0.890625 -0.875 0.890625 -2.46875l0 -2.140625q-0.5 0.890625 -1.484375 1.5q-0.984375 0.59375 -2.3125 0.59375q-1.3593826 0 -2.4687576 -0.671875q-1.109375 -0.671875 -1.75 -1.875q-0.640625 -1.21875 -0.640625 -2.78125q0 -1.5625 0.640625 -2.734375q0.640625 -1.1875 1.75 -1.84375q1.109375 -0.65625 2.4687576 -0.65625zm3.796875 5.265625q0 -1.15625 -0.46875 -2.015625q-0.453125 -0.859375 -1.25 -1.3125q-0.796875 -0.46875 -1.75 -0.46875q-0.9531326 0 -1.7343826 0.453125q-0.78125 0.453125 -1.25 1.3125q-0.46875 0.84375 -0.46875 2.0q0 1.1875 0.46875 2.0625q0.46875 0.859375 1.25 1.3125q0.78125 0.453125 1.7343826 0.453125q0.953125 0 1.75 -0.453125q0.796875 -0.453125 1.25 -1.3125q0.46875 -0.875 0.46875 -2.03125z" fill-rule="nonzero"/><path fill="#000000" d="m65.469284 148.49498q1.1875 0 2.125 0.5q0.9375 0.484375 1.46875 1.484375q0.546875 0.984375 0.546875 2.390625l0 6.03125l-1.6875 0l0 -5.78125q0 -1.53125 -0.75 -2.34375q-0.75 -0.8125 -2.046875 -0.8125q-1.3125 0 -2.109375 0.859375q-0.78125 0.84375 -0.78125 2.4375l0 5.640625l-1.671875 0l0 -5.78125q0 -1.53125 -0.765625 -2.34375q-0.75 -0.8125 -2.03125 -0.8125q-1.328125 0 -2.109375 0.859375q-0.78125 0.84375 -0.78125 2.4375l0 5.640625l-1.703125 0l0 -10.21875l1.703125 0l0 1.46875q0.5 -0.796875 1.34375 -1.21875q0.84375 -0.4375 1.875 -0.4375q1.296875 0 2.28125 0.578125q0.984375 0.578125 1.46875 1.6875q0.4375 -1.078125 1.421875 -1.671875q0.984375 -0.59375 2.203125 -0.59375zm11.372185 10.578125q-1.4375 0 -2.6093674 -0.65625q-1.15625 -0.65625 -1.828125 -1.859375q-0.65625 -1.203125 -0.65625 -2.78125q0 -1.578125 0.6875 -2.78125q0.6875 -1.203125 1.859375 -1.84375q1.1718674 -0.640625 2.6249924 -0.640625q1.453125 0 2.625 0.640625q1.1875 0.640625 1.859375 1.84375q0.6875 1.1875 0.6875 2.78125q0 1.578125 -0.703125 2.78125q-0.703125 1.203125 -1.90625 1.859375q-1.1875 0.65625 -2.640625 0.65625zm0 -1.5q0.921875 0 1.71875 -0.421875q0.796875 -0.4375 1.296875 -1.296875q0.5 -0.859375 0.5 -2.078125q0 -1.234375 -0.484375 -2.09375q-0.484375 -0.859375 -1.28125 -1.28125q-0.78125 -0.421875 -1.6875 -0.421875q-0.9375 0 -1.71875 0.421875q-0.7656174 0.421875 -1.2343674 1.28125q-0.46875 0.859375 -0.46875 2.09375q0 1.25 0.453125 2.109375q0.46875 0.84375 1.2343674 1.265625q0.765625 0.421875 1.671875 0.421875zm6.8462524 -3.828125q0 -1.5625 0.640625 -2.734375q0.640625 -1.1875 1.75 -1.84375q1.109375 -0.65625 2.484375 -0.65625q1.1875 0 2.21875 0.546875q1.03125 0.546875 1.5625 1.453125l0 -5.421875l1.71875 0l0 13.8125l-1.71875 0l0 -1.921875q-0.5 0.921875 -1.484375 1.515625q-0.984375 0.578125 -2.3125 0.578125q-1.359375 0 -2.46875 -0.671875q-1.109375 -0.671875 -1.75 -1.875q-0.640625 -1.21875 -0.640625 -2.78125zm8.65625 0.03125q0 -1.15625 -0.46875 -2.015625q-0.453125 -0.859375 -1.25 -1.3125q-0.796875 -0.46875 -1.75 -0.46875q-0.953125 0 -1.734375 0.453125q-0.78125 0.453125 -1.25 1.3125q-0.46875 0.84375 -0.46875 2.0q0 1.1875 0.46875 2.0625q0.46875 0.859375 1.25 1.3125q0.78125 0.453125 1.734375 0.453125q0.953125 0 1.75 -0.453125q0.796875 -0.453125 1.25 -1.3125q0.46875 -0.875 0.46875 -2.03125zm13.924133 -0.375q0 0.484375 -0.0625 1.015625l-8.171875 0q0.09375 1.515625 1.03125 2.375q0.953125 0.84375 2.296875 0.84375q1.09375 0 1.828125 -0.515625q0.75 -0.515625 1.046875 -1.375l1.828125 0q-0.40625 1.484375 -1.640625 2.40625q-1.234375 0.921875 -3.0625 0.921875q-1.453125 0 -2.609375 -0.65625q-1.140625 -0.65625 -1.796875 -1.859375q-0.65625 -1.203125 -0.65625 -2.78125q0 -1.59375 0.640625 -2.78125q0.640625 -1.203125 1.78125 -1.84375q1.140625 -0.640625 2.640625 -0.640625q1.453125 0 2.5625 0.640625q1.125 0.625 1.734375 1.734375q0.609375 1.109375 0.609375 2.515625zm-1.75 -0.359375q0 -0.96875 -0.4375 -1.671875q-0.421875 -0.703125 -1.171875 -1.0625q-0.734375 -0.359375 -1.625 -0.359375q-1.28125 0 -2.1875 0.828125q-0.90625 0.8125 -1.03125 2.265625l6.453125 0zm5.6918793 -7.953125l0 13.8125l-1.703125 0l0 -13.8125l1.703125 0z" fill-rule="nonzero"/><path fill="#000000" fill-opacity="0.0" d="m10.65748 246.5101l142.07874 0l0 73.13385l-142.07874 0z" fill-rule="evenodd"/><path fill="#000000" d="m23.22518 288.42203l4.546875 0l0 1.375l-6.25 0l0 -13.0l1.703125 0l0 11.625zm5.7157593 -3.78125q0 -1.5625 0.640625 -2.734375q0.640625 -1.1875 1.75 -1.84375q1.1093769 -0.65625 2.468752 -0.65625q1.34375 0 2.328125 0.578125q0.984375 0.578125 1.46875 1.453125l0 -1.859375l1.71875 0l0 10.21875l-1.71875 0l0 -1.90625q-0.5 0.90625 -1.5 1.5q-1.0 0.578125 -2.3125 0.578125q-1.375 0 -2.468752 -0.671875q-1.09375 -0.671875 -1.734375 -1.875q-0.640625 -1.21875 -0.640625 -2.78125zm8.656252 0.03125q0 -1.15625 -0.46875 -2.015625q-0.453125 -0.859375 -1.25 -1.3125q-0.796875 -0.46875 -1.75 -0.46875q-0.953125 0 -1.734375 0.453125q-0.7812519 0.453125 -1.2500019 1.3125q-0.46875 0.84375 -0.46875 2.0q0 1.1875 0.46875 2.0625q0.46875 0.859375 1.2500019 1.3125q0.78125 0.453125 1.734375 0.453125q0.953125 0 1.75 -0.453125q0.796875 -0.453125 1.25 -1.3125q0.46875 -0.875 0.46875 -2.03125zm6.2991333 -3.203125q0.515625 -0.90625 1.515625 -1.484375q1.015625 -0.578125 2.296875 -0.578125q1.390625 0 2.484375 0.65625q1.109375 0.65625 1.734375 1.84375q0.640625 1.171875 0.640625 2.734375q0 1.5625 -0.640625 2.78125q-0.625 1.203125 -1.734375 1.875q-1.109375 0.671875 -2.484375 0.671875q-1.3125 0 -2.3125 -0.578125q-1.0 -0.578125 -1.5 -1.484375l0 1.890625l-1.703125 0l0 -13.8125l1.703125 0l0 5.484375zm6.9375 3.171875q0 -1.15625 -0.46875 -2.0q-0.46875 -0.859375 -1.265625 -1.3125q-0.78125 -0.453125 -1.734375 -0.453125q-0.9375 0 -1.734375 0.46875q-0.796875 0.453125 -1.265625 1.328125q-0.46875 0.859375 -0.46875 2.0q0 1.15625 0.46875 2.03125q0.46875 0.859375 1.265625 1.3125q0.796875 0.453125 1.734375 0.453125q0.953125 0 1.734375 -0.453125q0.796875 -0.453125 1.265625 -1.3125q0.46875 -0.875 0.46875 -2.0625zm13.299133 -0.34375q0 0.484375 -0.0625 1.015625l-8.171875 0q0.09375 1.515625 1.03125 2.375q0.953125 0.84375 2.296875 0.84375q1.09375 0 1.828125 -0.515625q0.75 -0.515625 1.046875 -1.375l1.828125 0q-0.40625 1.484375 -1.640625 2.40625q-1.234375 0.921875 -3.0625 0.921875q-1.453125 0 -2.609375 -0.65625q-1.140625 -0.65625 -1.796875 -1.859375q-0.65625 -1.203125 -0.65625 -2.78125q0 -1.59375 0.640625 -2.78125q0.640625 -1.203125 1.78125 -1.84375q1.140625 -0.640625 2.640625 -0.640625q1.453125 0 2.5625 0.640625q1.125 0.625 1.734375 1.734375q0.609375 1.109375 0.609375 2.515625zm-1.75 -0.359375q0 -0.96875 -0.4375 -1.671875q-0.421875 -0.703125 -1.171875 -1.0625q-0.734375 -0.359375 -1.625 -0.359375q-1.28125 0 -2.1875 0.828125q-0.90625 0.8125 -1.03125 2.265625l6.453125 0zm5.6918793 -7.953125l0 13.8125l-1.703125 0l0 -13.8125l1.703125 0zm12.214432 8.3125q0 0.484375 -0.0625 1.015625l-8.171875 0q0.09375 1.515625 1.03125 2.375q0.953125 0.84375 2.296875 0.84375q1.09375 0 1.828125 -0.515625q0.75 -0.515625 1.046875 -1.375l1.828125 0q-0.40625 1.484375 -1.640625 2.40625q-1.234375 0.921875 -3.0625 0.921875q-1.453125 0 -2.609375 -0.65625q-1.140625 -0.65625 -1.796875 -1.859375q-0.65625 -1.203125 -0.65625 -2.78125q0 -1.59375 0.640625 -2.78125q0.640625 -1.203125 1.78125 -1.84375q1.140625 -0.640625 2.640625 -0.640625q1.453125 0 2.5625 0.640625q1.125 0.625 1.734375 1.734375q0.609375 1.109375 0.609375 2.515625zm-1.75 -0.359375q0 -0.96875 -0.4375 -1.671875q-0.421875 -0.703125 -1.171875 -1.0625q-0.734375 -0.359375 -1.625 -0.359375q-1.28125 0 -2.1875 0.828125q-0.90625 0.8125 -1.03125 2.265625l6.453125 0zm3.3481293 0.703125q0 -1.5625 0.640625 -2.734375q0.640625 -1.1875 1.75 -1.84375q1.109375 -0.65625 2.484375 -0.65625q1.1875 0 2.21875 0.546875q1.03125 0.546875 1.5625 1.453125l0 -5.421875l1.71875 0l0 13.8125l-1.71875 0l0 -1.921875q-0.5 0.921875 -1.484375 1.515625q-0.984375 0.578125 -2.3125 0.578125q-1.359375 0 -2.46875 -0.671875q-1.109375 -0.671875 -1.75 -1.875q-0.640625 -1.21875 -0.640625 -2.78125zm8.65625 0.03125q0 -1.15625 -0.46875 -2.015625q-0.453125 -0.859375 -1.25 -1.3125q-0.796875 -0.46875 -1.75 -0.46875q-0.953125 0 -1.734375 0.453125q-0.78125 0.453125 -1.25 1.3125q-0.46875 0.84375 -0.46875 2.0q0 1.1875 0.46875 2.0625q0.46875 0.859375 1.25 1.3125q0.78125 0.453125 1.734375 0.453125q0.953125 0 1.75 -0.453125q0.796875 -0.453125 1.25 -1.3125q0.46875 -0.875 0.46875 -2.03125zm8.9366 -0.03125q0 -1.5625 0.640625 -2.734375q0.640625 -1.1875 1.75 -1.84375q1.109375 -0.65625 2.484375 -0.65625q1.1875 0 2.21875 0.546875q1.03125 0.546875 1.5625 1.453125l0 -5.421875l1.71875 0l0 13.8125l-1.71875 0l0 -1.921875q-0.5 0.921875 -1.484375 1.515625q-0.984375 0.578125 -2.3125 0.578125q-1.359375 0 -2.46875 -0.671875q-1.109375 -0.671875 -1.75 -1.875q-0.640625 -1.21875 -0.640625 -2.78125zm8.65625 0.03125q0 -1.15625 -0.46875 -2.015625q-0.453125 -0.859375 -1.25 -1.3125q-0.796875 -0.46875 -1.75 -0.46875q-0.953125 0 -1.734375 0.453125q-0.78125 0.453125 -1.25 1.3125q-0.46875 0.84375 -0.46875 2.0q0 1.1875 0.46875 2.0625q0.46875 0.859375 1.25 1.3125q0.78125 0.453125 1.734375 0.453125q0.953125 0 1.75 -0.453125q0.796875 -0.453125 1.25 -1.3125q0.46875 -0.875 0.46875 -2.03125zm3.9553833 -0.03125q0 -1.5625 0.640625 -2.734375q0.640625 -1.1875 1.75 -1.84375q1.109375 -0.65625 2.46875 -0.65625q1.34375 0 2.328125 0.578125q0.984375 0.578125 1.46875 1.453125l0 -1.859375l1.71875 0l0 10.21875l-1.71875 0l0 -1.90625q-0.5 0.90625 -1.5 1.5q-1.0 0.578125 -2.3125 0.578125q-1.375 0 -2.46875 -0.671875q-1.09375 -0.671875 -1.734375 -1.875q-0.640625 -1.21875 -0.640625 -2.78125zm8.65625 0.03125q0 -1.15625 -0.46875 -2.015625q-0.453125 -0.859375 -1.25 -1.3125q-0.796875 -0.46875 -1.75 -0.46875q-0.953125 0 -1.734375 0.453125q-0.78125 0.453125 -1.25 1.3125q-0.46875 0.84375 -0.46875 2.0q0 1.1875 0.46875 2.0625q0.46875 0.859375 1.25 1.3125q0.78125 0.453125 1.734375 0.453125q0.953125 0 1.75 -0.453125q0.796875 -0.453125 1.25 -1.3125q0.46875 -0.875 0.46875 -2.03125zm6.6585083 -3.703125l0 6.03125q0 0.75 0.3125 1.0625q0.32813263 0.296875 1.1093826 0.296875l1.25 0l0 1.4375l-1.53125 0q-1.4062576 0 -2.1250076 -0.65625q-0.703125 -0.65625 -0.703125 -2.140625l0 -6.03125l-1.328125 0l0 -1.390625l1.328125 0l0 -2.578125l1.6875 0l0 2.578125l2.6718826 0l0 1.390625l-2.6718826 0zm4.087761 3.671875q0 -1.5625 0.640625 -2.734375q0.640625 -1.1875 1.75 -1.84375q1.109375 -0.65625 2.46875 -0.65625q1.34375 0 2.328125 0.578125q0.984375 0.578125 1.46875 1.453125l0 -1.859375l1.71875 0l0 10.21875l-1.71875 0l0 -1.90625q-0.5 0.90625 -1.5 1.5q-1.0 0.578125 -2.3125 0.578125q-1.375 0 -2.46875 -0.671875q-1.09375 -0.671875 -1.734375 -1.875q-0.640625 -1.21875 -0.640625 -2.78125zm8.65625 0.03125q0 -1.15625 -0.46875 -2.015625q-0.453125 -0.859375 -1.25 -1.3125q-0.796875 -0.46875 -1.75 -0.46875q-0.953125 0 -1.734375 0.453125q-0.78125 0.453125 -1.25 1.3125q-0.46875 0.84375 -0.46875 2.0q0 1.1875 0.46875 2.0625q0.46875 0.859375 1.25 1.3125q0.78125 0.453125 1.734375 0.453125q0.953125 0 1.75 -0.453125q0.796875 -0.453125 1.25 -1.3125q0.46875 -0.875 0.46875 -2.03125z" fill-rule="nonzero"/><path fill="#000000" fill-opacity="0.0" d="m10.65748 344.09015l142.07874 0l0 73.13388l-142.07874 0z" fill-rule="evenodd"/><path fill="#000000" d="m56.10401 366.94272q-0.53125 -1.140625 -1.5625 -1.765625q-1.03125 -0.625 -2.390625 -0.625q-1.359375 0 -2.453125 0.625q-1.09375 0.625 -1.71875 1.796875q-0.625 1.15625 -0.625 2.6875q0 1.53125 0.625 2.6875q0.625 1.15625 1.71875 1.78125q1.09375 0.625 2.453125 0.625q1.90625 0 3.140625 -1.125q1.234375 -1.140625 1.4375 -3.09375l-5.1875 0l0 -1.375l7.0 0l0 1.3125q-0.15625 1.59375 -1.015625 2.9375q-0.859375 1.328125 -2.265625 2.109375q-1.390625 0.765625 -3.109375 0.765625q-1.8125 0 -3.3125 -0.84375q-1.484375 -0.84375 -2.359375 -2.359375q-0.859375 -1.515625 -0.859375 -3.421875q0 -1.890625 0.859375 -3.40625q0.875 -1.53125 2.359375 -2.375q1.5 -0.859375 3.3125 -0.859375q2.078125 0 3.671875 1.03125q1.59375 1.03125 2.328125 2.890625l-2.046875 0zm13.998947 3.734375q0 0.484375 -0.0625 1.015625l-8.171875 0q0.09375 1.515625 1.03125 2.375q0.953125 0.84375 2.296875 0.84375q1.09375 0 1.828125 -0.515625q0.75 -0.515625 1.046875 -1.375l1.828125 0q-0.40625 1.484375 -1.640625 2.40625q-1.234375 0.921875 -3.0625 0.921875q-1.453125 0 -2.609375 -0.65625q-1.140625 -0.65625 -1.796875 -1.859375q-0.65625 -1.203125 -0.65625 -2.78125q0 -1.59375 0.640625 -2.78125q0.640625 -1.203125 1.78125 -1.84375q1.140625 -0.640625 2.640625 -0.640625q1.453125 0 2.5625 0.640625q1.125 0.625 1.734375 1.734375q0.609375 1.109375 0.609375 2.515625zm-1.75 -0.359375q0 -0.96875 -0.4375 -1.671875q-0.421875 -0.703125 -1.171875 -1.0625q-0.734375 -0.359375 -1.625 -0.359375q-1.28125 0 -2.1875 0.828125q-0.90625 0.8125 -1.03125 2.265625l6.453125 0zm8.973129 -4.546875q1.859375 0 3.015625 1.125q1.15625 1.125 1.15625 3.25l0 6.03125l-1.671875 0l0 -5.78125q0 -1.53125 -0.765625 -2.34375q-0.765625 -0.8125 -2.09375 -0.8125q-1.34375 0 -2.140625 0.84375q-0.78125 0.84375 -0.78125 2.4375l0 5.65625l-1.703125 0l0 -10.21875l1.703125 0l0 1.453125q0.5 -0.78125 1.359375 -1.203125q0.875 -0.4375 1.921875 -0.4375zm16.283752 4.90625q0 0.484375 -0.0625 1.015625l-8.171875 0q0.09375 1.515625 1.03125 2.375q0.953125 0.84375 2.296875 0.84375q1.09375 0 1.828125 -0.515625q0.75 -0.515625 1.046875 -1.375l1.828125 0q-0.40625 1.484375 -1.640625 2.40625q-1.234375 0.921875 -3.0625 0.921875q-1.453125 0 -2.609375 -0.65625q-1.140625 -0.65625 -1.796875 -1.859375q-0.65625 -1.203125 -0.65625 -2.78125q0 -1.59375 0.640625 -2.78125q0.640625 -1.203125 1.78125 -1.84375q1.140625 -0.640625 2.640625 -0.640625q1.453125 0 2.5625 0.640625q1.125 0.625 1.734375 1.734375q0.609375 1.109375 0.609375 2.515625zm-1.75 -0.359375q0 -0.96875 -0.4375 -1.671875q-0.421875 -0.703125 -1.171875 -1.0625q-0.734375 -0.359375 -1.625 -0.359375q-1.28125 0 -2.1875 0.828125q-0.90625 0.8125 -1.03125 2.265625l6.453125 0zm5.6918793 -2.703125q0.4375 -0.875 1.265625 -1.359375q0.84375 -0.484375 2.03125 -0.484375l0 1.75l-0.453125 0q-2.84375 0 -2.84375 3.09375l0 5.5625l-1.703125 0l0 -10.21875l1.703125 0l0 1.65625zm4.615036 3.40625q0 -1.5625 0.640625 -2.734375q0.640625 -1.1875 1.75 -1.84375q1.109375 -0.65625 2.46875 -0.65625q1.34375 0 2.328125 0.578125q0.984375 0.578125 1.46875 1.453125l0 -1.859375l1.71875 0l0 10.21875l-1.71875 0l0 -1.90625q-0.5 0.90625 -1.5 1.5q-1.0 0.578125 -2.3125 0.578125q-1.375 0 -2.46875 -0.671875q-1.09375 -0.671875 -1.734375 -1.875q-0.640625 -1.21875 -0.640625 -2.78125zm8.65625 0.03125q0 -1.15625 -0.46875 -2.015625q-0.453125 -0.859375 -1.25 -1.3125q-0.796875 -0.46875 -1.75 -0.46875q-0.953125 0 -1.734375 0.453125q-0.78125 0.453125 -1.25 1.3125q-0.46875 0.84375 -0.46875 2.0q0 1.1875 0.46875 2.0625q0.46875 0.859375 1.25 1.3125q0.78125 0.453125 1.734375 0.453125q0.953125 0 1.75 -0.453125q0.796875 -0.453125 1.25 -1.3125q0.46875 -0.875 0.46875 -2.03125zm6.2991333 -8.6875l0 13.8125l-1.703125 0l0 -13.8125l1.703125 0z" fill-rule="nonzero"/><path fill="#000000" d="m65.469284 388.17084q1.1875 0 2.125 0.5q0.9375 0.484375 1.46875 1.484375q0.546875 0.984375 0.546875 2.390625l0 6.03125l-1.6875 0l0 -5.78125q0 -1.53125 -0.75 -2.34375q-0.75 -0.8125 -2.046875 -0.8125q-1.3125 0 -2.109375 0.859375q-0.78125 0.84375 -0.78125 2.4375l0 5.640625l-1.671875 0l0 -5.78125q0 -1.53125 -0.765625 -2.34375q-0.75 -0.8125 -2.03125 -0.8125q-1.328125 0 -2.109375 0.859375q-0.78125 0.84375 -0.78125 2.4375l0 5.640625l-1.703125 0l0 -10.21875l1.703125 0l0 1.46875q0.5 -0.796875 1.34375 -1.21875q0.84375 -0.4375 1.875 -0.4375q1.296875 0 2.28125 0.578125q0.984375 0.578125 1.46875 1.6875q0.4375 -1.078125 1.421875 -1.671875q0.984375 -0.59375 2.203125 -0.59375zm11.372185 10.578125q-1.4375 0 -2.6093674 -0.65625q-1.15625 -0.65625 -1.828125 -1.859375q-0.65625 -1.203125 -0.65625 -2.78125q0 -1.578125 0.6875 -2.78125q0.6875 -1.203125 1.859375 -1.84375q1.1718674 -0.640625 2.6249924 -0.640625q1.453125 0 2.625 0.640625q1.1875 0.640625 1.859375 1.84375q0.6875 1.1875 0.6875 2.78125q0 1.578125 -0.703125 2.78125q-0.703125 1.203125 -1.90625 1.859375q-1.1875 0.65625 -2.640625 0.65625zm0 -1.5q0.921875 0 1.71875 -0.421875q0.796875 -0.4375 1.296875 -1.296875q0.5 -0.859375 0.5 -2.078125q0 -1.234375 -0.484375 -2.09375q-0.484375 -0.859375 -1.28125 -1.28125q-0.78125 -0.421875 -1.6875 -0.421875q-0.9375 0 -1.71875 0.421875q-0.7656174 0.421875 -1.2343674 1.28125q-0.46875 0.859375 -0.46875 2.09375q0 1.25 0.453125 2.109375q0.46875 0.84375 1.2343674 1.265625q0.765625 0.421875 1.671875 0.421875zm6.8462524 -3.828125q0 -1.5625 0.640625 -2.734375q0.640625 -1.1875 1.75 -1.84375q1.109375 -0.65625 2.484375 -0.65625q1.1875 0 2.21875 0.546875q1.03125 0.546875 1.5625 1.453125l0 -5.421875l1.71875 0l0 13.8125l-1.71875 0l0 -1.921875q-0.5 0.921875 -1.484375 1.515625q-0.984375 0.578125 -2.3125 0.578125q-1.359375 0 -2.46875 -0.671875q-1.109375 -0.671875 -1.75 -1.875q-0.640625 -1.21875 -0.640625 -2.78125zm8.65625 0.03125q0 -1.15625 -0.46875 -2.015625q-0.453125 -0.859375 -1.25 -1.3125q-0.796875 -0.46875 -1.75 -0.46875q-0.953125 0 -1.734375 0.453125q-0.78125 0.453125 -1.25 1.3125q-0.46875 0.84375 -0.46875 2.0q0 1.1875 0.46875 2.0625q0.46875 0.859375 1.25 1.3125q0.78125 0.453125 1.734375 0.453125q0.953125 0 1.75 -0.453125q0.796875 -0.453125 1.25 -1.3125q0.46875 -0.875 0.46875 -2.03125zm13.924133 -0.375q0 0.484375 -0.0625 1.015625l-8.171875 0q0.09375 1.515625 1.03125 2.375q0.953125 0.84375 2.296875 0.84375q1.09375 0 1.828125 -0.515625q0.75 -0.515625 1.046875 -1.375l1.828125 0q-0.40625 1.484375 -1.640625 2.40625q-1.234375 0.921875 -3.0625 0.921875q-1.453125 0 -2.609375 -0.65625q-1.140625 -0.65625 -1.796875 -1.859375q-0.65625 -1.203125 -0.65625 -2.78125q0 -1.59375 0.640625 -2.78125q0.640625 -1.203125 1.78125 -1.84375q1.140625 -0.640625 2.640625 -0.640625q1.453125 0 2.5625 0.640625q1.125 0.625 1.734375 1.734375q0.609375 1.109375 0.609375 2.515625zm-1.75 -0.359375q0 -0.96875 -0.4375 -1.671875q-0.421875 -0.703125 -1.171875 -1.0625q-0.734375 -0.359375 -1.625 -0.359375q-1.28125 0 -2.1875 0.828125q-0.90625 0.8125 -1.03125 2.265625l6.453125 0zm5.6918793 -7.953125l0 13.8125l-1.703125 0l0 -13.8125l1.703125 0z" fill-rule="nonzero"/><path fill="#000000" fill-opacity="0.0" d="m10.65748 515.13477l142.07874 0l0 73.13385l-142.07874 0z" fill-rule="evenodd"/><path fill="#000000" d="m37.450356 534.2217l0 8.21875q0 1.734375 0.84375 2.578125q0.859375 0.84375 2.375 0.84375q1.484375 0 2.328125 -0.84375q0.859375 -0.84375 0.859375 -2.578125l0 -8.21875l1.6875 0l0 8.203125q0 1.625 -0.65625 2.734375q-0.640625 1.109375 -1.75 1.65625q-1.109375 0.53125 -2.5 0.53125q-1.375 0 -2.484375 -0.53125q-1.109375 -0.546875 -1.75 -1.65625q-0.640625 -1.109375 -0.640625 -2.734375l0 -8.203125l1.6875 0zm15.921097 2.59375q1.859375 0 3.015625 1.125q1.15625 1.125 1.15625 3.25l0 6.03125l-1.671875 0l0 -5.78125q0 -1.53125 -0.765625 -2.34375q-0.765625 -0.8125 -2.09375 -0.8125q-1.34375 0 -2.140625 0.84375q-0.78125 0.84375 -0.78125 2.4375l0 5.65625l-1.703125 0l0 -10.21875l1.703125 0l0 1.453125q0.5 -0.78125 1.359375 -1.203125q0.875 -0.4375 1.921875 -0.4375zm8.658752 -3.40625l0 13.8125l-1.703125 0l0 -13.8125l1.703125 0zm2.2456818 8.65625q0 -1.5625 0.640625 -2.734375q0.640625 -1.1875 1.75 -1.84375q1.109375 -0.65625 2.46875 -0.65625q1.34375 0 2.328125 0.578125q0.984375 0.578125 1.46875 1.453125l0 -1.859375l1.71875 0l0 10.21875l-1.71875 0l0 -1.90625q-0.5 0.90625 -1.5 1.5q-1.0 0.578125 -2.3125 0.578125q-1.375 0 -2.46875 -0.671875q-1.09375 -0.671875 -1.734375 -1.875q-0.640625 -1.21875 -0.640625 -2.78125zm8.65625 0.03125q0 -1.15625 -0.46875 -2.015625q-0.453125 -0.859375 -1.25 -1.3125q-0.796875 -0.46875 -1.75 -0.46875q-0.953125 0 -1.734375 0.453125q-0.78125 0.453125 -1.25 1.3125q-0.46875 0.84375 -0.46875 2.0q0 1.1875 0.46875 2.0625q0.46875 0.859375 1.25 1.3125q0.78125 0.453125 1.734375 0.453125q0.953125 0 1.75 -0.453125q0.796875 -0.453125 1.25 -1.3125q0.46875 -0.875 0.46875 -2.03125zm6.2991333 -3.203125q0.515625 -0.90625 1.515625 -1.484375q1.015625 -0.578125 2.296875 -0.578125q1.390625 0 2.484375 0.65625q1.109375 0.65625 1.734375 1.84375q0.640625 1.171875 0.640625 2.734375q0 1.5625 -0.640625 2.78125q-0.625 1.203125 -1.734375 1.875q-1.109375 0.671875 -2.484375 0.671875q-1.3125 0 -2.3125 -0.578125q-1.0 -0.578125 -1.5 -1.484375l0 1.890625l-1.703125 0l0 -13.8125l1.703125 0l0 5.484375zm6.9375 3.171875q0 -1.15625 -0.46875 -2.0q-0.46875 -0.859375 -1.265625 -1.3125q-0.78125 -0.453125 -1.734375 -0.453125q-0.9375 0 -1.734375 0.46875q-0.796875 0.453125 -1.265625 1.328125q-0.46875 0.859375 -0.46875 2.0q0 1.15625 0.46875 2.03125q0.46875 0.859375 1.265625 1.3125q0.796875 0.453125 1.734375 0.453125q0.953125 0 1.734375 -0.453125q0.796875 -0.453125 1.265625 -1.3125q0.46875 -0.875 0.46875 -2.0625zm13.299133 -0.34375q0 0.484375 -0.0625 1.015625l-8.171875 0q0.09375 1.515625 1.03125 2.375q0.953125 0.84375 2.296875 0.84375q1.09375 0 1.828125 -0.515625q0.75 -0.515625 1.046875 -1.375l1.828125 0q-0.40625 1.484375 -1.640625 2.40625q-1.234375 0.921875 -3.0625 0.921875q-1.453125 0 -2.609375 -0.65625q-1.140625 -0.65625 -1.796875 -1.859375q-0.65625 -1.203125 -0.65625 -2.78125q0 -1.59375 0.640625 -2.78125q0.640625 -1.203125 1.78125 -1.84375q1.140625 -0.640625 2.640625 -0.640625q1.453125 0 2.5625 0.640625q1.125 0.625 1.734375 1.734375q0.609375 1.109375 0.609375 2.515625zm-1.75 -0.359375q0 -0.96875 -0.4375 -1.671875q-0.421875 -0.703125 -1.171875 -1.0625q-0.734375 -0.359375 -1.625 -0.359375q-1.28125 0 -2.1875 0.828125q-0.90625 0.8125 -1.03125 2.265625l6.453125 0zm5.6918793 -7.953125l0 13.8125l-1.703125 0l0 -13.8125l1.703125 0zm12.214432 8.3125q0 0.484375 -0.0625 1.015625l-8.171875 0q0.09375 1.515625 1.03125 2.375q0.953125 0.84375 2.296875 0.84375q1.09375 0 1.828125 -0.515625q0.75 -0.515625 1.046875 -1.375l1.828125 0q-0.40625 1.484375 -1.640625 2.40625q-1.234375 0.921875 -3.0625 0.921875q-1.453125 0 -2.609375 -0.65625q-1.140625 -0.65625 -1.796875 -1.859375q-0.65625 -1.203125 -0.65625 -2.78125q0 -1.59375 0.640625 -2.78125q0.640625 -1.203125 1.78125 -1.84375q1.140625 -0.640625 2.640625 -0.640625q1.453125 0 2.5625 0.640625q1.125 0.625 1.734375 1.734375q0.609375 1.109375 0.609375 2.515625zm-1.75 -0.359375q0 -0.96875 -0.4375 -1.671875q-0.421875 -0.703125 -1.171875 -1.0625q-0.734375 -0.359375 -1.625 -0.359375q-1.28125 0 -2.1875 0.828125q-0.90625 0.8125 -1.03125 2.265625l6.453125 0zm3.3481293 0.703125q0 -1.5625 0.640625 -2.734375q0.640625 -1.1875 1.75 -1.84375q1.109375 -0.65625 2.484375 -0.65625q1.1875 0 2.21875 0.546875q1.03125 0.546875 1.5625 1.453125l0 -5.421875l1.71875 0l0 13.8125l-1.71875 0l0 -1.921875q-0.5 0.921875 -1.484375 1.515625q-0.984375 0.578125 -2.3125 0.578125q-1.359375 0 -2.46875 -0.671875q-1.109375 -0.671875 -1.75 -1.875q-0.640625 -1.21875 -0.640625 -2.78125zm8.65625 0.03125q0 -1.15625 -0.46875 -2.015625q-0.453125 -0.859375 -1.25 -1.3125q-0.796875 -0.46875 -1.75 -0.46875q-0.953125 0 -1.734375 0.453125q-0.78125 0.453125 -1.25 1.3125q-0.46875 0.84375 -0.46875 2.0q0 1.1875 0.46875 2.0625q0.46875 0.859375 1.25 1.3125q0.78125 0.453125 1.734375 0.453125q0.953125 0 1.75 -0.453125q0.796875 -0.453125 1.25 -1.3125q0.46875 -0.875 0.46875 -2.03125z" fill-rule="nonzero"/><path fill="#000000" d="m60.18084 564.46545q0 -1.5625 0.640625 -2.734375q0.640625 -1.1875 1.75 -1.84375q1.109375 -0.65625 2.484375 -0.65625q1.1875 0 2.21875 0.546875q1.03125 0.546875 1.5625 1.453125l0 -5.421875l1.71875 0l0 13.8125l-1.71875 0l0 -1.921875q-0.5 0.921875 -1.484375 1.515625q-0.984375 0.578125 -2.3125 0.578125q-1.359375 0 -2.46875 -0.671875q-1.109375 -0.671875 -1.75 -1.875q-0.640625 -1.21875 -0.640625 -2.78125zm8.65625 0.03125q0 -1.15625 -0.46875 -2.015625q-0.453125 -0.859375 -1.25 -1.3125q-0.796875 -0.46875 -1.75 -0.46875q-0.953125 0 -1.734375 0.453125q-0.78125 0.453125 -1.25 1.3125q-0.46875 0.84375 -0.46875 2.0q0 1.1875 0.46875 2.0625q0.46875 0.859375 1.25 1.3125q0.78125 0.453125 1.734375 0.453125q0.953125 0 1.75 -0.453125q0.796875 -0.453125 1.25 -1.3125q0.46875 -0.875 0.46875 -2.03125zm3.9553833 -0.03125q0 -1.5625 0.640625 -2.734375q0.640625 -1.1875 1.75 -1.84375q1.109375 -0.65625 2.46875 -0.65625q1.34375 0 2.328125 0.578125q0.984375 0.578125 1.46875 1.453125l0 -1.859375l1.71875 0l0 10.21875l-1.71875 0l0 -1.90625q-0.5 0.90625 -1.5 1.5q-1.0 0.578125 -2.3125 0.578125q-1.375 0 -2.46875 -0.671875q-1.09375 -0.671875 -1.734375 -1.875q-0.640625 -1.21875 -0.640625 -2.78125zm8.65625 0.03125q0 -1.15625 -0.46875 -2.015625q-0.453125 -0.859375 -1.25 -1.3125q-0.796875 -0.46875 -1.75 -0.46875q-0.953125 0 -1.734375 0.453125q-0.78125 0.453125 -1.25 1.3125q-0.46875 0.84375 -0.46875 2.0q0 1.1875 0.46875 2.0625q0.46875 0.859375 1.25 1.3125q0.78125 0.453125 1.734375 0.453125q0.953125 0 1.75 -0.453125q0.796875 -0.453125 1.25 -1.3125q0.46875 -0.875 0.46875 -2.03125zm6.6585083 -3.703125l0 6.03125q0 0.75 0.3125 1.0625q0.328125 0.296875 1.109375 0.296875l1.25 0l0 1.4375l-1.53125 0q-1.40625 0 -2.125 -0.65625q-0.703125 -0.65625 -0.703125 -2.140625l0 -6.03125l-1.328125 0l0 -1.390625l1.328125 0l0 -2.578125l1.6875 0l0 2.578125l2.671875 0l0 1.390625l-2.671875 0zm4.0877533 3.671875q0 -1.5625 0.640625 -2.734375q0.640625 -1.1875 1.75 -1.84375q1.109375 -0.65625 2.46875 -0.65625q1.34375 0 2.328125 0.578125q0.984375 0.578125 1.46875 1.453125l0 -1.859375l1.71875 0l0 10.21875l-1.71875 0l0 -1.90625q-0.5 0.90625 -1.5 1.5q-1.0 0.578125 -2.3125 0.578125q-1.375 0 -2.46875 -0.671875q-1.09375 -0.671875 -1.734375 -1.875q-0.640625 -1.21875 -0.640625 -2.78125zm8.65625 0.03125q0 -1.15625 -0.46875 -2.015625q-0.453125 -0.859375 -1.25 -1.3125q-0.796875 -0.46875 -1.75 -0.46875q-0.953125 0 -1.734375 0.453125q-0.78125 0.453125 -1.25 1.3125q-0.46875 0.84375 -0.46875 2.0q0 1.1875 0.46875 2.0625q0.46875 0.859375 1.25 1.3125q0.78125 0.453125 1.734375 0.453125q0.953125 0 1.75 -0.453125q0.796875 -0.453125 1.25 -1.3125q0.46875 -0.875 0.46875 -2.03125z" fill-rule="nonzero"/><path fill="#000000" fill-opacity="0.0" d="m10.65748 637.78046l142.07874 0l0 73.13385l-142.07874 0z" fill-rule="evenodd"/><path fill="#000000" d="m31.17275 658.2424l0 4.34375l4.734377 0l0 1.40625l-4.734377 0l0 4.46875l5.296877 0l0 1.40625l-7.000002 0l0 -13.015625l7.000002 0l0 1.390625l-5.296877 0zm20.164415 1.21875q1.1875 0 2.125 0.5q0.9375 0.484375 1.46875 1.484375q0.546875 0.984375 0.546875 2.390625l0 6.03125l-1.6875 0l0 -5.78125q0 -1.53125 -0.75 -2.34375q-0.75 -0.8125 -2.046875 -0.8125q-1.3125 0 -2.109375 0.859375q-0.78125 0.84375 -0.78125 2.4375l0 5.640625l-1.671875 0l0 -5.78125q0 -1.53125 -0.765625 -2.34375q-0.75 -0.8125 -2.03125 -0.8125q-1.328125 0 -2.109375 0.859375q-0.78125 0.84375 -0.78125 2.4375l0 5.640625l-1.703125 0l0 -10.21875l1.703125 0l0 1.46875q0.5 -0.796875 1.34375 -1.21875q0.84375 -0.4375 1.875 -0.4375q1.296875 0 2.28125 0.578125q0.984375 0.578125 1.46875 1.6875q0.4375 -1.078125 1.421875 -1.671875q0.984375 -0.59375 2.203125 -0.59375zm8.622192 2.078125q0.515625 -0.90625 1.515625 -1.484375q1.015625 -0.578125 2.296875 -0.578125q1.390625 0 2.484375 0.65625q1.109375 0.65625 1.734375 1.84375q0.640625 1.171875 0.640625 2.734375q0 1.5625 -0.640625 2.78125q-0.625 1.203125 -1.734375 1.875q-1.109375 0.671875 -2.484375 0.671875q-1.3125 0 -2.3125 -0.578125q-1.0 -0.578125 -1.5 -1.484375l0 1.890625l-1.703125 0l0 -13.8125l1.703125 0l0 5.484375zm6.9375 3.171875q0 -1.15625 -0.46875 -2.0q-0.46875 -0.859375 -1.265625 -1.3125q-0.78125 -0.453125 -1.734375 -0.453125q-0.9375 0 -1.734375 0.46875q-0.796875 0.453125 -1.265625 1.328125q-0.46875 0.859375 -0.46875 2.0q0 1.15625 0.46875 2.03125q0.46875 0.859375 1.265625 1.3125q0.796875 0.453125 1.734375 0.453125q0.953125 0 1.734375 -0.453125q0.796875 -0.453125 1.265625 -1.3125q0.46875 -0.875 0.46875 -2.0625zm13.299133 -0.34375q0 0.484375 -0.0625 1.015625l-8.171875 0q0.09375 1.515625 1.03125 2.375q0.953125 0.84375 2.296875 0.84375q1.09375 0 1.828125 -0.515625q0.75 -0.515625 1.046875 -1.375l1.828125 0q-0.40625 1.484375 -1.640625 2.40625q-1.234375 0.921875 -3.0625 0.921875q-1.453125 0 -2.609375 -0.65625q-1.140625 -0.65625 -1.796875 -1.859375q-0.65625 -1.203125 -0.65625 -2.78125q0 -1.59375 0.640625 -2.78125q0.640625 -1.203125 1.78125 -1.84375q1.140625 -0.640625 2.640625 -0.640625q1.453125 0 2.5625 0.640625q1.125 0.625 1.734375 1.734375q0.609375 1.109375 0.609375 2.515625zm-1.75 -0.359375q0 -0.96875 -0.4375 -1.671875q-0.421875 -0.703125 -1.171875 -1.0625q-0.734375 -0.359375 -1.625 -0.359375q-1.28125 0 -2.1875 0.828125q-0.90625 0.8125 -1.03125 2.265625l6.453125 0zm3.3481293 0.703125q0 -1.5625 0.640625 -2.734375q0.640625 -1.1875 1.75 -1.84375q1.109375 -0.65625 2.484375 -0.65625q1.1875 0 2.21875 0.546875q1.03125 0.546875 1.5625 1.453125l0 -5.421875l1.71875 0l0 13.8125l-1.71875 0l0 -1.921875q-0.5 0.921875 -1.484375 1.515625q-0.984375 0.578125 -2.3125 0.578125q-1.359375 0 -2.46875 -0.671875q-1.109375 -0.671875 -1.75 -1.875q-0.640625 -1.21875 -0.640625 -2.78125zm8.65625 0.03125q0 -1.15625 -0.46875 -2.015625q-0.453125 -0.859375 -1.25 -1.3125q-0.796875 -0.46875 -1.75 -0.46875q-0.953125 0 -1.734375 0.453125q-0.78125 0.453125 -1.25 1.3125q-0.46875 0.84375 -0.46875 2.0q0 1.1875 0.46875 2.0625q0.46875 0.859375 1.25 1.3125q0.78125 0.453125 1.734375 0.453125q0.953125 0 1.75 -0.453125q0.796875 -0.453125 1.25 -1.3125q0.46875 -0.875 0.46875 -2.03125zm3.9553833 -0.03125q0 -1.5625 0.640625 -2.734375q0.640625 -1.1875 1.75 -1.84375q1.109375 -0.65625 2.484375 -0.65625q1.1875 0 2.21875 0.546875q1.03125 0.546875 1.5625 1.453125l0 -5.421875l1.71875 0l0 13.8125l-1.71875 0l0 -1.921875q-0.5 0.921875 -1.484375 1.515625q-0.984375 0.578125 -2.3125 0.578125q-1.359375 0 -2.46875 -0.671875q-1.109375 -0.671875 -1.75 -1.875q-0.640625 -1.21875 -0.640625 -2.78125zm8.65625 0.03125q0 -1.15625 -0.46875 -2.015625q-0.453125 -0.859375 -1.25 -1.3125q-0.796875 -0.46875 -1.75 -0.46875q-0.953125 0 -1.734375 0.453125q-0.78125 0.453125 -1.25 1.3125q-0.46875 0.84375 -0.46875 2.0q0 1.1875 0.46875 2.0625q0.46875 0.859375 1.25 1.3125q0.78125 0.453125 1.734375 0.453125q0.953125 0 1.75 -0.453125q0.796875 -0.453125 1.25 -1.3125q0.46875 -0.875 0.46875 -2.03125zm5.4710083 -6.765625q-0.484375 0 -0.828125 -0.328125q-0.328125 -0.34375 -0.328125 -0.828125q0 -0.484375 0.328125 -0.8125q0.34375 -0.34375 0.828125 -0.34375q0.46875 0 0.796875 0.34375q0.328125 0.328125 0.328125 0.8125q0 0.484375 -0.328125 0.828125q-0.328125 0.328125 -0.796875 0.328125zm0.828125 1.671875l0 10.21875l-1.703125 0l0 -10.21875l1.703125 0zm7.870682 -0.1875q1.859375 0 3.015625 1.125q1.15625 1.125 1.15625 3.25l0 6.03125l-1.671875 0l0 -5.78125q0 -1.53125 -0.765625 -2.34375q-0.765625 -0.8125 -2.09375 -0.8125q-1.34375 0 -2.140625 0.84375q-0.78125 0.84375 -0.78125 2.4375l0 5.65625l-1.703125 0l0 -10.21875l1.703125 0l0 1.453125q0.5 -0.78125 1.359375 -1.203125q0.875 -0.4375 1.921875 -0.4375zm11.174385 0.015625q1.328125 0 2.3125 0.578125q1.0 0.578125 1.484375 1.453125l0 -1.859375l1.71875 0l0 10.4375q0 1.40625 -0.59375 2.5q-0.59375 1.09375 -1.703125 1.703125q-1.109375 0.609375 -2.59375 0.609375q-2.0156326 0 -3.3593826 -0.953125q-1.34375 -0.9375 -1.578125 -2.578125l1.671875 0q0.28125 0.921875 1.15625 1.484375q0.890625 0.578125 2.1093826 0.578125q1.40625 0 2.28125 -0.875q0.890625 -0.875 0.890625 -2.46875l0 -2.140625q-0.5 0.890625 -1.484375 1.5q-0.984375 0.59375 -2.3125 0.59375q-1.3593826 0 -2.4687576 -0.671875q-1.109375 -0.671875 -1.75 -1.875q-0.640625 -1.21875 -0.640625 -2.78125q0 -1.5625 0.640625 -2.734375q0.640625 -1.1875 1.75 -1.84375q1.109375 -0.65625 2.4687576 -0.65625zm3.796875 5.265625q0 -1.15625 -0.46875 -2.015625q-0.453125 -0.859375 -1.25 -1.3125q-0.796875 -0.46875 -1.75 -0.46875q-0.9531326 0 -1.7343826 0.453125q-0.78125 0.453125 -1.25 1.3125q-0.46875 0.84375 -0.46875 2.0q0 1.1875 0.46875 2.0625q0.46875 0.859375 1.25 1.3125q0.78125 0.453125 1.7343826 0.453125q0.953125 0 1.75 -0.453125q0.796875 -0.453125 1.25 -1.3125q0.46875 -0.875 0.46875 -2.03125z" fill-rule="nonzero"/><path fill="#000000" d="m65.469284 681.86115q1.1875 0 2.125 0.5q0.9375 0.484375 1.46875 1.484375q0.546875 0.984375 0.546875 2.390625l0 6.03125l-1.6875 0l0 -5.78125q0 -1.53125 -0.75 -2.34375q-0.75 -0.8125 -2.046875 -0.8125q-1.3125 0 -2.109375 0.859375q-0.78125 0.84375 -0.78125 2.4375l0 5.640625l-1.671875 0l0 -5.78125q0 -1.53125 -0.765625 -2.34375q-0.75 -0.8125 -2.03125 -0.8125q-1.328125 0 -2.109375 0.859375q-0.78125 0.84375 -0.78125 2.4375l0 5.640625l-1.703125 0l0 -10.21875l1.703125 0l0 1.46875q0.5 -0.796875 1.34375 -1.21875q0.84375 -0.4375 1.875 -0.4375q1.296875 0 2.28125 0.578125q0.984375 0.578125 1.46875 1.6875q0.4375 -1.078125 1.421875 -1.671875q0.984375 -0.59375 2.203125 -0.59375zm11.372185 10.578125q-1.4375 0 -2.6093674 -0.65625q-1.15625 -0.65625 -1.828125 -1.859375q-0.65625 -1.203125 -0.65625 -2.78125q0 -1.578125 0.6875 -2.78125q0.6875 -1.203125 1.859375 -1.84375q1.1718674 -0.640625 2.6249924 -0.640625q1.453125 0 2.625 0.640625q1.1875 0.640625 1.859375 1.84375q0.6875 1.1875 0.6875 2.78125q0 1.578125 -0.703125 2.78125q-0.703125 1.203125 -1.90625 1.859375q-1.1875 0.65625 -2.640625 0.65625zm0 -1.5q0.921875 0 1.71875 -0.421875q0.796875 -0.4375 1.296875 -1.296875q0.5 -0.859375 0.5 -2.078125q0 -1.234375 -0.484375 -2.09375q-0.484375 -0.859375 -1.28125 -1.28125q-0.78125 -0.421875 -1.6875 -0.421875q-0.9375 0 -1.71875 0.421875q-0.7656174 0.421875 -1.2343674 1.28125q-0.46875 0.859375 -0.46875 2.09375q0 1.25 0.453125 2.109375q0.46875 0.84375 1.2343674 1.265625q0.765625 0.421875 1.671875 0.421875zm6.8462524 -3.828125q0 -1.5625 0.640625 -2.734375q0.640625 -1.1875 1.75 -1.84375q1.109375 -0.65625 2.484375 -0.65625q1.1875 0 2.21875 0.546875q1.03125 0.546875 1.5625 1.453125l0 -5.421875l1.71875 0l0 13.8125l-1.71875 0l0 -1.921875q-0.5 0.921875 -1.484375 1.515625q-0.984375 0.578125 -2.3125 0.578125q-1.359375 0 -2.46875 -0.671875q-1.109375 -0.671875 -1.75 -1.875q-0.640625 -1.21875 -0.640625 -2.78125zm8.65625 0.03125q0 -1.15625 -0.46875 -2.015625q-0.453125 -0.859375 -1.25 -1.3125q-0.796875 -0.46875 -1.75 -0.46875q-0.953125 0 -1.734375 0.453125q-0.78125 0.453125 -1.25 1.3125q-0.46875 0.84375 -0.46875 2.0q0 1.1875 0.46875 2.0625q0.46875 0.859375 1.25 1.3125q0.78125 0.453125 1.734375 0.453125q0.953125 0 1.75 -0.453125q0.796875 -0.453125 1.25 -1.3125q0.46875 -0.875 0.46875 -2.03125zm13.924133 -0.375q0 0.484375 -0.0625 1.015625l-8.171875 0q0.09375 1.515625 1.03125 2.375q0.953125 0.84375 2.296875 0.84375q1.09375 0 1.828125 -0.515625q0.75 -0.515625 1.046875 -1.375l1.828125 0q-0.40625 1.484375 -1.640625 2.40625q-1.234375 0.921875 -3.0625 0.921875q-1.453125 0 -2.609375 -0.65625q-1.140625 -0.65625 -1.796875 -1.859375q-0.65625 -1.203125 -0.65625 -2.78125q0 -1.59375 0.640625 -2.78125q0.640625 -1.203125 1.78125 -1.84375q1.140625 -0.640625 2.640625 -0.640625q1.453125 0 2.5625 0.640625q1.125 0.625 1.734375 1.734375q0.609375 1.109375 0.609375 2.515625zm-1.75 -0.359375q0 -0.96875 -0.4375 -1.671875q-0.421875 -0.703125 -1.171875 -1.0625q-0.734375 -0.359375 -1.625 -0.359375q-1.28125 0 -2.1875 0.828125q-0.90625 0.8125 -1.03125 2.265625l6.453125 0zm5.6918793 -7.953125l0 13.8125l-1.703125 0l0 -13.8125l1.703125 0z" fill-rule="nonzero"/><path fill="#000000" fill-opacity="0.0" d="m10.65748 818.71747l142.07874 0l0 73.13385l-142.07874 0z" fill-rule="evenodd"/><path fill="#000000" d="m37.450356 837.8044l0 8.21875q0 1.734375 0.84375 2.578125q0.859375 0.84375 2.375 0.84375q1.484375 0 2.328125 -0.84375q0.859375 -0.84375 0.859375 -2.578125l0 -8.21875l1.6875 0l0 8.203125q0 1.625 -0.65625 2.734375q-0.640625 1.109375 -1.75 1.65625q-1.109375 0.53125 -2.5 0.53125q-1.375 0 -2.484375 -0.53125q-1.109375 -0.546875 -1.75 -1.65625q-0.640625 -1.109375 -0.640625 -2.734375l0 -8.203125l1.6875 0zm15.921097 2.59375q1.859375 0 3.015625 1.125q1.15625 1.125 1.15625 3.25l0 6.03125l-1.671875 0l0 -5.78125q0 -1.53125 -0.765625 -2.34375q-0.765625 -0.8125 -2.09375 -0.8125q-1.34375 0 -2.140625 0.84375q-0.78125 0.84375 -0.78125 2.4375l0 5.65625l-1.703125 0l0 -10.21875l1.703125 0l0 1.453125q0.5 -0.78125 1.359375 -1.203125q0.875 -0.4375 1.921875 -0.4375zm8.658752 -3.40625l0 13.8125l-1.703125 0l0 -13.8125l1.703125 0zm2.2456818 8.65625q0 -1.5625 0.640625 -2.734375q0.640625 -1.1875 1.75 -1.84375q1.109375 -0.65625 2.46875 -0.65625q1.34375 0 2.328125 0.578125q0.984375 0.578125 1.46875 1.453125l0 -1.859375l1.71875 0l0 10.21875l-1.71875 0l0 -1.90625q-0.5 0.90625 -1.5 1.5q-1.0 0.578125 -2.3125 0.578125q-1.375 0 -2.46875 -0.671875q-1.09375 -0.671875 -1.734375 -1.875q-0.640625 -1.21875 -0.640625 -2.78125zm8.65625 0.03125q0 -1.15625 -0.46875 -2.015625q-0.453125 -0.859375 -1.25 -1.3125q-0.796875 -0.46875 -1.75 -0.46875q-0.953125 0 -1.734375 0.453125q-0.78125 0.453125 -1.25 1.3125q-0.46875 0.84375 -0.46875 2.0q0 1.1875 0.46875 2.0625q0.46875 0.859375 1.25 1.3125q0.78125 0.453125 1.734375 0.453125q0.953125 0 1.75 -0.453125q0.796875 -0.453125 1.25 -1.3125q0.46875 -0.875 0.46875 -2.03125zm6.2991333 -3.203125q0.515625 -0.90625 1.515625 -1.484375q1.015625 -0.578125 2.296875 -0.578125q1.390625 0 2.484375 0.65625q1.109375 0.65625 1.734375 1.84375q0.640625 1.171875 0.640625 2.734375q0 1.5625 -0.640625 2.78125q-0.625 1.203125 -1.734375 1.875q-1.109375 0.671875 -2.484375 0.671875q-1.3125 0 -2.3125 -0.578125q-1.0 -0.578125 -1.5 -1.484375l0 1.890625l-1.703125 0l0 -13.8125l1.703125 0l0 5.484375zm6.9375 3.171875q0 -1.15625 -0.46875 -2.0q-0.46875 -0.859375 -1.265625 -1.3125q-0.78125 -0.453125 -1.734375 -0.453125q-0.9375 0 -1.734375 0.46875q-0.796875 0.453125 -1.265625 1.328125q-0.46875 0.859375 -0.46875 2.0q0 1.15625 0.46875 2.03125q0.46875 0.859375 1.265625 1.3125q0.796875 0.453125 1.734375 0.453125q0.953125 0 1.734375 -0.453125q0.796875 -0.453125 1.265625 -1.3125q0.46875 -0.875 0.46875 -2.0625zm13.299133 -0.34375q0 0.484375 -0.0625 1.015625l-8.171875 0q0.09375 1.515625 1.03125 2.375q0.953125 0.84375 2.296875 0.84375q1.09375 0 1.828125 -0.515625q0.75 -0.515625 1.046875 -1.375l1.828125 0q-0.40625 1.484375 -1.640625 2.40625q-1.234375 0.921875 -3.0625 0.921875q-1.453125 0 -2.609375 -0.65625q-1.140625 -0.65625 -1.796875 -1.859375q-0.65625 -1.203125 -0.65625 -2.78125q0 -1.59375 0.640625 -2.78125q0.640625 -1.203125 1.78125 -1.84375q1.140625 -0.640625 2.640625 -0.640625q1.453125 0 2.5625 0.640625q1.125 0.625 1.734375 1.734375q0.609375 1.109375 0.609375 2.515625zm-1.75 -0.359375q0 -0.96875 -0.4375 -1.671875q-0.421875 -0.703125 -1.171875 -1.0625q-0.734375 -0.359375 -1.625 -0.359375q-1.28125 0 -2.1875 0.828125q-0.90625 0.8125 -1.03125 2.265625l6.453125 0zm5.6918793 -7.953125l0 13.8125l-1.703125 0l0 -13.8125l1.703125 0zm12.214432 8.3125q0 0.484375 -0.0625 1.015625l-8.171875 0q0.09375 1.515625 1.03125 2.375q0.953125 0.84375 2.296875 0.84375q1.09375 0 1.828125 -0.515625q0.75 -0.515625 1.046875 -1.375l1.828125 0q-0.40625 1.484375 -1.640625 2.40625q-1.234375 0.921875 -3.0625 0.921875q-1.453125 0 -2.609375 -0.65625q-1.140625 -0.65625 -1.796875 -1.859375q-0.65625 -1.203125 -0.65625 -2.78125q0 -1.59375 0.640625 -2.78125q0.640625 -1.203125 1.78125 -1.84375q1.140625 -0.640625 2.640625 -0.640625q1.453125 0 2.5625 0.640625q1.125 0.625 1.734375 1.734375q0.609375 1.109375 0.609375 2.515625zm-1.75 -0.359375q0 -0.96875 -0.4375 -1.671875q-0.421875 -0.703125 -1.171875 -1.0625q-0.734375 -0.359375 -1.625 -0.359375q-1.28125 0 -2.1875 0.828125q-0.90625 0.8125 -1.03125 2.265625l6.453125 0zm3.3481293 0.703125q0 -1.5625 0.640625 -2.734375q0.640625 -1.1875 1.75 -1.84375q1.109375 -0.65625 2.484375 -0.65625q1.1875 0 2.21875 0.546875q1.03125 0.546875 1.5625 1.453125l0 -5.421875l1.71875 0l0 13.8125l-1.71875 0l0 -1.921875q-0.5 0.921875 -1.484375 1.515625q-0.984375 0.578125 -2.3125 0.578125q-1.359375 0 -2.46875 -0.671875q-1.109375 -0.671875 -1.75 -1.875q-0.640625 -1.21875 -0.640625 -2.78125zm8.65625 0.03125q0 -1.15625 -0.46875 -2.015625q-0.453125 -0.859375 -1.25 -1.3125q-0.796875 -0.46875 -1.75 -0.46875q-0.953125 0 -1.734375 0.453125q-0.78125 0.453125 -1.25 1.3125q-0.46875 0.84375 -0.46875 2.0q0 1.1875 0.46875 2.0625q0.46875 0.859375 1.25 1.3125q0.78125 0.453125 1.734375 0.453125q0.953125 0 1.75 -0.453125q0.796875 -0.453125 1.25 -1.3125q0.46875 -0.875 0.46875 -2.03125z" fill-rule="nonzero"/><path fill="#000000" d="m60.18084 868.04816q0 -1.5625 0.640625 -2.734375q0.640625 -1.1875 1.75 -1.84375q1.109375 -0.65625 2.484375 -0.65625q1.1875 0 2.21875 0.546875q1.03125 0.546875 1.5625 1.453125l0 -5.421875l1.71875 0l0 13.8125l-1.71875 0l0 -1.921875q-0.5 0.921875 -1.484375 1.515625q-0.984375 0.578125 -2.3125 0.578125q-1.359375 0 -2.46875 -0.671875q-1.109375 -0.671875 -1.75 -1.875q-0.640625 -1.21875 -0.640625 -2.78125zm8.65625 0.03125q0 -1.15625 -0.46875 -2.015625q-0.453125 -0.859375 -1.25 -1.3125q-0.796875 -0.46875 -1.75 -0.46875q-0.953125 0 -1.734375 0.453125q-0.78125 0.453125 -1.25 1.3125q-0.46875 0.84375 -0.46875 2.0q0 1.1875 0.46875 2.0625q0.46875 0.859375 1.25 1.3125q0.78125 0.453125 1.734375 0.453125q0.953125 0 1.75 -0.453125q0.796875 -0.453125 1.25 -1.3125q0.46875 -0.875 0.46875 -2.03125zm3.9553833 -0.03125q0 -1.5625 0.640625 -2.734375q0.640625 -1.1875 1.75 -1.84375q1.109375 -0.65625 2.46875 -0.65625q1.34375 0 2.328125 0.578125q0.984375 0.578125 1.46875 1.453125l0 -1.859375l1.71875 0l0 10.21875l-1.71875 0l0 -1.90625q-0.5 0.90625 -1.5 1.5q-1.0 0.578125 -2.3125 0.578125q-1.375 0 -2.46875 -0.671875q-1.09375 -0.671875 -1.734375 -1.875q-0.640625 -1.21875 -0.640625 -2.78125zm8.65625 0.03125q0 -1.15625 -0.46875 -2.015625q-0.453125 -0.859375 -1.25 -1.3125q-0.796875 -0.46875 -1.75 -0.46875q-0.953125 0 -1.734375 0.453125q-0.78125 0.453125 -1.25 1.3125q-0.46875 0.84375 -0.46875 2.0q0 1.1875 0.46875 2.0625q0.46875 0.859375 1.25 1.3125q0.78125 0.453125 1.734375 0.453125q0.953125 0 1.75 -0.453125q0.796875 -0.453125 1.25 -1.3125q0.46875 -0.875 0.46875 -2.03125zm6.6585083 -3.703125l0 6.03125q0 0.75 0.3125 1.0625q0.328125 0.296875 1.109375 0.296875l1.25 0l0 1.4375l-1.53125 0q-1.40625 0 -2.125 -0.65625q-0.703125 -0.65625 -0.703125 -2.140625l0 -6.03125l-1.328125 0l0 -1.390625l1.328125 0l0 -2.578125l1.6875 0l0 2.578125l2.671875 0l0 1.390625l-2.671875 0zm4.0877533 3.671875q0 -1.5625 0.640625 -2.734375q0.640625 -1.1875 1.75 -1.84375q1.109375 -0.65625 2.46875 -0.65625q1.34375 0 2.328125 0.578125q0.984375 0.578125 1.46875 1.453125l0 -1.859375l1.71875 0l0 10.21875l-1.71875 0l0 -1.90625q-0.5 0.90625 -1.5 1.5q-1.0 0.578125 -2.3125 0.578125q-1.375 0 -2.46875 -0.671875q-1.09375 -0.671875 -1.734375 -1.875q-0.640625 -1.21875 -0.640625 -2.78125zm8.65625 0.03125q0 -1.15625 -0.46875 -2.015625q-0.453125 -0.859375 -1.25 -1.3125q-0.796875 -0.46875 -1.75 -0.46875q-0.953125 0 -1.734375 0.453125q-0.78125 0.453125 -1.25 1.3125q-0.46875 0.84375 -0.46875 2.0q0 1.1875 0.46875 2.0625q0.46875 0.859375 1.25 1.3125q0.78125 0.453125 1.734375 0.453125q0.953125 0 1.75 -0.453125q0.796875 -0.453125 1.25 -1.3125q0.46875 -0.875 0.46875 -2.03125z" fill-rule="nonzero"/><path fill="#000000" fill-opacity="0.0" d="m10.65748 941.3631l142.07874 0l0 73.13391l-142.07874 0z" fill-rule="evenodd"/><path fill="#000000" d="m56.10401 964.2157q-0.53125 -1.140625 -1.5625 -1.765625q-1.03125 -0.625 -2.390625 -0.625q-1.359375 0 -2.453125 0.625q-1.09375 0.625 -1.71875 1.796875q-0.625 1.15625 -0.625 2.6875q0 1.53125 0.625 2.6875q0.625 1.15625 1.71875 1.78125q1.09375 0.625 2.453125 0.625q1.90625 0 3.140625 -1.125q1.234375 -1.140625 1.4375 -3.09375l-5.1875 0l0 -1.375l7.0 0l0 1.3125q-0.15625 1.59375 -1.015625 2.9375q-0.859375 1.328125 -2.265625 2.109375q-1.390625 0.765625 -3.109375 0.765625q-1.8125 0 -3.3125 -0.84375q-1.484375 -0.84375 -2.359375 -2.359375q-0.859375 -1.515625 -0.859375 -3.421875q0 -1.890625 0.859375 -3.40625q0.875 -1.53125 2.359375 -2.375q1.5 -0.859375 3.3125 -0.859375q2.078125 0 3.671875 1.03125q1.59375 1.03125 2.328125 2.890625l-2.046875 0zm13.998947 3.734375q0 0.484375 -0.0625 1.015625l-8.171875 0q0.09375 1.515625 1.03125 2.375q0.953125 0.84375 2.296875 0.84375q1.09375 0 1.828125 -0.515625q0.75 -0.515625 1.046875 -1.375l1.828125 0q-0.40625 1.484375 -1.640625 2.40625q-1.234375 0.921875 -3.0625 0.921875q-1.453125 0 -2.609375 -0.65625q-1.140625 -0.65625 -1.796875 -1.859375q-0.65625 -1.203125 -0.65625 -2.78125q0 -1.59375 0.640625 -2.78125q0.640625 -1.203125 1.78125 -1.84375q1.140625 -0.640625 2.640625 -0.640625q1.453125 0 2.5625 0.640625q1.125 0.625 1.734375 1.734375q0.609375 1.109375 0.609375 2.515625zm-1.75 -0.359375q0 -0.96875 -0.4375 -1.671875q-0.421875 -0.703125 -1.171875 -1.0625q-0.734375 -0.359375 -1.625 -0.359375q-1.28125 0 -2.1875 0.828125q-0.90625 0.8125 -1.03125 2.265625l6.453125 0zm8.973129 -4.546875q1.859375 0 3.015625 1.125q1.15625 1.125 1.15625 3.25l0 6.03125l-1.671875 0l0 -5.78125q0 -1.53125 -0.765625 -2.34375q-0.765625 -0.8125 -2.09375 -0.8125q-1.34375 0 -2.140625 0.84375q-0.78125 0.84375 -0.78125 2.4375l0 5.65625l-1.703125 0l0 -10.21875l1.703125 0l0 1.453125q0.5 -0.78125 1.359375 -1.203125q0.875 -0.4375 1.921875 -0.4375zm16.283752 4.90625q0 0.484375 -0.0625 1.015625l-8.171875 0q0.09375 1.515625 1.03125 2.375q0.953125 0.84375 2.296875 0.84375q1.09375 0 1.828125 -0.515625q0.75 -0.515625 1.046875 -1.375l1.828125 0q-0.40625 1.484375 -1.640625 2.40625q-1.234375 0.921875 -3.0625 0.921875q-1.453125 0 -2.609375 -0.65625q-1.140625 -0.65625 -1.796875 -1.859375q-0.65625 -1.203125 -0.65625 -2.78125q0 -1.59375 0.640625 -2.78125q0.640625 -1.203125 1.78125 -1.84375q1.140625 -0.640625 2.640625 -0.640625q1.453125 0 2.5625 0.640625q1.125 0.625 1.734375 1.734375q0.609375 1.109375 0.609375 2.515625zm-1.75 -0.359375q0 -0.96875 -0.4375 -1.671875q-0.421875 -0.703125 -1.171875 -1.0625q-0.734375 -0.359375 -1.625 -0.359375q-1.28125 0 -2.1875 0.828125q-0.90625 0.8125 -1.03125 2.265625l6.453125 0zm5.6918793 -2.703125q0.4375 -0.875 1.265625 -1.359375q0.84375 -0.484375 2.03125 -0.484375l0 1.75l-0.453125 0q-2.84375 0 -2.84375 3.09375l0 5.5625l-1.703125 0l0 -10.21875l1.703125 0l0 1.65625zm4.615036 3.40625q0 -1.5625 0.640625 -2.734375q0.640625 -1.1875 1.75 -1.84375q1.109375 -0.65625 2.46875 -0.65625q1.34375 0 2.328125 0.578125q0.984375 0.578125 1.46875 1.453125l0 -1.859375l1.71875 0l0 10.21875l-1.71875 0l0 -1.90625q-0.5 0.90625 -1.5 1.5q-1.0 0.578125 -2.3125 0.578125q-1.375 0 -2.46875 -0.671875q-1.09375 -0.671875 -1.734375 -1.875q-0.640625 -1.21875 -0.640625 -2.78125zm8.65625 0.03125q0 -1.15625 -0.46875 -2.015625q-0.453125 -0.859375 -1.25 -1.3125q-0.796875 -0.46875 -1.75 -0.46875q-0.953125 0 -1.734375 0.453125q-0.78125 0.453125 -1.25 1.3125q-0.46875 0.84375 -0.46875 2.0q0 1.1875 0.46875 2.0625q0.46875 0.859375 1.25 1.3125q0.78125 0.453125 1.734375 0.453125q0.953125 0 1.75 -0.453125q0.796875 -0.453125 1.25 -1.3125q0.46875 -0.875 0.46875 -2.03125zm6.2991333 -8.6875l0 13.8125l-1.703125 0l0 -13.8125l1.703125 0z" fill-rule="nonzero"/><path fill="#000000" d="m65.469284 985.4438q1.1875 0 2.125 0.5q0.9375 0.484375 1.46875 1.484375q0.546875 0.984375 0.546875 2.390625l0 6.03125l-1.6875 0l0 -5.78125q0 -1.53125 -0.75 -2.34375q-0.75 -0.8125 -2.046875 -0.8125q-1.3125 0 -2.109375 0.859375q-0.78125 0.84375 -0.78125 2.4375l0 5.640625l-1.671875 0l0 -5.78125q0 -1.53125 -0.765625 -2.34375q-0.75 -0.8125 -2.03125 -0.8125q-1.328125 0 -2.109375 0.859375q-0.78125 0.84375 -0.78125 2.4375l0 5.640625l-1.703125 0l0 -10.21875l1.703125 0l0 1.46875q0.5 -0.796875 1.34375 -1.21875q0.84375 -0.4375 1.875 -0.4375q1.296875 0 2.28125 0.578125q0.984375 0.578125 1.46875 1.6875q0.4375 -1.078125 1.421875 -1.671875q0.984375 -0.59375 2.203125 -0.59375zm11.372185 10.578125q-1.4375 0 -2.6093674 -0.65625q-1.15625 -0.65625 -1.828125 -1.859375q-0.65625 -1.203125 -0.65625 -2.78125q0 -1.578125 0.6875 -2.78125q0.6875 -1.203125 1.859375 -1.84375q1.1718674 -0.640625 2.6249924 -0.640625q1.453125 0 2.625 0.640625q1.1875 0.640625 1.859375 1.84375q0.6875 1.1875 0.6875 2.78125q0 1.578125 -0.703125 2.78125q-0.703125 1.203125 -1.90625 1.859375q-1.1875 0.65625 -2.640625 0.65625zm0 -1.5q0.921875 0 1.71875 -0.421875q0.796875 -0.4375 1.296875 -1.296875q0.5 -0.859375 0.5 -2.078125q0 -1.234375 -0.484375 -2.09375q-0.484375 -0.859375 -1.28125 -1.28125q-0.78125 -0.421875 -1.6875 -0.421875q-0.9375 0 -1.71875 0.421875q-0.7656174 0.421875 -1.2343674 1.28125q-0.46875 0.859375 -0.46875 2.09375q0 1.25 0.453125 2.109375q0.46875 0.84375 1.2343674 1.265625q0.765625 0.421875 1.671875 0.421875zm6.8462524 -3.828125q0 -1.5625 0.640625 -2.734375q0.640625 -1.1875 1.75 -1.84375q1.109375 -0.65625 2.484375 -0.65625q1.1875 0 2.21875 0.546875q1.03125 0.546875 1.5625 1.453125l0 -5.421875l1.71875 0l0 13.8125l-1.71875 0l0 -1.921875q-0.5 0.921875 -1.484375 1.515625q-0.984375 0.578125 -2.3125 0.578125q-1.359375 0 -2.46875 -0.671875q-1.109375 -0.671875 -1.75 -1.875q-0.640625 -1.21875 -0.640625 -2.78125zm8.65625 0.03125q0 -1.15625 -0.46875 -2.015625q-0.453125 -0.859375 -1.25 -1.3125q-0.796875 -0.46875 -1.75 -0.46875q-0.953125 0 -1.734375 0.453125q-0.78125 0.453125 -1.25 1.3125q-0.46875 0.84375 -0.46875 2.0q0 1.1875 0.46875 2.0625q0.46875 0.859375 1.25 1.3125q0.78125 0.453125 1.734375 0.453125q0.953125 0 1.75 -0.453125q0.796875 -0.453125 1.25 -1.3125q0.46875 -0.875 0.46875 -2.03125zm13.924133 -0.375q0 0.484375 -0.0625 1.015625l-8.171875 0q0.09375 1.515625 1.03125 2.375q0.953125 0.84375 2.296875 0.84375q1.09375 0 1.828125 -0.515625q0.75 -0.515625 1.046875 -1.375l1.828125 0q-0.40625 1.484375 -1.640625 2.40625q-1.234375 0.921875 -3.0625 0.921875q-1.453125 0 -2.609375 -0.65625q-1.140625 -0.65625 -1.796875 -1.859375q-0.65625 -1.203125 -0.65625 -2.78125q0 -1.59375 0.640625 -2.78125q0.640625 -1.203125 1.78125 -1.84375q1.140625 -0.640625 2.640625 -0.640625q1.453125 0 2.5625 0.640625q1.125 0.625 1.734375 1.734375q0.609375 1.109375 0.609375 2.515625zm-1.75 -0.359375q0 -0.96875 -0.4375 -1.671875q-0.421875 -0.703125 -1.171875 -1.0625q-0.734375 -0.359375 -1.625 -0.359375q-1.28125 0 -2.1875 0.828125q-0.90625 0.8125 -1.03125 2.265625l6.453125 0zm5.6918793 -7.953125l0 13.8125l-1.703125 0l0 -13.8125l1.703125 0z" fill-rule="nonzero"/><path fill="#000000" fill-opacity="0.0" d="m152.73622 43.401184l57.732285 48.88189" fill-rule="evenodd"/><path stroke="#000000" stroke-width="1.0" stroke-linejoin="round" stroke-linecap="butt" d="m152.73622 43.401184l55.11679 46.66736" fill-rule="evenodd"/><path fill="#000000" stroke="#000000" stroke-width="1.0" stroke-linecap="butt" d="m207.85301 90.06854l-1.5849457 0.13157654l3.0847473 1.138298l-1.6313629 -2.8548203z" fill-rule="evenodd"/><path fill="#ff7673" fill-opacity="0.4972" d="m517.66626 810.3356l234.66486 0c32.400513 0 58.66626 47.580017 58.66626 106.27295c0 58.692932 -26.265747 106.27295 -58.66626 106.27295l-234.66486 0l0 0c-32.400482 0 -58.66626 -47.580017 -58.66626 -106.27295c0 -58.692932 26.265778 -106.27295 58.66626 -106.27295z" fill-rule="evenodd"/><path fill="#000000" fill-opacity="0.0" d="m752.3311 1022.8815c-32.40045 0 -58.6662 -47.580017 -58.6662 -106.27295c0 -58.692932 26.265747 -106.27295 58.6662 -106.27295" fill-rule="evenodd"/><path fill="#000000" fill-opacity="0.0" d="m517.66626 810.3356l234.66486 0c32.400513 0 58.66626 47.580017 58.66626 106.27295c0 58.692932 -26.265747 106.27295 -58.66626 106.27295l-234.66486 0l0 0c-32.400482 0 -58.66626 -47.580017 -58.66626 -106.27295c0 -58.692932 26.265778 -106.27295 58.66626 -106.27295z" fill-rule="evenodd"/><path stroke="#ffffff" stroke-width="3.0" stroke-linejoin="round" stroke-linecap="butt" d="m752.3311 1022.8815c-32.40045 0 -58.6662 -47.580017 -58.6662 -106.27295c0 -58.692932 26.265747 -106.27295 58.6662 -106.27295" fill-rule="evenodd"/><path stroke="#ffffff" stroke-width="3.0" stroke-linejoin="round" stroke-linecap="butt" d="m517.66626 810.3356l234.66486 0c32.400513 0 58.66626 47.580017 58.66626 106.27295c0 58.692932 -26.265747 106.27295 -58.66626 106.27295l-234.66486 0l0 0c-32.400482 0 -58.66626 -47.580017 -58.66626 -106.27295c0 -58.692932 26.265778 -106.27295 58.66626 -106.27295z" fill-rule="evenodd"/><path fill="#000000" fill-opacity="0.0" d="m152.73622 140.98123l57.732285 -48.69291" fill-rule="evenodd"/><path stroke="#000000" stroke-width="1.0" stroke-linejoin="round" stroke-linecap="butt" d="m152.73622 140.98123l55.11258 -46.483376" fill-rule="evenodd"/><path fill="#000000" stroke="#000000" stroke-width="1.0" stroke-linecap="butt" d="m207.84879 94.497856l-0.13459778 1.5846939l1.6368256 -2.8516998l-3.086914 1.1324081z" fill-rule="evenodd"/><path fill="#000000" fill-opacity="0.0" d="m152.73622 283.07703l64.97638 48.787415" fill-rule="evenodd"/><path stroke="#000000" stroke-width="1.0" stroke-linejoin="round" stroke-linecap="butt" d="m152.73622 283.07703l62.235825 46.729675" fill-rule="evenodd"/><path fill="#000000" stroke="#000000" stroke-width="1.0" stroke-linecap="butt" d="m214.97205 329.8067l-1.5745392 0.22406006l3.1460419 0.9559021l-1.7955627 -2.7545166z" fill-rule="evenodd"/><path fill="#000000" fill-opacity="0.0" d="m152.73622 380.6571l64.97638 -48.787415" fill-rule="evenodd"/><path stroke="#000000" stroke-width="1.0" stroke-linejoin="round" stroke-linecap="butt" d="m152.73622 380.65707l62.235825 -46.729645" fill-rule="evenodd"/><path fill="#000000" stroke="#000000" stroke-width="1.0" stroke-linecap="butt" d="m214.97205 333.92743l-0.22406006 1.5745239l1.7955627 -2.754486l-3.1460419 0.9559021z" fill-rule="evenodd"/><path fill="#000000" fill-opacity="0.0" d="m152.73622 551.7017l57.732285 54.58264" fill-rule="evenodd"/><path stroke="#000000" stroke-width="1.0" stroke-linejoin="round" stroke-linecap="butt" d="m152.73622 551.70166l55.24199 52.22827" fill-rule="evenodd"/><path fill="#000000" stroke="#000000" stroke-width="1.0" stroke-linecap="butt" d="m207.97821 603.92993l-1.5897827 0.044555664l3.0177917 1.305542l-1.4725952 -2.9398804z" fill-rule="evenodd"/><path fill="#000000" fill-opacity="0.0" d="m152.73622 674.34735l57.732285 -68.06299" fill-rule="evenodd"/><path stroke="#000000" stroke-width="1.0" stroke-linejoin="round" stroke-linecap="butt" d="m152.73622 674.34735l55.51544 -65.44946" fill-rule="evenodd"/><path fill="#000000" stroke="#000000" stroke-width="1.0" stroke-linecap="butt" d="m208.25166 608.8979l0.13017273 1.585083l1.1410217 -3.0837402l-2.8562622 1.6288452z" fill-rule="evenodd"/><path fill="#000000" fill-opacity="0.0" d="m152.73622 855.28436l64.97638 61.322876" fill-rule="evenodd"/><path stroke="#000000" stroke-width="1.0" stroke-linejoin="round" stroke-linecap="butt" d="m152.73622 855.28436l62.48401 58.970642" fill-rule="evenodd"/><path fill="#000000" stroke="#000000" stroke-width="1.0" stroke-linecap="butt" d="m215.22023 914.25494l-1.5897369 0.046020508l3.018921 1.3028564l-1.475174 -2.9385986z" fill-rule="evenodd"/><path fill="#ff7673" fill-opacity="0.4972" d="m269.12292 500.00485l234.66492 0c32.40045 0 58.6662 47.580048 58.6662 106.27298c0 58.692932 -26.265747 106.27295 -58.6662 106.27295l-234.66492 0l0 0c-32.400467 0 -58.66623 -47.580017 -58.66623 -106.27295c0 -58.692932 26.265762 -106.27298 58.66623 -106.27298z" fill-rule="evenodd"/><path fill="#000000" fill-opacity="0.0" d="m503.78784 712.5508c-32.40045 0 -58.66623 -47.580017 -58.66623 -106.27295c0 -58.692932 26.265778 -106.27298 58.66623 -106.27298" fill-rule="evenodd"/><path fill="#000000" fill-opacity="0.0" d="m269.12292 500.00485l234.66492 0c32.40045 0 58.6662 47.580048 58.6662 106.27298c0 58.692932 -26.265747 106.27295 -58.6662 106.27295l-234.66492 0l0 0c-32.400467 0 -58.66623 -47.580017 -58.66623 -106.27295c0 -58.692932 26.265762 -106.27298 58.66623 -106.27298z" fill-rule="evenodd"/><path stroke="#ffffff" stroke-width="3.0" stroke-linejoin="round" stroke-linecap="butt" d="m503.78784 712.5508c-32.40045 0 -58.66623 -47.580017 -58.66623 -106.27295c0 -58.692932 26.265778 -106.27298 58.66623 -106.27298" fill-rule="evenodd"/><path stroke="#ffffff" stroke-width="3.0" stroke-linejoin="round" stroke-linecap="butt" d="m269.12292 500.00485l234.66492 0c32.40045 0 58.6662 47.580048 58.6662 106.27298c0 58.692932 -26.265747 106.27295 -58.6662 106.27295l-234.66492 0l0 0c-32.400467 0 -58.66623 -47.580017 -58.66623 -106.27295c0 -58.692932 26.265762 -106.27298 58.66623 -106.27298z" fill-rule="evenodd"/><path fill="#ffffff" d="m282.46667 524.4561l4.1875 0l0 2.46875l-7.375 0l0 -13.09375l3.1875 0l0 10.625zm5.0708923 -2.75q0 -1.609375 0.609375 -2.8125q0.609375 -1.21875 1.65625 -1.875q1.046875 -0.65625 2.328125 -0.65625q1.109375 0 1.9375 0.453125q0.828125 0.453125 1.28125 1.171875l0 -1.46875l3.1875 0l0 10.40625l-3.1875 0l0 -1.46875q-0.46875 0.71875 -1.3125 1.171875q-0.828125 0.453125 -1.921875 0.453125q-1.265625 0 -2.3125 -0.65625q-1.046875 -0.671875 -1.65625 -1.890625q-0.609375 -1.234375 -0.609375 -2.828125zm7.8125 0.015625q0 -1.203125 -0.671875 -1.890625q-0.65625 -0.6875 -1.609375 -0.6875q-0.953125 0 -1.625 0.6875q-0.65625 0.671875 -0.65625 1.875q0 1.1875 0.65625 1.890625q0.671875 0.703125 1.625 0.703125q0.953125 0 1.609375 -0.6875q0.671875 -0.703125 0.671875 -1.890625zm8.683228 -3.734375q0.453125 -0.71875 1.28125 -1.171875q0.84375 -0.453125 1.9375 -0.453125q1.28125 0 2.328125 0.65625q1.046875 0.65625 1.640625 1.875q0.609375 1.203125 0.609375 2.8125q0 1.59375 -0.609375 2.828125q-0.59375 1.21875 -1.640625 1.890625q-1.046875 0.65625 -2.328125 0.65625q-1.109375 0 -1.9375 -0.4375q-0.8125 -0.453125 -1.28125 -1.171875l0 1.453125l-3.1875 0l0 -13.8125l3.1875 0l0 4.875zm4.5625 3.71875q0 -1.203125 -0.671875 -1.875q-0.65625 -0.6875 -1.625 -0.6875q-0.953125 0 -1.625 0.6875q-0.65625 0.6875 -0.65625 1.890625q0 1.1875 0.65625 1.890625q0.671875 0.6875 1.625 0.6875q0.953125 0 1.625 -0.703125q0.671875 -0.703125 0.671875 -1.890625zm14.730103 -0.15625q0 0.453125 -0.0625 0.9375l-7.21875 0q0.078125 0.96875 0.625 1.484375q0.5625 0.515625 1.359375 0.515625q1.1875 0 1.65625 -1.015625l3.40625 0q-0.265625 1.03125 -0.953125 1.859375q-0.671875 0.8125 -1.703125 1.28125q-1.03125 0.46875 -2.296875 0.46875q-1.53125 0 -2.734375 -0.65625q-1.1875 -0.65625 -1.859375 -1.859375q-0.671875 -1.21875 -0.671875 -2.84375q0 -1.625 0.65625 -2.828125q0.671875 -1.21875 1.859375 -1.875q1.203125 -0.65625 2.75 -0.65625q1.515625 0 2.6875 0.640625q1.171875 0.625 1.828125 1.8125q0.671875 1.171875 0.671875 2.734375zm-3.265625 -0.84375q0 -0.8125 -0.5625 -1.296875q-0.5625 -0.484375 -1.390625 -0.484375q-0.8125 0 -1.359375 0.46875q-0.546875 0.453125 -0.671875 1.3125l3.984375 0zm8.132874 -7.59375l0 13.8125l-3.1875 0l0 -13.8125l3.1875 0zm12.128601 8.4375q0 0.453125 -0.0625 0.9375l-7.21875 0q0.078125 0.96875 0.625 1.484375q0.5625 0.515625 1.359375 0.515625q1.1875 0 1.65625 -1.015625l3.40625 0q-0.265625 1.03125 -0.953125 1.859375q-0.671875 0.8125 -1.703125 1.28125q-1.03125 0.46875 -2.296875 0.46875q-1.53125 0 -2.734375 -0.65625q-1.1875 -0.65625 -1.859375 -1.859375q-0.671875 -1.21875 -0.671875 -2.84375q0 -1.625 0.65625 -2.828125q0.671875 -1.21875 1.859375 -1.875q1.203125 -0.65625 2.75 -0.65625q1.515625 0 2.6875 0.640625q1.171875 0.625 1.828125 1.8125q0.671875 1.171875 0.671875 2.734375zm-3.265625 -0.84375q0 -0.8125 -0.5625 -1.296875q-0.5625 -0.484375 -1.390625 -0.484375q-0.8125 0 -1.359375 0.46875q-0.546875 0.453125 -0.671875 1.3125l3.984375 0zm8.132874 -2.453125q0.5625 -0.859375 1.390625 -1.34375q0.84375 -0.5 1.875 -0.5l0 3.375l-0.875 0q-1.1875 0 -1.796875 0.515625q-0.59375 0.5 -0.59375 1.796875l0 4.828125l-3.1875 0l0 -10.40625l3.1875 0l0 1.734375z" fill-rule="nonzero"/><path fill="#000000" fill-opacity="0.0" d="m152.73622 977.93005l64.97638 -61.322815" fill-rule="evenodd"/><path stroke="#000000" stroke-width="1.0" stroke-linejoin="round" stroke-linecap="butt" d="m152.73622 977.93005l62.48401 -58.970642" fill-rule="evenodd"/><path fill="#000000" stroke="#000000" stroke-width="1.0" stroke-linecap="butt" d="m215.22023 918.9594l-0.04598999 1.5897827l1.475174 -2.9385986l-3.018921 1.3028564z" fill-rule="evenodd"/><path fill="#000000" fill-opacity="0.0" d="m282.35657 588.26996l314.96063 0l0 314.96063l-314.96063 0z" fill-rule="evenodd"/><path fill="#ffffff" d="m301.9347 602.0962l0 2.546875l-3.46875 0l0 10.546875l-3.1875 0l0 -10.546875l-3.46875 0l0 -2.546875l10.125 0zm11.885223 2.6875l0 10.40625l-3.1875 0l0 -1.421875q-0.484375 0.6875 -1.328125 1.109375q-0.828125 0.421875 -1.828125 0.421875q-1.1875 0 -2.109375 -0.53125q-0.90625 -0.53125 -1.421875 -1.53125q-0.5 -1.015625 -0.5 -2.375l0 -6.078125l3.171875 0l0 5.65625q0 1.03125 0.53125 1.609375q0.546875 0.578125 1.46875 0.578125q0.921875 0 1.46875 -0.578125q0.546875 -0.578125 0.546875 -1.609375l0 -5.65625l3.1875 0zm8.63681 -0.109375q1.828125 0 2.921875 1.1875q1.09375 1.171875 1.09375 3.25l0 6.078125l-3.171875 0l0 -5.65625q0 -1.046875 -0.546875 -1.625q-0.546875 -0.578125 -1.453125 -0.578125q-0.921875 0 -1.46875 0.578125q-0.53125 0.578125 -0.53125 1.625l0 5.65625l-3.1875 0l0 -10.40625l3.1875 0l0 1.375q0.484375 -0.6875 1.296875 -1.078125q0.828125 -0.40625 1.859375 -0.40625zm16.04306 5.140625q0 0.453125 -0.0625 0.9375l-7.21875 0q0.078125 0.96875 0.625 1.484375q0.5625 0.515625 1.359375 0.515625q1.1875 0 1.65625 -1.015625l3.40625 0q-0.265625 1.03125 -0.953125 1.859375q-0.671875 0.8125 -1.703125 1.28125q-1.03125 0.46875 -2.296875 0.46875q-1.53125 0 -2.734375 -0.65625q-1.1875 -0.65625 -1.859375 -1.859375q-0.671875 -1.21875 -0.671875 -2.84375q0 -1.625 0.65625 -2.828125q0.671875 -1.21875 1.859375 -1.875q1.203125 -0.65625 2.75 -0.65625q1.515625 0 2.6875 0.640625q1.171875 0.625 1.828125 1.8125q0.671875 1.171875 0.671875 2.734375zm-3.265625 -0.84375q0 -0.8125 -0.5625 -1.296875q-0.5625 -0.484375 -1.390625 -0.484375q-0.8125 0 -1.359375 0.46875q-0.546875 0.453125 -0.671875 1.3125l3.984375 0zm8.132874 -2.453125q0.5625 -0.859375 1.390625 -1.34375q0.84375 -0.5 1.875 -0.5l0 3.375l-0.875 0q-1.1875 0 -1.796875 0.515625q-0.59375 0.5 -0.59375 1.796875l0 4.828125l-3.1875 0l0 -10.40625l3.1875 0l0 1.734375z" fill-rule="nonzero"/><path fill="#ff7673" fill-opacity="0.4972" d="m276.39325 810.3356l234.66492 0c32.40045 0 58.66626 47.580017 58.66626 106.27295c0 58.692932 -26.265808 106.27295 -58.66626 106.27295l-234.66492 0l0 0c-32.40045 0 -58.666214 -47.580017 -58.666214 -106.27295c0 -58.692932 26.265762 -106.27295 58.666214 -106.27295z" fill-rule="evenodd"/><path fill="#000000" fill-opacity="0.0" d="m511.05817 1022.8815c-32.40045 0 -58.66623 -47.580017 -58.66623 -106.27295c0 -58.692932 26.265778 -106.27295 58.66623 -106.27295" fill-rule="evenodd"/><path fill="#000000" fill-opacity="0.0" d="m276.39325 810.3356l234.66492 0c32.40045 0 58.66626 47.580017 58.66626 106.27295c0 58.692932 -26.265808 106.27295 -58.66626 106.27295l-234.66492 0l0 0c-32.40045 0 -58.666214 -47.580017 -58.666214 -106.27295c0 -58.692932 26.265762 -106.27295 58.666214 -106.27295z" fill-rule="evenodd"/><path fill="#ffffff" d="m289.737 834.7868l4.1875 0l0 2.46875l-7.375 0l0 -13.09375l3.1875 0l0 10.625zm5.070923 -2.75q0 -1.609375 0.609375 -2.8125q0.609375 -1.21875 1.65625 -1.875q1.046875 -0.65625 2.328125 -0.65625q1.109375 0 1.9375 0.453125q0.828125 0.453125 1.28125 1.171875l0 -1.46875l3.1875 0l0 10.40625l-3.1875 0l0 -1.46875q-0.46875 0.71875 -1.3125 1.171875q-0.828125 0.453125 -1.921875 0.453125q-1.265625 0 -2.3125 -0.65625q-1.046875 -0.671875 -1.65625 -1.890625q-0.609375 -1.234375 -0.609375 -2.828125zm7.8125 0.015625q0 -1.203125 -0.671875 -1.890625q-0.65625 -0.6875 -1.609375 -0.6875q-0.953125 0 -1.625 0.6875q-0.65625 0.671875 -0.65625 1.875q0 1.1875 0.65625 1.890625q0.671875 0.703125 1.625 0.703125q0.953125 0 1.609375 -0.6875q0.671875 -0.703125 0.671875 -1.890625zm8.683228 -3.734375q0.453125 -0.71875 1.28125 -1.171875q0.84375 -0.453125 1.9375 -0.453125q1.28125 0 2.328125 0.65625q1.046875 0.65625 1.640625 1.875q0.609375 1.203125 0.609375 2.8125q0 1.59375 -0.609375 2.828125q-0.59375 1.21875 -1.640625 1.890625q-1.046875 0.65625 -2.328125 0.65625q-1.109375 0 -1.9375 -0.4375q-0.8125 -0.453125 -1.28125 -1.171875l0 1.453125l-3.1875 0l0 -13.8125l3.1875 0l0 4.875zm4.5625 3.71875q0 -1.203125 -0.671875 -1.875q-0.65625 -0.6875 -1.625 -0.6875q-0.953125 0 -1.625 0.6875q-0.65625 0.6875 -0.65625 1.890625q0 1.1875 0.65625 1.890625q0.671875 0.6875 1.625 0.6875q0.953125 0 1.625 -0.703125q0.671875 -0.703125 0.671875 -1.890625zm14.730103 -0.15625q0 0.453125 -0.0625 0.9375l-7.21875 0q0.078125 0.96875 0.625 1.484375q0.5625 0.515625 1.359375 0.515625q1.1875 0 1.65625 -1.015625l3.40625 0q-0.265625 1.03125 -0.953125 1.859375q-0.671875 0.8125 -1.703125 1.28125q-1.03125 0.46875 -2.296875 0.46875q-1.53125 0 -2.734375 -0.65625q-1.1875 -0.65625 -1.859375 -1.859375q-0.671875 -1.21875 -0.671875 -2.84375q0 -1.625 0.65625 -2.828125q0.671875 -1.21875 1.859375 -1.875q1.203125 -0.65625 2.75 -0.65625q1.515625 0 2.6875 0.640625q1.171875 0.625 1.828125 1.8125q0.671875 1.171875 0.671875 2.734375zm-3.265625 -0.84375q0 -0.8125 -0.5625 -1.296875q-0.5625 -0.484375 -1.390625 -0.484375q-0.8125 0 -1.359375 0.46875q-0.546875 0.453125 -0.671875 1.3125l3.984375 0zm8.132874 -7.59375l0 13.8125l-3.1875 0l0 -13.8125l3.1875 0zm12.128601 8.4375q0 0.453125 -0.0625 0.9375l-7.21875 0q0.078125 0.96875 0.625 1.484375q0.5625 0.515625 1.359375 0.515625q1.1875 0 1.65625 -1.015625l3.40625 0q-0.265625 1.03125 -0.953125 1.859375q-0.671875 0.8125 -1.703125 1.28125q-1.03125 0.46875 -2.296875 0.46875q-1.53125 0 -2.734375 -0.65625q-1.1875 -0.65625 -1.859375 -1.859375q-0.671875 -1.21875 -0.671875 -2.84375q0 -1.625 0.65625 -2.828125q0.671875 -1.21875 1.859375 -1.875q1.203125 -0.65625 2.75 -0.65625q1.515625 0 2.6875 0.640625q1.171875 0.625 1.828125 1.8125q0.671875 1.171875 0.671875 2.734375zm-3.265625 -0.84375q0 -0.8125 -0.5625 -1.296875q-0.5625 -0.484375 -1.390625 -0.484375q-0.8125 0 -1.359375 0.46875q-0.546875 0.453125 -0.671875 1.3125l3.984375 0zm8.132874 -2.453125q0.5625 -0.859375 1.390625 -1.34375q0.84375 -0.5 1.875 -0.5l0 3.375l-0.875 0q-1.1875 0 -1.796875 0.515625q-0.59375 0.5 -0.59375 1.796875l0 4.828125l-3.1875 0l0 -10.40625l3.1875 0l0 1.734375z" fill-rule="nonzero"/><path fill="#000000" fill-opacity="0.0" d="m272.2234 895.6907l314.96063 0l0 314.9607l-314.96063 0z" fill-rule="evenodd"/><path fill="#ffffff" d="m291.8015 909.5169l0 2.546875l-3.46875 0l0 10.546875l-3.1875 0l0 -10.546875l-3.46875 0l0 -2.546875l10.125 0zm0.9633484 7.875q0 -1.609375 0.609375 -2.8125q0.609375 -1.21875 1.65625 -1.875q1.046875 -0.65625 2.328125 -0.65625q1.109375 0 1.9375 0.453125q0.828125 0.453125 1.28125 1.171875l0 -1.46875l3.1875 0l0 10.40625l-3.1875 0l0 -1.46875q-0.46875 0.71875 -1.3125 1.171875q-0.828125 0.453125 -1.921875 0.453125q-1.265625 0 -2.3125 -0.65625q-1.046875 -0.671875 -1.65625 -1.890625q-0.609375 -1.234375 -0.609375 -2.828125zm7.8125 0.015625q0 -1.203125 -0.671875 -1.890625q-0.65625 -0.6875 -1.609375 -0.6875q-0.953125 0 -1.625 0.6875q-0.65625 0.671875 -0.65625 1.875q0 1.1875 0.65625 1.890625q0.671875 0.703125 1.625 0.703125q0.953125 0 1.609375 -0.6875q0.671875 -0.703125 0.671875 -1.890625zm7.1051025 -6.296875q-0.84375 0 -1.375 -0.484375q-0.53125 -0.5 -0.53125 -1.21875q0 -0.75 0.53125 -1.234375q0.53125 -0.5 1.375 -0.5q0.8125 0 1.34375 0.5q0.53125 0.484375 0.53125 1.234375q0 0.71875 -0.53125 1.21875q-0.53125 0.484375 -1.34375 0.484375zm1.578125 1.09375l0 10.40625l-3.1875 0l0 -10.40625l3.1875 0zm5.503601 -3.40625l0 13.8125l-3.1875 0l0 -13.8125l3.1875 0zm7.050476 13.96875q-1.53125 0 -2.75 -0.65625q-1.21875 -0.65625 -1.921875 -1.859375q-0.703125 -1.21875 -0.703125 -2.84375q0 -1.609375 0.703125 -2.828125q0.71875 -1.21875 1.953125 -1.875q1.234375 -0.65625 2.765625 -0.65625q1.53125 0 2.75 0.65625q1.234375 0.65625 1.9375 1.875q0.71875 1.21875 0.71875 2.828125q0 1.609375 -0.71875 2.828125q-0.71875 1.21875 -1.96875 1.875q-1.234375 0.65625 -2.765625 0.65625zm0 -2.765625q0.921875 0 1.5625 -0.671875q0.640625 -0.671875 0.640625 -1.921875q0 -1.25 -0.625 -1.921875q-0.625 -0.671875 -1.53125 -0.671875q-0.9375 0 -1.5625 0.671875q-0.609375 0.65625 -0.609375 1.921875q0 1.25 0.609375 1.921875q0.609375 0.671875 1.515625 0.671875zm10.337158 -6.0625q0.5625 -0.859375 1.390625 -1.34375q0.84375 -0.5 1.875 -0.5l0 3.375l-0.875 0q-1.1875 0 -1.796875 0.515625q-0.59375 0.5 -0.59375 1.796875l0 4.828125l-3.1875 0l0 -10.40625l3.1875 0l0 1.734375z" fill-rule="nonzero"/><path fill="#000000" fill-opacity="0.0" d="m479.05414 895.6907l314.96063 0l0 314.9607l-314.96063 0z" fill-rule="evenodd"/><path fill="#ffffff" d="m498.63226 909.5169l0 2.546875l-3.46875 0l0 10.546875l-3.1875 0l0 -10.546875l-3.46875 0l0 -2.546875l10.125 0zm11.885223 2.6875l0 10.40625l-3.1875 0l0 -1.421875q-0.484375 0.6875 -1.328125 1.109375q-0.828125 0.421875 -1.828125 0.421875q-1.1875 0 -2.109375 -0.53125q-0.90625 -0.53125 -1.421875 -1.53125q-0.5 -1.015625 -0.5 -2.375l0 -6.078125l3.171875 0l0 5.65625q0 1.03125 0.53125 1.609375q0.546875 0.578125 1.46875 0.578125q0.921875 0 1.46875 -0.578125q0.546875 -0.578125 0.546875 -1.609375l0 -5.65625l3.1875 0zm8.63681 -0.109375q1.828125 0 2.921875 1.1875q1.09375 1.171875 1.09375 3.25l0 6.078125l-3.171875 0l0 -5.65625q0 -1.046875 -0.546875 -1.625q-0.546875 -0.578125 -1.453125 -0.578125q-0.921875 0 -1.46875 0.578125q-0.53125 0.578125 -0.53125 1.625l0 5.65625l-3.1875 0l0 -10.40625l3.1875 0l0 1.375q0.484375 -0.6875 1.296875 -1.078125q0.828125 -0.40625 1.859375 -0.40625zm16.04309 5.140625q0 0.453125 -0.0625 0.9375l-7.21875 0q0.078125 0.96875 0.625 1.484375q0.5625 0.515625 1.359375 0.515625q1.1875 0 1.65625 -1.015625l3.40625 0q-0.265625 1.03125 -0.953125 1.859375q-0.671875 0.8125 -1.703125 1.28125q-1.03125 0.46875 -2.296875 0.46875q-1.53125 0 -2.734375 -0.65625q-1.1875 -0.65625 -1.859375 -1.859375q-0.671875 -1.21875 -0.671875 -2.84375q0 -1.625 0.65625 -2.828125q0.671875 -1.21875 1.859375 -1.875q1.203125 -0.65625 2.75 -0.65625q1.515625 0 2.6875 0.640625q1.171875 0.625 1.828125 1.8125q0.671875 1.171875 0.671875 2.734375zm-3.265625 -0.84375q0 -0.8125 -0.5625 -1.296875q-0.5625 -0.484375 -1.390625 -0.484375q-0.8125 0 -1.359375 0.46875q-0.546875 0.453125 -0.671875 1.3125l3.984375 0zm8.132874 -2.453125q0.5625 -0.859375 1.390625 -1.34375q0.84375 -0.5 1.875 -0.5l0 3.375l-0.875 0q-1.1875 0 -1.796875 0.515625q-0.59375 0.5 -0.59375 1.796875l0 4.828125l-3.1875 0l0 -10.40625l3.1875 0l0 1.734375z" fill-rule="nonzero"/></g></svg>