<svg version="1.1" viewBox="0.0 0.0 960.0 720.0" fill="none" stroke="none" stroke-linecap="square" stroke-miterlimit="10" xmlns:xlink="http://www.w3.org/1999/xlink" xmlns="http://www.w3.org/2000/svg"><clipPath id="p.0"><path d="m0 0l960.0 0l0 720.0l-960.0 0l0 -720.0z" clip-rule="nonzero"/></clipPath><g clip-path="url(#p.0)"><path fill="#000000" fill-opacity="0.0" d="m0 0l960.0 0l0 720.0l-960.0 0z" fill-rule="evenodd"/><path fill="#32c8cd" fill-opacity="0.6313" d="m69.091866 159.08662l5.451439 0l0 127.27821l-5.451439 0z" fill-rule="evenodd"/><path fill="#279fa3" fill-opacity="0.6313" d="m74.543304 159.08662l73.63518 -73.63518l0 127.27821l-73.63518 73.63518z" fill-rule="evenodd"/><path fill="#5bd3d7" fill-opacity="0.6313" d="m69.091866 159.08662l73.63517 -73.63518l5.4514465 0l-73.63518 73.63518z" fill-rule="evenodd"/><path fill="#000000" fill-opacity="0.0" d="m69.091866 159.08662l73.63517 -73.63518l5.4514465 0l0 127.27821l-73.63518 73.63518l-5.451439 0zm0 0l5.451439 0l73.63518 -73.63518m-73.63518 73.63518l0 127.27821" fill-rule="evenodd"/><path stroke="#ffffff" stroke-width="1.0" stroke-linejoin="round" stroke-linecap="butt" d="m69.091866 159.08662l73.63517 -73.63518l5.4514465 0l0 127.27821l-73.63518 73.63518l-5.451439 0zm0 0l5.451439 0l73.63518 -73.63518m-73.63518 73.63518l0 127.27821" fill-rule="evenodd"/><path fill="#32c8cd" fill-opacity="0.6313" d="m103.381325 159.08662l5.4514465 0l0 127.27821l-5.4514465 0z" fill-rule="evenodd"/><path fill="#279fa3" fill-opacity="0.6313" d="m108.83277 159.08662l73.63517 -73.63518l0 127.27821l-73.63517 73.63518z" fill-rule="evenodd"/><path fill="#5bd3d7" fill-opacity="0.6313" d="m103.381325 159.08662l73.63517 -73.63518l5.4514465 0l-73.63517 73.63518z" fill-rule="evenodd"/><path fill="#000000" fill-opacity="0.0" d="m103.381325 159.08662l73.63517 -73.63518l5.4514465 0l0 127.27821l-73.63517 73.63518l-5.4514465 0zm0 0l5.4514465 0l73.63517 -73.63518m-73.63517 73.63518l0 127.27821" fill-rule="evenodd"/><path stroke="#ffffff" stroke-width="1.0" stroke-linejoin="round" stroke-linecap="butt" d="m103.381325 159.08662l73.63517 -73.63518l5.4514465 0l0 127.27821l-73.63517 73.63518l-5.4514465 0zm0 0l5.4514465 0l73.63517 -73.63518m-73.63517 73.63518l0 127.27821" fill-rule="evenodd"/><path fill="#32c8cd" fill-opacity="0.6313" d="m137.67079 159.08662l5.4514465 0l0 127.27821l-5.4514465 0z" fill-rule="evenodd"/><path fill="#279fa3" fill-opacity="0.6313" d="m143.12224 159.08662l73.63516 -73.63518l0 127.27821l-73.63516 73.63518z" fill-rule="evenodd"/><path fill="#5bd3d7" fill-opacity="0.6313" d="m137.67079 159.08662l73.63518 -73.63518l5.4514313 0l-73.63516 73.63518z" fill-rule="evenodd"/><path fill="#000000" fill-opacity="0.0" d="m137.67079 159.08662l73.63518 -73.63518l5.4514313 0l0 127.27821l-73.63516 73.63518l-5.4514465 0zm0 0l5.4514465 0l73.63516 -73.63518m-73.63516 73.63518l0 127.27821" fill-rule="evenodd"/><path stroke="#ffffff" stroke-width="1.0" stroke-linejoin="round" stroke-linecap="butt" d="m137.67079 159.08662l73.63518 -73.63518l5.4514313 0l0 127.27821l-73.63516 73.63518l-5.4514465 0zm0 0l5.4514465 0l73.63516 -73.63518m-73.63516 73.63518l0 127.27821" fill-rule="evenodd"/><path fill="#32c8cd" fill-opacity="0.6313" d="m171.96025 199.5433l5.4514465 0l0 46.364838l-5.4514465 0z" fill-rule="evenodd"/><path fill="#279fa3" fill-opacity="0.6313" d="m177.4117 199.5433l73.63518 -73.63517l0 46.36483l-73.63518 73.63518z" fill-rule="evenodd"/><path fill="#5bd3d7" fill-opacity="0.6313" d="m171.96025 199.5433l73.63518 -73.63517l5.4514465 0l-73.63518 73.63517z" fill-rule="evenodd"/><path fill="#000000" fill-opacity="0.0" d="m171.96025 199.5433l73.63518 -73.63517l5.4514465 0l0 46.36483l-73.63518 73.63518l-5.4514465 0zm0 0l5.4514465 0l73.63518 -73.63517m-73.63518 73.63517l0 46.364838" fill-rule="evenodd"/><path stroke="#ffffff" stroke-width="1.0" stroke-linejoin="round" stroke-linecap="butt" d="m171.96025 199.5433l73.63518 -73.63517l5.4514465 0l0 46.36483l-73.63518 73.63518l-5.4514465 0zm0 0l5.4514465 0l73.63518 -73.63517m-73.63518 73.63517l0 46.364838" fill-rule="evenodd"/><path fill="#32c8cd" fill-opacity="0.6313" d="m234.26622 178.06564l2.0157318 0l0 34.551147l-2.0157318 0z" fill-rule="evenodd"/><path fill="#279fa3" fill-opacity="0.6313" d="m236.28195 178.06564l18.86615 -18.866165l0 34.551163l-18.86615 18.86615z" fill-rule="evenodd"/><path fill="#5bd3d7" fill-opacity="0.6313" d="m234.26622 178.06564l18.866165 -18.866165l2.0157166 0l-18.86615 18.866165z" fill-rule="evenodd"/><path fill="#000000" fill-opacity="0.0" d="m234.26622 178.06564l18.866165 -18.866165l2.0157166 0l0 34.551163l-18.86615 18.86615l-2.0157318 0zm0 0l2.0157318 0l18.86615 -18.866165m-18.86615 18.866165l0 34.551147" fill-rule="evenodd"/><path stroke="#ffffff" stroke-width="1.0" stroke-linejoin="round" stroke-linecap="butt" d="m234.26622 178.06564l18.866165 -18.866165l2.0157166 0l0 34.551163l-18.86615 18.86615l-2.0157318 0zm0 0l2.0157318 0l18.86615 -18.866165m-18.86615 18.866165l0 34.551147" fill-rule="evenodd"/><path fill="#32c8cd" fill-opacity="0.6313" d="m239.1121 199.5433l5.4514465 0l0 46.364838l-5.4514465 0z" fill-rule="evenodd"/><path fill="#279fa3" fill-opacity="0.6313" d="m244.56355 199.5433l73.63518 -73.63517l0 46.36483l-73.63518 73.63518z" fill-rule="evenodd"/><path fill="#5bd3d7" fill-opacity="0.6313" d="m239.1121 199.5433l73.63518 -73.63517l5.4514465 0l-73.63518 73.63517z" fill-rule="evenodd"/><path fill="#000000" fill-opacity="0.0" d="m239.1121 199.5433l73.63518 -73.63517l5.4514465 0l0 46.36483l-73.63518 73.63518l-5.4514465 0zm0 0l5.4514465 0l73.63518 -73.63517m-73.63518 73.63517l0 46.364838" fill-rule="evenodd"/><path stroke="#ffffff" stroke-width="1.0" stroke-linejoin="round" stroke-linecap="butt" d="m239.1121 199.5433l73.63518 -73.63517l5.4514465 0l0 46.36483l-73.63518 73.63518l-5.4514465 0zm0 0l5.4514465 0l73.63518 -73.63517m-73.63518 73.63517l0 46.364838" fill-rule="evenodd"/><path fill="#32c8cd" fill-opacity="0.6313" d="m260.93176 159.08662l5.4514465 0l0 127.27821l-5.4514465 0z" fill-rule="evenodd"/><path fill="#279fa3" fill-opacity="0.6313" d="m266.3832 159.08662l73.63516 -73.63518l0 127.27821l-73.63516 73.63518z" fill-rule="evenodd"/><path fill="#5bd3d7" fill-opacity="0.6313" d="m260.93176 159.08662l73.63516 -73.63518l5.4514465 0l-73.63516 73.63518z" fill-rule="evenodd"/><path fill="#000000" fill-opacity="0.0" d="m260.93176 159.08662l73.63516 -73.63518l5.4514465 0l0 127.27821l-73.63516 73.63518l-5.4514465 0zm0 0l5.4514465 0l73.63516 -73.63518m-73.63516 73.63518l0 127.27821" fill-rule="evenodd"/><path stroke="#ffffff" stroke-width="1.0" stroke-linejoin="round" stroke-linecap="butt" d="m260.93176 159.08662l73.63516 -73.63518l5.4514465 0l0 127.27821l-73.63516 73.63518l-5.4514465 0zm0 0l5.4514465 0l73.63516 -73.63518m-73.63516 73.63518l0 127.27821" fill-rule="evenodd"/><path fill="#000000" fill-opacity="0.0" d="m92.408134 3.8530183l219.21259 0l0 28.094488l-219.21259 0z" fill-rule="evenodd"/><path fill="#000000" d="m144.83891 21.538641q-0.5625 -1.28125 -1.703125 -2.015625q-1.140625 -0.75 -2.703125 -0.75q-1.453125 0 -2.609375 0.671875q-1.15625 0.671875 -1.828125 1.921875q-0.671875 1.234375 -0.671875 2.875q0 1.640625 0.671875 2.890625q0.671875 1.25 1.828125 1.921875q1.15625 0.671875 2.609375 0.671875q1.375 0 2.453125 -0.578125q1.09375 -0.59375 1.75 -1.6875q0.671875 -1.09375 0.765625 -2.546875l-5.484375 0l0 -1.0625l6.859375 0l0 0.953125q-0.09375 1.71875 -0.9375 3.109375q-0.828125 1.390625 -2.234375 2.1875q-1.40625 0.796875 -3.171875 0.796875q-1.796875 0 -3.28125 -0.84375q-1.46875 -0.84375 -2.328125 -2.359375q-0.84375 -1.53125 -0.84375 -3.453125q0 -1.921875 0.84375 -3.4375q0.859375 -1.53125 2.328125 -2.375q1.484375 -0.84375 3.28125 -0.84375q2.09375 0 3.65625 1.046875q1.578125 1.046875 2.28125 2.90625l-1.53125 0zm13.542313 3.625q0 0.671875 -0.03125 1.015625l-8.453125 0q0.0625 1.15625 0.5625 1.984375q0.5 0.8125 1.3125 1.234375q0.828125 0.421875 1.796875 0.421875q1.265625 0 2.140625 -0.609375q0.875 -0.625 1.140625 -1.671875l1.390625 0q-0.375 1.5 -1.59375 2.453125q-1.21875 0.9375 -3.078125 0.9375q-1.4375 0 -2.578125 -0.640625q-1.125 -0.65625 -1.78125 -1.828125q-0.640625 -1.1875 -0.640625 -2.78125q0 -1.578125 0.640625 -2.765625q0.640625 -1.203125 1.765625 -1.828125q1.140625 -0.640625 2.59375 -0.640625q1.453125 0 2.546875 0.640625q1.09375 0.625 1.671875 1.703125q0.59375 1.0625 0.59375 2.375zm-1.3125 -0.046875q0.015625 -1.140625 -0.46875 -1.9375q-0.46875 -0.796875 -1.296875 -1.203125q-0.8125 -0.421875 -1.78125 -0.421875q-1.453125 0 -2.484375 0.9375q-1.03125 0.9375 -1.140625 2.625l7.171875 0zm8.479187 -4.71875q1.828125 0 2.984375 1.140625q1.15625 1.125 1.15625 3.265625l0 5.96875l-1.28125 0l0 -5.828125q0 -1.65625 -0.828125 -2.53125q-0.828125 -0.875 -2.265625 -0.875q-1.484375 0 -2.359375 0.9375q-0.875 0.921875 -0.875 2.734375l0 5.5625l-1.296875 0l0 -10.1875l1.296875 0l0 1.734375q0.484375 -0.9375 1.390625 -1.421875q0.921875 -0.5 2.078125 -0.5zm16.246902 4.765625q0 0.671875 -0.03125 1.015625l-8.453125 0q0.0625 1.15625 0.5625 1.984375q0.5 0.8125 1.3125 1.234375q0.828125 0.421875 1.796875 0.421875q1.265625 0 2.140625 -0.609375q0.875 -0.625 1.140625 -1.671875l1.390625 0q-0.375 1.5 -1.59375 2.453125q-1.21875 0.9375 -3.078125 0.9375q-1.4375 0 -2.578125 -0.640625q-1.125 -0.65625 -1.78125 -1.828125q-0.640625 -1.1875 -0.640625 -2.78125q0 -1.578125 0.640625 -2.765625q0.640625 -1.203125 1.765625 -1.828125q1.140625 -0.640625 2.59375 -0.640625q1.453125 0 2.546875 0.640625q1.09375 0.625 1.671875 1.703125q0.59375 1.0625 0.59375 2.375zm-1.3125 -0.046875q0.015625 -1.140625 -0.46875 -1.9375q-0.46875 -0.796875 -1.296875 -1.203125q-0.8125 -0.421875 -1.78125 -0.421875q-1.453125 0 -2.484375 0.9375q-1.03125 0.9375 -1.140625 2.625l7.171875 0zm5.010437 -2.71875q0.4375 -0.953125 1.3125 -1.46875q0.890625 -0.53125 2.171875 -0.53125l0 1.359375l-0.34375 0q-1.421875 0 -2.28125 0.765625q-0.859375 0.765625 -0.859375 2.5625l0 5.6875l-1.296875 0l0 -10.1875l1.296875 0l0 1.8125zm4.8473206 3.265625q0 -1.5625 0.625 -2.75q0.625 -1.1875 1.734375 -1.828125q1.109375 -0.640625 2.515625 -0.640625q1.453125 0 2.5 0.671875q1.0625 0.65625 1.53125 1.703125l0 -2.234375l1.296875 0l0 10.1875l-1.296875 0l0 -2.25q-0.484375 1.03125 -1.546875 1.71875q-1.046875 0.6875 -2.5 0.6875q-1.390625 0 -2.5 -0.65625q-1.109375 -0.65625 -1.734375 -1.84375q-0.625 -1.203125 -0.625 -2.765625zm8.90625 0.015625q0 -1.234375 -0.515625 -2.15625q-0.5 -0.9375 -1.375 -1.4375q-0.859375 -0.515625 -1.90625 -0.515625q-1.078125 0 -1.9375 0.484375q-0.859375 0.484375 -1.359375 1.421875q-0.484375 0.921875 -0.484375 2.1875q0 1.25 0.484375 2.1875q0.5 0.9375 1.359375 1.4375q0.859375 0.5 1.9375 0.5q1.046875 0 1.90625 -0.5q0.875 -0.515625 1.375 -1.4375q0.515625 -0.9375 0.515625 -2.171875zm5.592972 -8.71875l0 13.8125l-1.296875 0l0 -13.8125l1.296875 0zm20.21222 3.4375q1.78125 0 2.90625 1.140625q1.140625 1.125 1.140625 3.265625l0 5.96875l-1.296875 0l0 -5.828125q0 -1.65625 -0.796875 -2.53125q-0.796875 -0.875 -2.1875 -0.875q-1.4375 0 -2.296875 0.953125q-0.84375 0.953125 -0.84375 2.765625l0 5.515625l-1.296875 0l0 -5.828125q0 -1.65625 -0.8125 -2.53125q-0.796875 -0.875 -2.1875 -0.875q-1.4375 0 -2.296875 0.953125q-0.859375 0.953125 -0.859375 2.765625l0 5.515625l-1.296875 0l0 -10.1875l1.296875 0l0 1.75q0.484375 -0.953125 1.375 -1.4375q0.90625 -0.5 2.0 -0.5q1.328125 0 2.328125 0.640625q1.0 0.625 1.4375 1.859375q0.421875 -1.203125 1.40625 -1.84375q1.0 -0.65625 2.28125 -0.65625zm11.394836 10.53125q-1.4375 0 -2.59375 -0.640625q-1.140625 -0.65625 -1.8125 -1.828125q-0.65625 -1.1875 -0.65625 -2.78125q0 -1.578125 0.671875 -2.765625q0.671875 -1.1875 1.828125 -1.828125q1.15625 -0.640625 2.59375 -0.640625q1.4375 0 2.59375 0.640625q1.171875 0.640625 1.828125 1.828125q0.671875 1.1875 0.671875 2.765625q0 1.5625 -0.671875 2.765625q-0.671875 1.1875 -1.84375 1.84375q-1.171875 0.640625 -2.609375 0.640625zm0 -1.140625q1.0 0 1.859375 -0.453125q0.859375 -0.46875 1.390625 -1.390625q0.53125 -0.921875 0.53125 -2.265625q0 -1.34375 -0.53125 -2.265625q-0.515625 -0.921875 -1.375 -1.375q-0.84375 -0.46875 -1.859375 -0.46875q-1.0 0 -1.859375 0.46875q-0.859375 0.453125 -1.375 1.375q-0.515625 0.921875 -0.515625 2.265625q0 1.34375 0.515625 2.265625q0.515625 0.921875 1.359375 1.390625q0.84375 0.453125 1.859375 0.453125zm6.914795 -4.125q0 -1.5625 0.640625 -2.75q0.640625 -1.1875 1.75 -1.828125q1.109375 -0.640625 2.5 -0.640625q1.34375 0 2.421875 0.65625q1.09375 0.640625 1.59375 1.6875l0 -5.828125l1.296875 0l0 13.8125l-1.296875 0l0 -2.28125q-0.46875 1.0625 -1.53125 1.75q-1.0625 0.6875 -2.5 0.6875q-1.40625 0 -2.515625 -0.65625q-1.109375 -0.65625 -1.734375 -1.84375q-0.625 -1.203125 -0.625 -2.765625zm8.90625 0.015625q0 -1.234375 -0.515625 -2.15625q-0.5 -0.9375 -1.375 -1.4375q-0.859375 -0.515625 -1.90625 -0.515625q-1.078125 0 -1.9375 0.484375q-0.859375 0.484375 -1.359375 1.421875q-0.484375 0.921875 -0.484375 2.1875q0 1.25 0.484375 2.1875q0.5 0.9375 1.359375 1.4375q0.859375 0.5 1.9375 0.5q1.046875 0 1.90625 -0.5q0.875 -0.515625 1.375 -1.4375q0.515625 -0.9375 0.515625 -2.171875zm13.499237 -0.515625q0 0.671875 -0.03125 1.015625l-8.453125 0q0.0625 1.15625 0.5625 1.984375q0.5 0.8125 1.3125 1.234375q0.828125 0.421875 1.796875 0.421875q1.265625 0 2.140625 -0.609375q0.875 -0.625 1.140625 -1.671875l1.390625 0q-0.375 1.5 -1.59375 2.453125q-1.21875 0.9375 -3.078125 0.9375q-1.4375 0 -2.578125 -0.640625q-1.125 -0.65625 -1.78125 -1.828125q-0.640625 -1.1875 -0.640625 -2.78125q0 -1.578125 0.640625 -2.765625q0.640625 -1.203125 1.765625 -1.828125q1.140625 -0.640625 2.59375 -0.640625q1.453125 0 2.546875 0.640625q1.09375 0.625 1.671875 1.703125q0.59375 1.0625 0.59375 2.375zm-1.3125 -0.046875q0.015625 -1.140625 -0.46875 -1.9375q-0.46875 -0.796875 -1.296875 -1.203125q-0.8125 -0.421875 -1.78125 -0.421875q-1.453125 0 -2.484375 0.9375q-1.03125 0.9375 -1.140625 2.625l7.171875 0zm5.010437 -8.15625l0 13.8125l-1.296875 0l0 -13.8125l1.296875 0z" fill-rule="nonzero"/><path fill="#000000" fill-opacity="0.0" d="m390.0 173.63518l165.51184 0" fill-rule="evenodd"/><path stroke="#009999" stroke-width="3.0" stroke-linejoin="round" stroke-linecap="butt" d="m390.0 173.63518l155.23059 0" fill-rule="evenodd"/><path fill="#009999" stroke="#009999" stroke-width="3.0" stroke-linecap="butt" d="m545.2305 173.63518l-3.3737183 3.3737488l9.269287 -3.3737488l-9.269287 -3.373764z" fill-rule="evenodd"/><path fill="#000000" fill-opacity="0.0" d="m384.1916 286.36484l160.62994 92.724396" fill-rule="evenodd"/><path stroke="#009999" stroke-width="3.0" stroke-linejoin="round" stroke-linecap="butt" d="m384.1916 286.36484l151.72571 87.58438" fill-rule="evenodd"/><path fill="#009999" stroke="#009999" stroke-width="3.0" stroke-linecap="butt" d="m535.9173 373.94925l-4.6085205 1.235199l9.714478 1.7122192l-6.3411255 -7.555969z" fill-rule="evenodd"/><path fill="#000000" fill-opacity="0.0" d="m380.47507 388.41208l156.91336 156.91336" fill-rule="evenodd"/><path stroke="#009999" stroke-width="3.0" stroke-linejoin="round" stroke-linecap="butt" d="m380.47507 388.41208l149.64346 149.64346" fill-rule="evenodd"/><path fill="#009999" stroke="#009999" stroke-width="3.0" stroke-linecap="butt" d="m530.1185 538.0555l-4.77124 0l8.940002 4.1688232l-4.168762 -8.940002z" fill-rule="evenodd"/><path fill="#000000" fill-opacity="0.0" d="m360.19028 125.908134l219.21262 0l0 28.09449l-219.21262 0z" fill-rule="evenodd"/><path fill="#000000" d="m436.26642 146.29689q0 -1.921875 0.84375 -3.4375q0.84375 -1.53125 2.296875 -2.375q1.453125 -0.84375 3.25 -0.84375q2.171875 0 3.734375 1.03125q1.5625 1.03125 2.265625 2.921875l-1.53125 0q-0.5625 -1.328125 -1.703125 -2.0625q-1.140625 -0.75 -2.765625 -0.75q-1.4375 0 -2.59375 0.671875q-1.140625 0.671875 -1.796875 1.9375q-0.65625 1.25 -0.65625 2.90625q0 1.65625 0.65625 2.90625q0.65625 1.25 1.796875 1.921875q1.15625 0.671875 2.59375 0.671875q1.625 0 2.765625 -0.734375q1.140625 -0.734375 1.703125 -2.046875l1.53125 0q-0.703125 1.875 -2.28125 2.90625q-1.5625 1.015625 -3.71875 1.015625q-1.796875 0 -3.25 -0.84375q-1.453125 -0.84375 -2.296875 -2.359375q-0.84375 -1.515625 -0.84375 -3.4375zm19.446472 6.6875q-1.4375 0 -2.59375 -0.640625q-1.140625 -0.65625 -1.8125 -1.828125q-0.65625 -1.1875 -0.65625 -2.78125q0 -1.578125 0.671875 -2.765625q0.671875 -1.1875 1.828125 -1.828125q1.15625 -0.640625 2.59375 -0.640625q1.4375 0 2.59375 0.640625q1.171875 0.640625 1.828125 1.828125q0.671875 1.1875 0.671875 2.765625q0 1.5625 -0.671875 2.765625q-0.671875 1.1875 -1.84375 1.84375q-1.171875 0.640625 -2.609375 0.640625zm0 -1.140625q1.0 0 1.859375 -0.453125q0.859375 -0.46875 1.390625 -1.390625q0.53125 -0.921875 0.53125 -2.265625q0 -1.34375 -0.53125 -2.265625q-0.515625 -0.921875 -1.375 -1.375q-0.84375 -0.46875 -1.859375 -0.46875q-1.0 0 -1.859375 0.46875q-0.859375 0.453125 -1.375 1.375q-0.515625 0.921875 -0.515625 2.265625q0 1.34375 0.515625 2.265625q0.515625 0.921875 1.359375 1.390625q0.84375 0.453125 1.859375 0.453125zm12.289825 -9.390625q1.828125 0 2.984375 1.140625q1.15625 1.125 1.15625 3.265625l0 5.96875l-1.28125 0l0 -5.828125q0 -1.65625 -0.828125 -2.53125q-0.828125 -0.875 -2.265625 -0.875q-1.484375 0 -2.359375 0.9375q-0.875 0.921875 -0.875 2.734375l0 5.5625l-1.296875 0l0 -10.1875l1.296875 0l0 1.734375q0.484375 -0.9375 1.390625 -1.421875q0.921875 -0.5 2.078125 -0.5zm6.434387 5.28125q0 -1.578125 0.640625 -2.765625q0.640625 -1.1875 1.75 -1.828125q1.125 -0.640625 2.5625 -0.640625q1.875 0 3.09375 0.9375q1.234375 0.921875 1.578125 2.53125l-1.390625 0q-0.265625 -1.109375 -1.140625 -1.734375q-0.859375 -0.625 -2.140625 -0.625q-1.03125 0 -1.859375 0.46875q-0.8125 0.46875 -1.296875 1.390625q-0.46875 0.921875 -0.46875 2.265625q0 1.34375 0.46875 2.28125q0.484375 0.921875 1.296875 1.390625q0.828125 0.46875 1.859375 0.46875q1.28125 0 2.140625 -0.625q0.875 -0.625 1.140625 -1.75l1.390625 0q-0.34375 1.578125 -1.578125 2.53125q-1.234375 0.953125 -3.09375 0.953125q-1.4375 0 -2.5625 -0.640625q-1.109375 -0.65625 -1.75 -1.828125q-0.640625 -1.1875 -0.640625 -2.78125zm11.436279 -0.015625q0 -1.5625 0.625 -2.75q0.625 -1.1875 1.734375 -1.828125q1.109375 -0.640625 2.515625 -0.640625q1.453125 0 2.5 0.671875q1.0625 0.65625 1.53125 1.703125l0 -2.234375l1.296875 0l0 10.1875l-1.296875 0l0 -2.25q-0.484375 1.03125 -1.546875 1.71875q-1.046875 0.6875 -2.5 0.6875q-1.390625 0 -2.5 -0.65625q-1.109375 -0.65625 -1.734375 -1.84375q-0.625 -1.203125 -0.625 -2.765625zm8.90625 0.015625q0 -1.234375 -0.515625 -2.15625q-0.5 -0.9375 -1.375 -1.4375q-0.859375 -0.515625 -1.90625 -0.515625q-1.078125 0 -1.9375 0.484375q-0.859375 0.484375 -1.359375 1.421875q-0.484375 0.921875 -0.484375 2.1875q0 1.25 0.484375 2.1875q0.5 0.9375 1.359375 1.4375q0.859375 0.5 1.9375 0.5q1.046875 0 1.90625 -0.5q0.875 -0.515625 1.375 -1.4375q0.515625 -0.9375 0.515625 -2.171875zm5.983612 -3.984375l0 6.3125q0 0.9375 0.359375 1.296875q0.359375 0.34375 1.25 0.34375l1.1875 0l0 1.125l-1.390625 0q-1.390625 0 -2.0625 -0.640625q-0.671875 -0.640625 -0.671875 -2.125l0 -6.3125l-1.40625 0l0 -1.109375l1.40625 0l0 -2.5625l1.328125 0l0 2.5625l2.796875 0l0 1.109375l-2.796875 0z" fill-rule="nonzero"/><path fill="#000000" fill-opacity="0.0" d="m388.89313 240.79012l189.85828 109.60631l-14.047241 24.314941l-189.85828 -109.60629z" fill-rule="evenodd"/><path fill="#000000" d="m437.78232 292.55658q0.96139526 -1.6641235 2.4502869 -2.5546265q1.4967346 -0.90405273 3.1772766 -0.9081116q1.680542 -0.0040893555 3.2367249 0.8943176q1.8809204 1.0858765 2.7182312 2.7600098q0.8373413 1.6741638 0.5004883 3.6627808l-1.3261108 -0.7655945q0.17721558 -1.4312439 -0.4432373 -2.6373901q-0.6126404 -1.219696 -2.0199585 -2.0321655q-1.2449341 -0.7187195 -2.5823975 -0.71502686q-1.3239441 0.011474609 -2.5253906 0.77926636q-1.193634 0.75424194 -2.0221558 2.188385q-0.8285217 1.4341125 -0.88549805 2.844574q-0.0569458 1.4104614 0.5947876 2.5625305q0.6652527 1.1598511 1.9101868 1.8785706q1.4073181 0.81243896 2.7625122 0.7468262q1.3551941 -0.06561279 2.4989014 -0.9208374l1.3261414 0.76556396q-1.5469055 1.2720032 -3.4295044 1.375946q-1.8612366 0.09820557 -3.7286377 -0.9798584q-1.5561829 -0.89837646 -2.3925476 -2.3554993q-0.83639526 -1.4571228 -0.80895996 -3.1913147q0.02746582 -1.7342224 0.9888611 -3.398346zm19.10257 6.5897217q1.0013428 0.5780945 1.5574341 1.458435q0.5560608 0.88031006 0.5159302 2.0118103q-0.040161133 1.1315002 -0.7592468 2.3761902l-2.9858093 5.168274l-1.1096191 -0.6405945l2.9154663 -5.0464783q0.8285217 -1.4341431 0.54904175 -2.605835q-0.27947998 -1.1716919 -1.5244446 -1.8903809q-1.2855225 -0.742157 -2.512268 -0.3678589q-1.2189636 0.3607788 -2.1256409 1.9301758l-2.7825928 4.816498l-1.1231384 -0.648407l6.9095764 -11.9600525l1.1231384 0.648407l-2.6809692 4.640625q0.87283325 -0.5425415 1.934845 -0.5067749q1.0834045 0.030059814 2.098297 0.6159668zm4.6209717 14.827942q-1.2449341 -0.7187195 -1.9258118 -1.851532q-0.6595459 -1.1384888 -0.6552124 -2.4891357q0.0256958 -1.3563538 0.8229675 -2.7363586q0.7894287 -1.3664551 1.965332 -2.0587769q1.1759033 -0.6923523 2.4977417 -0.6689453q1.3218384 0.023376465 2.5667725 0.74209595q1.2449341 0.71868896 1.9258118 1.8515015q0.6944275 1.1405945 0.6687317 2.4969482q-0.012145996 1.3641663 -0.8016052 2.7306519q-0.7816162 1.3529358 -1.965332 2.0587769q-1.1759338 0.6923218 -2.519104 0.6746826q-1.3353577 -0.031219482 -2.5802917 -0.74990845zm0.57058716 -0.9876709q0.86605835 0.49996948 1.8369751 0.5372925q0.97872925 0.023773193 1.8999939 -0.5088501q0.92123413 -0.5326233 1.5934448 -1.696167q0.6721802 -1.1635437 0.6732483 -2.2273865q0.01461792 -1.0560303 -0.5029602 -1.8780518q-0.49624634 -0.8277283 -1.375824 -1.3355103q-0.86602783 -0.49996948 -1.8447876 -0.5237732q-0.97091675 -0.03729248 -1.8786316 0.5031433q-0.90771484 0.5404358 -1.579895 1.7039795q-0.6722107 1.1635437 -0.6867981 2.219574q-0.01461792 1.0560303 0.48162842 1.8837585q0.5040283 0.814209 1.383606 1.321991zm11.111938 -1.6316833q0.92755127 -0.63723755 2.170288 -0.69558716q1.2640686 -0.064086914 2.5225525 0.66244507q1.1907959 0.68743896 1.8310852 1.796814q0.6403198 1.109375 0.58755493 2.4500732q-0.052764893 1.3407288 -0.8343811 2.693695q-0.7816467 1.3529358 -1.9247742 2.0822144q-1.135315 0.7157593 -2.424347 0.7293396q-1.2890625 0.01361084 -2.4798584 -0.67385864q-1.2449341 -0.7187195 -1.8211975 -1.8452454q-0.5762329 -1.1264954 -0.4876709 -2.2480774l-3.5251465 6.101776l-1.1096191 -0.6405945l7.503601 -12.988281l1.1096191 0.6405945l-1.1177063 1.9346924zm5.1404114 6.2512207q0.6331177 -1.0958862 0.6612549 -2.144104q0.035949707 -1.0617676 -0.46600342 -1.9108276q-0.48840332 -0.8412781 -1.4356384 -1.3881226q-0.9066467 -0.523407 -1.9223633 -0.5144043q-0.99438477 0.0032653809 -1.8963928 0.5650635q-0.89416504 0.5482483 -1.5116577 1.6170654q-0.61746216 1.0688477 -0.6534424 2.1305847q-0.028137207 1.0482483 0.45819092 1.9243774q0.5076599 0.87042236 1.4143066 1.3938293q0.9472351 0.5468445 1.9280701 0.5357361q0.99438477 -0.0032653809 1.8963623 -0.5650635q0.90200806 -0.5617676 1.5273132 -1.6441345zm9.880585 2.9797974l-0.55493164 0.9606018l-6.2788086 -3.6247864l0.55493164 -0.9606018l6.2788086 3.6247864zm2.960907 10.513794q-1.2449341 -0.7187195 -1.9258118 -1.851532q-0.6595459 -1.1385193 -0.6552124 -2.4891357q0.0256958 -1.3563538 0.8229675 -2.7363586q0.7894287 -1.3664856 1.965332 -2.0588074q1.1759338 -0.6923218 2.4977417 -0.6689148q1.3218384 0.023376465 2.5667725 0.7420654q1.2449341 0.7187195 1.9258118 1.851532q0.6944275 1.1405945 0.6687317 2.4969482q-0.012145996 1.3641663 -0.8016052 2.7306519q-0.7816162 1.3529358 -1.965332 2.0587769q-1.1759033 0.6923218 -2.5190735 0.6746521q-1.3353577 -0.031188965 -2.5803223 -0.7498779zm0.57058716 -0.9876709q0.86605835 0.49996948 1.8369751 0.5372925q0.97875977 0.023773193 1.8999939 -0.5088501q0.92123413 -0.5326233 1.5934448 -1.696167q0.6721802 -1.1635437 0.6732788 -2.2273865q0.014587402 -1.0560303 -0.5029907 -1.8780518q-0.49624634 -0.8277283 -1.3757935 -1.3355103q-0.86605835 -0.5 -1.8447876 -0.5237732q-0.97094727 -0.03729248 -1.8786621 0.5031433q-0.9076843 0.5404358 -1.579895 1.7039795q-0.6722107 1.1635437 -0.6867981 2.219574q-0.01461792 1.0560303 0.48162842 1.8837585q0.50405884 0.814209 1.383606 1.321991zm14.029266 -1.2464905l-2.043335 -1.1796265l-4.5412292 7.860626l-1.1366882 -0.6562195l4.54126 -7.860626l-1.2314148 -0.710907l0.55496216 -0.9605713l1.2313843 0.71087646l0.3517456 -0.6088257q0.8363342 -1.4476318 1.9578857 -1.7022705q1.1350708 -0.24679565 2.7724304 0.6984558l-0.56277466 0.9741211q-1.0960999 -0.632782 -1.7849426 -0.4711609q-0.6753235 0.1694336 -1.2459106 1.157074l-0.3517456 0.6088257l2.043335 1.1796265l-0.55496216 0.9606018zm5.2510376 3.0314636l-2.0433044 -1.1796265l-4.54126 7.860626l-1.1366577 -0.6562195l4.5412292 -7.860626l-1.2313843 -0.710907l0.55493164 -0.9605713l1.2314148 0.71087646l0.3517151 -0.6088257q0.83636475 -1.4476318 1.9578857 -1.7022705q1.1350708 -0.24679565 2.772461 0.6984558l-0.5628052 0.9741211q-1.0960693 -0.632782 -1.7849426 -0.4711609q-0.6753235 0.1694336 -1.2459106 1.157074l-0.3517151 0.6088257l2.0433044 1.1796265l-0.55496216 0.9606018z" fill-rule="nonzero"/><path fill="#000000" fill-opacity="0.0" d="m398.5628 351.53287l155.05511 154.96063l-19.84253 19.842499l-155.05511 -154.96063z" fill-rule="evenodd"/><path fill="#000000" d="m451.4631 424.01453l-0.77337646 0.773407l-4.067108 -4.064636l-3.4360962 3.4360962l3.4371338 3.4350586l-0.77337646 0.773407l-3.4371643 -3.4350586l-4.2426453 4.2426453l-0.91729736 -0.91674805l9.225525 -9.225555l4.9844055 4.9813843zm-0.86499023 5.7405396q0.98342896 -0.36468506 1.9669495 -0.11074829q1.0055847 0.25390625 1.9118652 1.1596069l-0.9612427 0.9612427l-0.24313354 -0.24301147q-1.0057373 -1.0050964 -2.1549683 -1.0711975q-1.149231 -0.066101074 -2.4197998 1.2044678l-4.0216675 4.0216675l-0.9173279 -0.91674805l7.2036743 -7.203644l0.91729736 0.91674805l-1.2816467 1.2816162zm8.413635 12.318512q-0.47509766 0.47506714 -0.7402649 0.6960449l-5.979065 -5.9754333q-0.773407 0.8617859 -1.00531 1.8007812q-0.22085571 0.9279785 0.055541992 1.8006287q0.28741455 0.883728 0.97265625 1.568512q0.89520264 0.8946533 1.9450073 1.0823059q1.0608215 0.1765747 1.9889832 -0.375885l0.98361206 0.9830017q-1.3258972 0.79559326 -2.861908 0.6080322q-1.5249634 -0.19863892 -2.840149 -1.5130005q-1.0167847 -1.0161438 -1.370575 -2.2754517q-0.33169556 -1.2592773 0.03274536 -2.5518188q0.38656616 -1.2925415 1.5135193 -2.4194946q1.1159058 -1.1159058 2.408722 -1.5027466q1.3038635 -0.39788818 2.541565 -0.044555664q1.2597656 0.353302 2.2875977 1.3804932q1.027832 1.0271912 1.3484802 2.253357q0.33166504 1.2150879 -0.021759033 2.3861084q-0.33132935 1.1710205 -1.2593994 2.099121zm-0.89520264 -0.9609375q0.81759644 -0.7955017 1.0384521 -1.7013855q0.23190308 -0.8948364 -0.06655884 -1.7674866q-0.2763977 -0.87265015 -0.9616089 -1.5574646q-1.027832 -1.0271912 -2.420166 -1.0932617q-1.3923645 -0.06607056 -2.6629639 1.0498352l5.0728455 5.069763zm9.103119 9.163818q-0.47509766 0.47509766 -0.7402649 0.69607544l-5.9790955 -5.9754333q-0.77337646 0.8617554 -1.0052795 1.8007812q-0.22088623 0.9279785 0.055511475 1.8006287q0.28744507 0.8836975 0.97265625 1.568512q0.89520264 0.8946533 1.9450073 1.0822754q1.060852 0.17660522 1.9889832 -0.375885l0.98361206 0.9830322q-1.3258972 0.79556274 -2.861908 0.6080017q-1.5249634 -0.1986084 -2.840149 -1.51297q-1.0167542 -1.0161743 -1.370575 -2.2754517q-0.33169556 -1.2593079 0.03277588 -2.5518494q0.38656616 -1.2925415 1.5135193 -2.419464q1.1159058 -1.1159058 2.408722 -1.5027466q1.3038635 -0.39788818 2.5415344 -0.04458618q1.2597656 0.353302 2.2875977 1.3805237q1.027832 1.0271912 1.3484802 2.253357q0.33169556 1.2150879 -0.021728516 2.3861084q-0.33132935 1.1710205 -1.2593994 2.0990906zm-0.89523315 -0.9609375q0.81759644 -0.7955017 1.0384521 -1.7013855q0.2319336 -0.8948059 -0.06655884 -1.7674866q-0.2763977 -0.87265015 -0.9616089 -1.5574341q-1.027832 -1.0272217 -2.420166 -1.0932922q-1.392334 -0.06607056 -2.6629333 1.0498657l5.072815 5.0697327zm-0.12423706 6.348297l3.7686768 3.7664185l-0.7623291 0.7623291l-4.8296814 -4.826721l0.7623291 -0.7623596l9.392395 -1.9677734l-3.6471252 -3.6448975l0.7623596 -0.7623596l4.697052 4.6941833l-0.7623596 0.7623596l-9.381317 1.9788208zm15.046783 8.631409q-0.47509766 0.47509766 -0.7402649 0.69607544l-5.9790955 -5.9754333q-0.77337646 0.8617554 -1.0052795 1.8007812q-0.22085571 0.9279785 0.055511475 1.8006287q0.28744507 0.883728 0.97265625 1.568512q0.89523315 0.8946533 1.9450073 1.0823059q1.060852 0.1765747 1.9889832 -0.37591553l0.9836426 0.9830322q-1.3259277 0.79556274 -2.8619385 0.6080017q-1.5249634 -0.1986084 -2.8401184 -1.51297q-1.0167847 -1.0161743 -1.370575 -2.2754517q-0.33169556 -1.2592773 0.03274536 -2.5518188q0.38656616 -1.2925415 1.5135193 -2.4194946q1.1159058 -1.1159058 2.408722 -1.5027466q1.3038635 -0.39788818 2.5415344 -0.04458618q1.2597961 0.35333252 2.2876282 1.3805237q1.027832 1.0271912 1.3484497 2.253357q0.33169556 1.2150879 -0.021728516 2.3861084q-0.33132935 1.1710205 -1.2593994 2.0990906zm-0.89523315 -0.9609375q0.81759644 -0.7955017 1.0384827 -1.701355q0.23190308 -0.8948364 -0.066589355 -1.7674866q-0.2763672 -0.87268066 -0.9616089 -1.5574646q-1.0278015 -1.0272217 -2.420166 -1.0932617q-1.392334 -0.06607056 -2.6629333 1.0498352l5.072815 5.0697327z" fill-rule="nonzero"/><path fill="#32c8cd" fill-opacity="0.6313" d="m595.09186 142.35959l5.451416 0l0 127.2782l-5.451416 0z" fill-rule="evenodd"/><path fill="#279fa3" fill-opacity="0.6313" d="m600.5433 142.35959l73.63519 -73.63518l0 127.27821l-73.63519 73.63516z" fill-rule="evenodd"/><path fill="#5bd3d7" fill-opacity="0.6313" d="m595.09186 142.35959l73.63519 -73.63518l5.451416 0l-73.63519 73.63518z" fill-rule="evenodd"/><path fill="#000000" fill-opacity="0.0" d="m595.09186 142.35959l73.63519 -73.63518l5.451416 0l0 127.27821l-73.63519 73.63516l-5.451416 0zm0 0l5.451416 0l73.63519 -73.63518m-73.63519 73.63518l0 127.2782" fill-rule="evenodd"/><path stroke="#ffffff" stroke-width="1.0" stroke-linejoin="round" stroke-linecap="butt" d="m595.09186 142.35959l73.63519 -73.63518l5.451416 0l0 127.27821l-73.63519 73.63516l-5.451416 0zm0 0l5.451416 0l73.63519 -73.63518m-73.63519 73.63518l0 127.2782" fill-rule="evenodd"/><path fill="#32c8cd" fill-opacity="0.6313" d="m629.38135 142.35959l5.451416 0l0 127.2782l-5.451416 0z" fill-rule="evenodd"/><path fill="#279fa3" fill-opacity="0.6313" d="m634.83276 142.35959l73.63519 -73.63518l0 127.27821l-73.63519 73.63516z" fill-rule="evenodd"/><path fill="#5bd3d7" fill-opacity="0.6313" d="m629.38135 142.35959l73.63513 -73.63518l5.451477 0l-73.63519 73.63518z" fill-rule="evenodd"/><path fill="#000000" fill-opacity="0.0" d="m629.38135 142.35959l73.63513 -73.63518l5.451477 0l0 127.27821l-73.63519 73.63516l-5.451416 0zm0 0l5.451416 0l73.63519 -73.63518m-73.63519 73.63518l0 127.2782" fill-rule="evenodd"/><path stroke="#ffffff" stroke-width="1.0" stroke-linejoin="round" stroke-linecap="butt" d="m629.38135 142.35959l73.63513 -73.63518l5.451477 0l0 127.27821l-73.63519 73.63516l-5.451416 0zm0 0l5.451416 0l73.63519 -73.63518m-73.63519 73.63518l0 127.2782" fill-rule="evenodd"/><path fill="#32c8cd" fill-opacity="0.6313" d="m663.6708 142.35959l5.451477 0l0 127.2782l-5.451477 0z" fill-rule="evenodd"/><path fill="#279fa3" fill-opacity="0.6313" d="m669.12225 142.35959l73.63513 -73.63518l0 127.27821l-73.63513 73.63516z" fill-rule="evenodd"/><path fill="#5bd3d7" fill-opacity="0.6313" d="m663.6708 142.35959l73.63519 -73.63518l5.451416 0l-73.63513 73.63518z" fill-rule="evenodd"/><path fill="#000000" fill-opacity="0.0" d="m663.6708 142.35959l73.63519 -73.63518l5.451416 0l0 127.27821l-73.63513 73.63516l-5.451477 0zm0 0l5.451477 0l73.63513 -73.63518m-73.63513 73.63518l0 127.2782" fill-rule="evenodd"/><path stroke="#ffffff" stroke-width="1.0" stroke-linejoin="round" stroke-linecap="butt" d="m663.6708 142.35959l73.63519 -73.63518l5.451416 0l0 127.27821l-73.63513 73.63516l-5.451477 0zm0 0l5.451477 0l73.63513 -73.63518m-73.63513 73.63518l0 127.2782" fill-rule="evenodd"/><path fill="#32c8cd" fill-opacity="0.6313" d="m697.96027 182.81627l5.451416 0l0 46.364838l-5.451416 0z" fill-rule="evenodd"/><path fill="#279fa3" fill-opacity="0.6313" d="m703.4117 182.81627l73.63519 -73.63517l0 46.36483l-73.63519 73.63518z" fill-rule="evenodd"/><path fill="#5bd3d7" fill-opacity="0.6313" d="m697.96027 182.81627l73.63519 -73.63517l5.451416 0l-73.63519 73.63517z" fill-rule="evenodd"/><path fill="#000000" fill-opacity="0.0" d="m697.96027 182.81627l73.63519 -73.63517l5.451416 0l0 46.36483l-73.63519 73.63518l-5.451416 0zm0 0l5.451416 0l73.63519 -73.63517m-73.63519 73.63517l0 46.364838" fill-rule="evenodd"/><path stroke="#ffffff" stroke-width="1.0" stroke-linejoin="round" stroke-linecap="butt" d="m697.96027 182.81627l73.63519 -73.63517l5.451416 0l0 46.36483l-73.63519 73.63518l-5.451416 0zm0 0l5.451416 0l73.63519 -73.63517m-73.63519 73.63517l0 46.364838" fill-rule="evenodd"/><path fill="#32c8cd" fill-opacity="0.6313" d="m760.26624 161.33861l2.015686 0l0 34.551163l-2.015686 0z" fill-rule="evenodd"/><path fill="#279fa3" fill-opacity="0.6313" d="m762.2819 161.33861l18.86621 -18.866165l0 34.551163l-18.86621 18.866165z" fill-rule="evenodd"/><path fill="#5bd3d7" fill-opacity="0.6313" d="m760.26624 161.33861l18.86615 -18.866165l2.015747 0l-18.86621 18.866165z" fill-rule="evenodd"/><path fill="#000000" fill-opacity="0.0" d="m760.26624 161.33861l18.86615 -18.866165l2.015747 0l0 34.551163l-18.86621 18.866165l-2.015686 0zm0 0l2.015686 0l18.86621 -18.866165m-18.86621 18.866165l0 34.551163" fill-rule="evenodd"/><path stroke="#ffffff" stroke-width="1.0" stroke-linejoin="round" stroke-linecap="butt" d="m760.26624 161.33861l18.86615 -18.866165l2.015747 0l0 34.551163l-18.86621 18.866165l-2.015686 0zm0 0l2.015686 0l18.86621 -18.866165m-18.86621 18.866165l0 34.551163" fill-rule="evenodd"/><path fill="#32c8cd" fill-opacity="0.6313" d="m765.1121 182.81627l5.451416 0l0 46.364838l-5.451416 0z" fill-rule="evenodd"/><path fill="#279fa3" fill-opacity="0.6313" d="m770.56354 182.81627l73.63519 -73.63517l0 46.36483l-73.63519 73.63518z" fill-rule="evenodd"/><path fill="#5bd3d7" fill-opacity="0.6313" d="m765.1121 182.81627l73.63519 -73.63517l5.451416 0l-73.63519 73.63517z" fill-rule="evenodd"/><path fill="#000000" fill-opacity="0.0" d="m765.1121 182.81627l73.63519 -73.63517l5.451416 0l0 46.36483l-73.63519 73.63518l-5.451416 0zm0 0l5.451416 0l73.63519 -73.63517m-73.63519 73.63517l0 46.364838" fill-rule="evenodd"/><path stroke="#ffffff" stroke-width="1.0" stroke-linejoin="round" stroke-linecap="butt" d="m765.1121 182.81627l73.63519 -73.63517l5.451416 0l0 46.36483l-73.63519 73.63518l-5.451416 0zm0 0l5.451416 0l73.63519 -73.63517m-73.63519 73.63517l0 46.364838" fill-rule="evenodd"/><path fill="#32c8cd" fill-opacity="0.6313" d="m786.93176 142.35959l5.451416 0l0 127.2782l-5.451416 0z" fill-rule="evenodd"/><path fill="#279fa3" fill-opacity="0.6313" d="m792.3832 142.35959l73.63519 -73.63518l0 127.27821l-73.63519 73.63516z" fill-rule="evenodd"/><path fill="#5bd3d7" fill-opacity="0.6313" d="m786.93176 142.35959l73.63519 -73.63518l5.451416 0l-73.63519 73.63518z" fill-rule="evenodd"/><path fill="#000000" fill-opacity="0.0" d="m786.93176 142.35959l73.63519 -73.63518l5.451416 0l0 127.27821l-73.63519 73.63516l-5.451416 0zm0 0l5.451416 0l73.63519 -73.63518m-73.63519 73.63518l0 127.2782" fill-rule="evenodd"/><path stroke="#ffffff" stroke-width="1.0" stroke-linejoin="round" stroke-linecap="butt" d="m786.93176 142.35959l73.63519 -73.63518l5.451416 0l0 127.27821l-73.63519 73.63516l-5.451416 0zm0 0l5.451416 0l73.63519 -73.63518m-73.63519 73.63518l0 127.2782" fill-rule="evenodd"/><path fill="#ffadac" d="m817.4743 182.81627l5.451477 0l0 46.364838l-5.451477 0z" fill-rule="evenodd"/><path fill="#cb8a89" d="m822.9258 182.81627l73.63513 -73.63517l0 46.36483l-73.63513 73.63518z" fill-rule="evenodd"/><path fill="#ffbdbc" d="m817.4743 182.81627l73.63519 -73.63517l5.451416 0l-73.63513 73.63517z" fill-rule="evenodd"/><path fill="#000000" fill-opacity="0.0" d="m817.4743 182.81627l73.63519 -73.63517l5.451416 0l0 46.36483l-73.63513 73.63518l-5.451477 0zm0 0l5.451477 0l73.63513 -73.63517m-73.63513 73.63517l0 46.364838" fill-rule="evenodd"/><path stroke="#ffffff" stroke-width="1.0" stroke-linejoin="round" stroke-linecap="butt" d="m817.4743 182.81627l73.63519 -73.63517l5.451416 0l0 46.36483l-73.63513 73.63518l-5.451477 0zm0 0l5.451477 0l73.63513 -73.63517m-73.63513 73.63517l0 46.364838" fill-rule="evenodd"/><path fill="#000000" fill-opacity="0.0" d="m646.80444 3.8530183l219.21265 0l0 28.094488l-219.21265 0z" fill-rule="evenodd"/><path fill="#000000" d="m673.64075 18.788641l0 4.875l4.953125 0l0 1.078125l-4.953125 0l0 4.953125l5.5 0l0 1.078125l-6.796875 0l0 -13.0625l6.796875 0l0 1.078125l-5.5 0zm20.21222 1.609375q1.78125 0 2.90625 1.140625q1.140625 1.125 1.140625 3.265625l0 5.96875l-1.296875 0l0 -5.828125q0 -1.65625 -0.796875 -2.53125q-0.796875 -0.875 -2.1875 -0.875q-1.4375 0 -2.296875 0.953125q-0.84375 0.953125 -0.84375 2.765625l0 5.515625l-1.296875 0l0 -5.828125q0 -1.65625 -0.8125 -2.53125q-0.796875 -0.875 -2.1875 -0.875q-1.4375 0 -2.296875 0.953125q-0.859375 0.953125 -0.859375 2.765625l0 5.515625l-1.296875 0l0 -10.1875l1.296875 0l0 1.75q0.484375 -0.953125 1.375 -1.4375q0.90625 -0.5 2.0 -0.5q1.328125 0 2.328125 0.640625q1.0 0.625 1.4375 1.859375q0.421875 -1.203125 1.40625 -1.84375q1.0 -0.65625 2.28125 -0.65625zm8.222961 2.453125q0.5 -1.078125 1.546875 -1.734375q1.0625 -0.671875 2.5 -0.671875q1.40625 0 2.5 0.640625q1.09375 0.640625 1.71875 1.828125q0.625 1.1875 0.625 2.75q0 1.5625 -0.625 2.765625q-0.625 1.1875 -1.734375 1.84375q-1.109375 0.65625 -2.484375 0.65625q-1.453125 0 -2.515625 -0.65625q-1.046875 -0.671875 -1.53125 -1.734375l0 2.234375l-1.28125 0l0 -13.8125l1.28125 0l0 5.890625zm7.578125 2.8125q0 -1.265625 -0.5 -2.1875q-0.5 -0.9375 -1.359375 -1.421875q-0.84375 -0.484375 -1.9375 -0.484375q-1.046875 0 -1.921875 0.515625q-0.859375 0.5 -1.359375 1.4375q-0.5 0.921875 -0.5 2.15625q0 1.234375 0.5 2.171875q0.5 0.921875 1.359375 1.4375q0.875 0.5 1.921875 0.5q1.09375 0 1.9375 -0.5q0.859375 -0.5 1.359375 -1.4375q0.5 -0.9375 0.5 -2.1875zm12.936707 -0.5q0 0.671875 -0.03125 1.015625l-8.453125 0q0.0625 1.15625 0.5625 1.984375q0.5 0.8125 1.3125 1.234375q0.828125 0.421875 1.796875 0.421875q1.265625 0 2.140625 -0.609375q0.875 -0.625 1.140625 -1.671875l1.390625 0q-0.375 1.5 -1.59375 2.453125q-1.21875 0.9375 -3.078125 0.9375q-1.4375 0 -2.578125 -0.640625q-1.125 -0.65625 -1.78125 -1.828125q-0.640625 -1.1875 -0.640625 -2.78125q0 -1.578125 0.640625 -2.765625q0.640625 -1.203125 1.765625 -1.828125q1.140625 -0.640625 2.59375 -0.640625q1.453125 0 2.546875 0.640625q1.09375 0.625 1.671875 1.703125q0.59375 1.0625 0.59375 2.375zm-1.3125 -0.046875q0.015625 -1.140625 -0.46875 -1.9375q-0.46875 -0.796875 -1.296875 -1.203125q-0.8125 -0.421875 -1.78125 -0.421875q-1.453125 0 -2.484375 0.9375q-1.03125 0.9375 -1.140625 2.625l7.171875 0zm3.104187 0.546875q0 -1.5625 0.640625 -2.75q0.640625 -1.1875 1.75 -1.828125q1.109375 -0.640625 2.5 -0.640625q1.34375 0 2.421875 0.65625q1.09375 0.640625 1.59375 1.6875l0 -5.828125l1.296875 0l0 13.8125l-1.296875 0l0 -2.28125q-0.46875 1.0625 -1.53125 1.75q-1.0625 0.6875 -2.5 0.6875q-1.40625 0 -2.515625 -0.65625q-1.109375 -0.65625 -1.734375 -1.84375q-0.625 -1.203125 -0.625 -2.765625zm8.90625 0.015625q0 -1.234375 -0.515625 -2.15625q-0.5 -0.9375 -1.375 -1.4375q-0.859375 -0.515625 -1.90625 -0.515625q-1.078125 0 -1.9375 0.484375q-0.859375 0.484375 -1.359375 1.421875q-0.484375 0.921875 -0.484375 2.1875q0 1.25 0.484375 2.1875q0.5 0.9375 1.359375 1.4375q0.859375 0.5 1.9375 0.5q1.046875 0 1.90625 -0.5q0.875 -0.515625 1.375 -1.4375q0.515625 -0.9375 0.515625 -2.171875zm3.6867065 -0.015625q0 -1.5625 0.640625 -2.75q0.640625 -1.1875 1.75 -1.828125q1.109375 -0.640625 2.5 -0.640625q1.34375 0 2.421875 0.65625q1.09375 0.640625 1.59375 1.6875l0 -5.828125l1.296875 0l0 13.8125l-1.296875 0l0 -2.28125q-0.46875 1.0625 -1.53125 1.75q-1.0625 0.6875 -2.5 0.6875q-1.40625 0 -2.515625 -0.65625q-1.109375 -0.65625 -1.734375 -1.84375q-0.625 -1.203125 -0.625 -2.765625zm8.90625 0.015625q0 -1.234375 -0.515625 -2.15625q-0.5 -0.9375 -1.375 -1.4375q-0.859375 -0.515625 -1.90625 -0.515625q-1.078125 0 -1.9375 0.484375q-0.859375 0.484375 -1.359375 1.421875q-0.484375 0.921875 -0.484375 2.1875q0 1.25 0.484375 2.1875q0.5 0.9375 1.359375 1.4375q0.859375 0.5 1.9375 0.5q1.046875 0 1.90625 -0.5q0.875 -0.515625 1.375 -1.4375q0.515625 -0.9375 0.515625 -2.171875zm4.9367065 -7.015625q-0.390625 0 -0.671875 -0.28125q-0.28125 -0.28125 -0.28125 -0.6875q0 -0.40625 0.28125 -0.671875q0.28125 -0.28125 0.671875 -0.28125q0.390625 0 0.671875 0.28125q0.28125 0.265625 0.28125 0.671875q0 0.40625 -0.28125 0.6875q-0.28125 0.28125 -0.671875 0.28125zm0.65625 1.921875l0 10.1875l-1.296875 0l0 -10.1875l1.296875 0zm7.741028 -0.1875q1.828125 0 2.984375 1.140625q1.15625 1.125 1.15625 3.265625l0 5.96875l-1.28125 0l0 -5.828125q0 -1.65625 -0.828125 -2.53125q-0.828125 -0.875 -2.265625 -0.875q-1.484375 0 -2.359375 0.9375q-0.875 0.921875 -0.875 2.734375l0 5.5625l-1.296875 0l0 -10.1875l1.296875 0l0 1.734375q0.484375 -0.9375 1.390625 -1.421875q0.921875 -0.5 2.078125 -0.5zm11.309448 0.046875q1.4375 0 2.5 0.671875q1.0625 0.65625 1.53125 1.6875l0 -2.21875l1.296875 0l0 10.453125q0 1.3906269 -0.609375 2.468752q-0.59375 1.09375 -1.6875 1.671875q-1.078125 0.59375 -2.453125 0.59375q-1.953125 0 -3.25 -0.9375q-1.296875 -0.921875 -1.625 -2.53125l1.296875 0q0.328125 1.0625 1.265625 1.6875q0.953125 0.640625 2.3125 0.640625q0.984375 0 1.765625 -0.421875q0.796875 -0.421875 1.234375 -1.25q0.453125 -0.8125 0.453125 -1.9218769l0 -2.515625q-0.484375 1.03125 -1.546875 1.71875q-1.046875 0.6875 -2.484375 0.6875q-1.40625 0 -2.515625 -0.65625q-1.109375 -0.65625 -1.734375 -1.84375q-0.625 -1.203125 -0.625 -2.765625q0 -1.5625 0.625 -2.75q0.625 -1.1875 1.734375 -1.828125q1.109375 -0.640625 2.515625 -0.640625zm4.03125 5.234375q0 -1.234375 -0.515625 -2.15625q-0.5 -0.9375 -1.375 -1.4375q-0.859375 -0.515625 -1.90625 -0.515625q-1.078125 0 -1.9375 0.484375q-0.859375 0.484375 -1.359375 1.421875q-0.484375 0.921875 -0.484375 2.1875q0 1.25 0.484375 2.1875q0.5 0.9375 1.359375 1.4375q0.859375 0.5 1.9375 0.5q1.046875 0 1.90625 -0.5q0.875 -0.515625 1.375 -1.4375q0.515625 -0.9375 0.515625 -2.171875zm21.532898 -5.28125q1.78125 0 2.90625 1.140625q1.140625 1.125 1.140625 3.265625l0 5.96875l-1.296875 0l0 -5.828125q0 -1.65625 -0.796875 -2.53125q-0.796875 -0.875 -2.1875 -0.875q-1.4375 0 -2.296875 0.953125q-0.84375 0.953125 -0.84375 2.765625l0 5.515625l-1.296875 0l0 -5.828125q0 -1.65625 -0.8125 -2.53125q-0.796875 -0.875 -2.1875 -0.875q-1.4375 0 -2.296875 0.953125q-0.859375 0.953125 -0.859375 2.765625l0 5.515625l-1.296875 0l0 -10.1875l1.296875 0l0 1.75q0.484375 -0.953125 1.375 -1.4375q0.90625 -0.5 2.0 -0.5q1.328125 0 2.328125 0.640625q1.0 0.625 1.4375 1.859375q0.421875 -1.203125 1.40625 -1.84375q1.0 -0.65625 2.28125 -0.65625zm11.394836 10.53125q-1.4375 0 -2.59375 -0.640625q-1.140625 -0.65625 -1.8125 -1.828125q-0.65625 -1.1875 -0.65625 -2.78125q0 -1.578125 0.671875 -2.765625q0.671875 -1.1875 1.828125 -1.828125q1.15625 -0.640625 2.59375 -0.640625q1.4375 0 2.59375 0.640625q1.171875 0.640625 1.828125 1.828125q0.671875 1.1875 0.671875 2.765625q0 1.5625 -0.671875 2.765625q-0.671875 1.1875 -1.84375 1.84375q-1.171875 0.640625 -2.609375 0.640625zm0 -1.140625q1.0 0 1.859375 -0.453125q0.859375 -0.46875 1.390625 -1.390625q0.53125 -0.921875 0.53125 -2.265625q0 -1.34375 -0.53125 -2.265625q-0.515625 -0.921875 -1.375 -1.375q-0.84375 -0.46875 -1.859375 -0.46875q-1.0 0 -1.859375 0.46875q-0.859375 0.453125 -1.375 1.375q-0.515625 0.921875 -0.515625 2.265625q0 1.34375 0.515625 2.265625q0.515625 0.921875 1.359375 1.390625q0.84375 0.453125 1.859375 0.453125zm6.914795 -4.125q0 -1.5625 0.640625 -2.75q0.640625 -1.1875 1.75 -1.828125q1.109375 -0.640625 2.5 -0.640625q1.34375 0 2.421875 0.65625q1.09375 0.640625 1.59375 1.6875l0 -5.828125l1.296875 0l0 13.8125l-1.296875 0l0 -2.28125q-0.46875 1.0625 -1.53125 1.75q-1.0625 0.6875 -2.5 0.6875q-1.40625 0 -2.515625 -0.65625q-1.109375 -0.65625 -1.734375 -1.84375q-0.625 -1.203125 -0.625 -2.765625zm8.90625 0.015625q0 -1.234375 -0.515625 -2.15625q-0.5 -0.9375 -1.375 -1.4375q-0.859375 -0.515625 -1.90625 -0.515625q-1.078125 0 -1.9375 0.484375q-0.859375 0.484375 -1.359375 1.421875q-0.484375 0.921875 -0.484375 2.1875q0 1.25 0.484375 2.1875q0.5 0.9375 1.359375 1.4375q0.859375 0.5 1.9375 0.5q1.046875 0 1.90625 -0.5q0.875 -0.515625 1.375 -1.4375q0.515625 -0.9375 0.515625 -2.171875zm13.499207 -0.515625q0 0.671875 -0.03125 1.015625l-8.453125 0q0.0625 1.15625 0.5625 1.984375q0.5 0.8125 1.3125 1.234375q0.828125 0.421875 1.796875 0.421875q1.265625 0 2.140625 -0.609375q0.875 -0.625 1.140625 -1.671875l1.390625 0q-0.375 1.5 -1.59375 2.453125q-1.21875 0.9375 -3.078125 0.9375q-1.4375 0 -2.578125 -0.640625q-1.125 -0.65625 -1.78125 -1.828125q-0.640625 -1.1875 -0.640625 -2.78125q0 -1.578125 0.640625 -2.765625q0.640625 -1.203125 1.765625 -1.828125q1.140625 -0.640625 2.59375 -0.640625q1.453125 0 2.546875 0.640625q1.09375 0.625 1.671875 1.703125q0.59375 1.0625 0.59375 2.375zm-1.3125 -0.046875q0.015625 -1.140625 -0.46875 -1.9375q-0.46875 -0.796875 -1.296875 -1.203125q-0.8125 -0.421875 -1.78125 -0.421875q-1.453125 0 -2.484375 0.9375q-1.03125 0.9375 -1.140625 2.625l7.171875 0zm5.010437 -8.15625l0 13.8125l-1.296875 0l0 -13.8125l1.296875 0z" fill-rule="nonzero"/><path fill="#32c8cd" fill-opacity="0.6313" d="m595.09186 364.04987l5.451416 0l0 127.27823l-5.451416 0z" fill-rule="evenodd"/><path fill="#279fa3" fill-opacity="0.6313" d="m600.5433 364.04987l73.63519 -73.63516l0 127.2782l-73.63519 73.63519z" fill-rule="evenodd"/><path fill="#5bd3d7" fill-opacity="0.6313" d="m595.09186 364.04987l73.63519 -73.63516l5.451416 0l-73.63519 73.63516z" fill-rule="evenodd"/><path fill="#000000" fill-opacity="0.0" d="m595.09186 364.04987l73.63519 -73.63516l5.451416 0l0 127.2782l-73.63519 73.63519l-5.451416 0zm0 0l5.451416 0l73.63519 -73.63516m-73.63519 73.63516l0 127.27823" fill-rule="evenodd"/><path stroke="#ffffff" stroke-width="1.0" stroke-linejoin="round" stroke-linecap="butt" d="m595.09186 364.04987l73.63519 -73.63516l5.451416 0l0 127.2782l-73.63519 73.63519l-5.451416 0zm0 0l5.451416 0l73.63519 -73.63516m-73.63519 73.63516l0 127.27823" fill-rule="evenodd"/><path fill="#32c8cd" fill-opacity="0.6313" d="m629.38135 364.04987l5.451416 0l0 127.27823l-5.451416 0z" fill-rule="evenodd"/><path fill="#279fa3" fill-opacity="0.6313" d="m634.83276 364.04987l73.63519 -73.63516l0 127.2782l-73.63519 73.63519z" fill-rule="evenodd"/><path fill="#5bd3d7" fill-opacity="0.6313" d="m629.38135 364.04987l73.63513 -73.63516l5.451477 0l-73.63519 73.63516z" fill-rule="evenodd"/><path fill="#000000" fill-opacity="0.0" d="m629.38135 364.04987l73.63513 -73.63516l5.451477 0l0 127.2782l-73.63519 73.63519l-5.451416 0zm0 0l5.451416 0l73.63519 -73.63516m-73.63519 73.63516l0 127.27823" fill-rule="evenodd"/><path stroke="#ffffff" stroke-width="1.0" stroke-linejoin="round" stroke-linecap="butt" d="m629.38135 364.04987l73.63513 -73.63516l5.451477 0l0 127.2782l-73.63519 73.63519l-5.451416 0zm0 0l5.451416 0l73.63519 -73.63516m-73.63519 73.63516l0 127.27823" fill-rule="evenodd"/><path fill="#32c8cd" fill-opacity="0.6313" d="m663.6708 364.04987l5.451477 0l0 127.27823l-5.451477 0z" fill-rule="evenodd"/><path fill="#279fa3" fill-opacity="0.6313" d="m669.12225 364.04987l73.63513 -73.63516l0 127.2782l-73.63513 73.63519z" fill-rule="evenodd"/><path fill="#5bd3d7" fill-opacity="0.6313" d="m663.6708 364.04987l73.63519 -73.63516l5.451416 0l-73.63513 73.63516z" fill-rule="evenodd"/><path fill="#000000" fill-opacity="0.0" d="m663.6708 364.04987l73.63519 -73.63516l5.451416 0l0 127.2782l-73.63513 73.63519l-5.451477 0zm0 0l5.451477 0l73.63513 -73.63516m-73.63513 73.63516l0 127.27823" fill-rule="evenodd"/><path stroke="#ffffff" stroke-width="1.0" stroke-linejoin="round" stroke-linecap="butt" d="m663.6708 364.04987l73.63519 -73.63516l5.451416 0l0 127.2782l-73.63513 73.63519l-5.451477 0zm0 0l5.451477 0l73.63513 -73.63516m-73.63513 73.63516l0 127.27823" fill-rule="evenodd"/><path fill="#32c8cd" fill-opacity="0.6313" d="m697.96027 404.50656l5.451416 0l0 46.364838l-5.451416 0z" fill-rule="evenodd"/><path fill="#279fa3" fill-opacity="0.6313" d="m703.4117 404.50656l73.63519 -73.63516l0 46.364807l-73.63519 73.63519z" fill-rule="evenodd"/><path fill="#5bd3d7" fill-opacity="0.6313" d="m697.96027 404.50656l73.63519 -73.63516l5.451416 0l-73.63519 73.63516z" fill-rule="evenodd"/><path fill="#000000" fill-opacity="0.0" d="m697.96027 404.50656l73.63519 -73.63516l5.451416 0l0 46.364807l-73.63519 73.63519l-5.451416 0zm0 0l5.451416 0l73.63519 -73.63516m-73.63519 73.63516l0 46.364838" fill-rule="evenodd"/><path stroke="#ffffff" stroke-width="1.0" stroke-linejoin="round" stroke-linecap="butt" d="m697.96027 404.50656l73.63519 -73.63516l5.451416 0l0 46.364807l-73.63519 73.63519l-5.451416 0zm0 0l5.451416 0l73.63519 -73.63516m-73.63519 73.63516l0 46.364838" fill-rule="evenodd"/><path fill="#ffadac" d="m724.74725 404.50656l5.451477 0l0 46.364838l-5.451477 0z" fill-rule="evenodd"/><path fill="#cb8a89" d="m730.1987 404.50656l73.63519 -73.63516l0 46.364807l-73.63519 73.63519z" fill-rule="evenodd"/><path fill="#ffbdbc" d="m724.74725 404.50656l73.63519 -73.63516l5.451477 0l-73.63519 73.63516z" fill-rule="evenodd"/><path fill="#000000" fill-opacity="0.0" d="m724.74725 404.50656l73.63519 -73.63516l5.451477 0l0 46.364807l-73.63519 73.63519l-5.451477 0zm0 0l5.451477 0l73.63519 -73.63516m-73.63519 73.63516l0 46.364838" fill-rule="evenodd"/><path stroke="#ffffff" stroke-width="1.0" stroke-linejoin="round" stroke-linecap="butt" d="m724.74725 404.50656l73.63519 -73.63516l5.451477 0l0 46.364807l-73.63519 73.63519l-5.451477 0zm0 0l5.451477 0l73.63519 -73.63516m-73.63519 73.63516l0 46.364838" fill-rule="evenodd"/><path fill="#cccccc" d="m595.0906 578.23096l5.451416 0l0 127.27826l-5.451416 0z" fill-rule="evenodd"/><path fill="#a3a3a3" d="m600.542 578.23096l73.63519 -73.63516l0 127.27823l-73.63519 73.63519z" fill-rule="evenodd"/><path fill="#d6d6d6" d="m595.0906 578.23096l73.63513 -73.63516l5.451477 0l-73.63519 73.63516z" fill-rule="evenodd"/><path fill="#000000" fill-opacity="0.0" d="m595.0906 578.23096l73.63513 -73.63516l5.451477 0l0 127.27823l-73.63519 73.63519l-5.451416 0zm0 0l5.451416 0l73.63519 -73.63516m-73.63519 73.63516l0 127.27826" fill-rule="evenodd"/><path stroke="#ffffff" stroke-width="1.0" stroke-linejoin="round" stroke-linecap="butt" d="m595.0906 578.23096l73.63513 -73.63516l5.451477 0l0 127.27823l-73.63519 73.63519l-5.451416 0zm0 0l5.451416 0l73.63519 -73.63516m-73.63519 73.63516l0 127.27826" fill-rule="evenodd"/><path fill="#cccccc" d="m629.38 578.23096l5.451477 0l0 127.27826l-5.451477 0z" fill-rule="evenodd"/><path fill="#a3a3a3" d="m634.8315 578.23096l73.63513 -73.63516l0 127.27823l-73.63513 73.63519z" fill-rule="evenodd"/><path fill="#d6d6d6" d="m629.38 578.23096l73.63519 -73.63516l5.451416 0l-73.63513 73.63516z" fill-rule="evenodd"/><path fill="#000000" fill-opacity="0.0" d="m629.38 578.23096l73.63519 -73.63516l5.451416 0l0 127.27823l-73.63513 73.63519l-5.451477 0zm0 0l5.451477 0l73.63513 -73.63516m-73.63513 73.63516l0 127.27826" fill-rule="evenodd"/><path stroke="#ffffff" stroke-width="1.0" stroke-linejoin="round" stroke-linecap="butt" d="m629.38 578.23096l73.63519 -73.63516l5.451416 0l0 127.27823l-73.63513 73.63519l-5.451477 0zm0 0l5.451477 0l73.63513 -73.63516m-73.63513 73.63516l0 127.27826" fill-rule="evenodd"/><path fill="#cccccc" d="m663.6695 578.23096l5.451416 0l0 127.27826l-5.451416 0z" fill-rule="evenodd"/><path fill="#a3a3a3" d="m669.1209 578.23096l73.63519 -73.63516l0 127.27823l-73.63519 73.63519z" fill-rule="evenodd"/><path fill="#d6d6d6" d="m663.6695 578.23096l73.63513 -73.63516l5.451477 0l-73.63519 73.63516z" fill-rule="evenodd"/><path fill="#000000" fill-opacity="0.0" d="m663.6695 578.23096l73.63513 -73.63516l5.451477 0l0 127.27823l-73.63519 73.63519l-5.451416 0zm0 0l5.451416 0l73.63519 -73.63516m-73.63519 73.63516l0 127.27826" fill-rule="evenodd"/><path stroke="#ffffff" stroke-width="1.0" stroke-linejoin="round" stroke-linecap="butt" d="m663.6695 578.23096l73.63513 -73.63516l5.451477 0l0 127.27823l-73.63519 73.63519l-5.451416 0zm0 0l5.451416 0l73.63519 -73.63516m-73.63519 73.63516l0 127.27826" fill-rule="evenodd"/><path fill="#cccccc" d="m697.9589 618.6877l5.451477 0l0 46.364807l-5.451477 0z" fill-rule="evenodd"/><path fill="#a3a3a3" d="m703.4104 618.6877l73.63513 -73.63519l0 46.364807l-73.63513 73.63519z" fill-rule="evenodd"/><path fill="#d6d6d6" d="m697.9589 618.6877l73.63519 -73.63519l5.451416 0l-73.63513 73.63519z" fill-rule="evenodd"/><path fill="#000000" fill-opacity="0.0" d="m697.9589 618.6877l73.63519 -73.63519l5.451416 0l0 46.364807l-73.63513 73.63519l-5.451477 0zm0 0l5.451477 0l73.63513 -73.63519m-73.63513 73.63519l0 46.364807" fill-rule="evenodd"/><path stroke="#ffffff" stroke-width="1.0" stroke-linejoin="round" stroke-linecap="butt" d="m697.9589 618.6877l73.63519 -73.63519l5.451416 0l0 46.364807l-73.63513 73.63519l-5.451477 0zm0 0l5.451477 0l73.63513 -73.63519m-73.63513 73.63519l0 46.364807" fill-rule="evenodd"/><path fill="#ffadac" d="m724.746 618.6877l5.451416 0l0 46.364807l-5.451416 0z" fill-rule="evenodd"/><path fill="#cb8a89" d="m730.1974 618.6877l73.63519 -73.63519l0 46.364807l-73.63519 73.63519z" fill-rule="evenodd"/><path fill="#ffbdbc" d="m724.746 618.6877l73.63519 -73.63519l5.451416 0l-73.63519 73.63519z" fill-rule="evenodd"/><path fill="#000000" fill-opacity="0.0" d="m724.746 618.6877l73.63519 -73.63519l5.451416 0l0 46.364807l-73.63519 73.63519l-5.451416 0zm0 0l5.451416 0l73.63519 -73.63519m-73.63519 73.63519l0 46.364807" fill-rule="evenodd"/><path stroke="#ffffff" stroke-width="1.0" stroke-linejoin="round" stroke-linecap="butt" d="m724.746 618.6877l73.63519 -73.63519l5.451416 0l0 46.364807l-73.63519 73.63519l-5.451416 0zm0 0l5.451416 0l73.63519 -73.63519m-73.63519 73.63519l0 46.364807" fill-rule="evenodd"/></g></svg>