<?xml version="1.0" encoding="UTF-8" standalone="no"?>
<svg
   xmlns:dc="http://purl.org/dc/elements/1.1/"
   xmlns:cc="http://creativecommons.org/ns#"
   xmlns:rdf="http://www.w3.org/1999/02/22-rdf-syntax-ns#"
   xmlns:svg="http://www.w3.org/2000/svg"
   xmlns="http://www.w3.org/2000/svg"
   xmlns:sodipodi="http://sodipodi.sourceforge.net/DTD/sodipodi-0.dtd"
   xmlns:inkscape="http://www.inkscape.org/namespaces/inkscape"
   version="1.1"
   viewBox="0 0 669.11548 413.48949"
   stroke-miterlimit="10"
   id="svg213"
   sodipodi:docname="two-usecases.svg"
   width="669.11548"
   height="413.4895"
   style="fill:none;stroke:none;stroke-linecap:square;stroke-miterlimit:10"
   inkscape:version="0.92.5 (2060ec1f9f, 2020-04-08)">
  <metadata
     id="metadata219">
    <rdf:RDF>
      <cc:Work
         rdf:about="">
        <dc:format>image/svg+xml</dc:format>
        <dc:type
           rdf:resource="http://purl.org/dc/dcmitype/StillImage" />
        <dc:title></dc:title>
      </cc:Work>
    </rdf:RDF>
  </metadata>
  <defs
     id="defs217" />
  <sodipodi:namedview
     pagecolor="#ffffff"
     bordercolor="#666666"
     borderopacity="1"
     objecttolerance="10"
     gridtolerance="10"
     guidetolerance="10"
     inkscape:pageopacity="0"
     inkscape:pageshadow="2"
     inkscape:window-width="1848"
     inkscape:window-height="1016"
     id="namedview215"
     showgrid="false"
     inkscape:zoom="0.9071131"
     inkscape:cx="199.55566"
     inkscape:cy="6.1622767"
     inkscape:window-x="72"
     inkscape:window-y="27"
     inkscape:window-maximized="1"
     inkscape:current-layer="g211" />
  <clipPath
     id="p.0">
    <path
       d="M 0,0 H 814.96063 V 1040.6641 H 0 Z"
       id="path2"
       inkscape:connector-curvature="0"
       style="clip-rule:nonzero" />
  </clipPath>
  <g
     clip-path="url(#p.0)"
     id="g211"
     transform="translate(-10.65748,-5.3329425)">
    <path
       d="M 0,0 H 814.96063 V 1040.6641 H 0 Z"
       id="path5"
       inkscape:connector-curvature="0"
       style="fill:#000000;fill-opacity:0;fill-rule:evenodd" />
    <path
       d="m 260.60587,246.41168 h 171.51532 c 23.6813,0 42.87881,38.25967 42.87881,85.45538 0,47.19571 -19.19751,85.45538 -42.87881,85.45538 H 260.60587 v 0 c -23.68132,0 -42.87883,-38.25967 -42.87883,-85.45538 0,-47.19571 19.19751,-85.45538 42.87883,-85.45538 z"
       id="path11"
       inkscape:connector-curvature="0"
       style="fill:#ffcc66;fill-opacity:0.75980003;fill-rule:evenodd" />
    <path
       d="m 432.1212,417.32245 c -23.68134,0 -42.87885,-38.25967 -42.87885,-85.45538 0,-47.19571 19.19751,-85.45538 42.87885,-85.45538"
       id="path13"
       inkscape:connector-curvature="0"
       style="fill:#000000;fill-opacity:0;fill-rule:evenodd" />
    <path
       d="m 260.60587,246.41168 h 171.51532 c 23.6813,0 42.87881,38.25967 42.87881,85.45538 0,47.19571 -19.19751,85.45538 -42.87881,85.45538 H 260.60587 v 0 c -23.68132,0 -42.87883,-38.25967 -42.87883,-85.45538 0,-47.19571 19.19751,-85.45538 42.87883,-85.45538 z"
       id="path15"
       inkscape:connector-curvature="0"
       style="fill:#000000;fill-opacity:0;fill-rule:evenodd" />
    <path
       d="m 432.1212,417.32245 c -23.68134,0 -42.87885,-38.25967 -42.87885,-85.45538 0,-47.19571 19.19751,-85.45538 42.87885,-85.45538"
       id="path17"
       inkscape:connector-curvature="0"
       style="fill-rule:evenodd;stroke:#ffffff;stroke-width:3;stroke-linecap:butt;stroke-linejoin:round" />
    <path
       d="m 260.60587,246.41168 h 171.51532 c 23.6813,0 42.87881,38.25967 42.87881,85.45538 0,47.19571 -19.19751,85.45538 -42.87881,85.45538 H 260.60587 v 0 c -23.68132,0 -42.87883,-38.25967 -42.87883,-85.45538 0,-47.19571 19.19751,-85.45538 42.87883,-85.45538 z"
       id="path19"
       inkscape:connector-curvature="0"
       style="fill-rule:evenodd;stroke:#ffffff;stroke-width:3;stroke-linecap:butt;stroke-linejoin:round" />
    <path
       d="m 280.184,325.69333 v 2.54687 h -3.46875 v 10.54688 h -3.1875 V 328.2402 H 270.059 v -2.54687 z m 0.96335,7.875 q 0,-1.60938 0.60937,-2.8125 0.60938,-1.21875 1.65625,-1.875 1.04688,-0.65625 2.32813,-0.65625 1.10937,0 1.9375,0.45312 0.82812,0.45313 1.28125,1.17188 v -1.46875 h 3.1875 v 10.40625 h -3.1875 v -1.46875 q -0.46875,0.71875 -1.3125,1.17187 -0.82813,0.45313 -1.92188,0.45313 -1.26562,0 -2.3125,-0.65625 -1.04687,-0.67188 -1.65625,-1.89063 -0.60937,-1.23437 -0.60937,-2.82812 z m 7.8125,0.0156 q 0,-1.20312 -0.67188,-1.89062 -0.65625,-0.6875 -1.60937,-0.6875 -0.95313,0 -1.625,0.6875 -0.65625,0.67187 -0.65625,1.875 0,1.1875 0.65625,1.89062 0.67187,0.70313 1.625,0.70313 0.95312,0 1.60937,-0.6875 0.67188,-0.70313 0.67188,-1.89063 z m 7.1051,-6.29687 q -0.84375,0 -1.375,-0.48438 -0.53125,-0.5 -0.53125,-1.21875 0,-0.75 0.53125,-1.23437 0.53125,-0.5 1.375,-0.5 0.8125,0 1.34375,0.5 0.53125,0.48437 0.53125,1.23437 0,0.71875 -0.53125,1.21875 -0.53125,0.48438 -1.34375,0.48438 z m 1.57813,1.09375 v 10.40625 h -3.1875 v -10.40625 z m 5.5036,-3.40625 v 13.8125 h -3.1875 v -13.8125 z m 7.05047,13.96875 q -1.53125,0 -2.75,-0.65625 -1.21875,-0.65625 -1.92187,-1.85938 -0.70313,-1.21875 -0.70313,-2.84375 0,-1.60937 0.70313,-2.82812 0.71875,-1.21875 1.95312,-1.875 1.23438,-0.65625 2.76563,-0.65625 1.53125,0 2.75,0.65625 1.23437,0.65625 1.9375,1.875 0.71875,1.21875 0.71875,2.82812 0,1.60938 -0.71875,2.82813 -0.71875,1.21875 -1.96875,1.875 -1.23438,0.65625 -2.76563,0.65625 z m 0,-2.76563 q 0.92188,0 1.5625,-0.67187 0.64063,-0.67188 0.64063,-1.92188 0,-1.25 -0.625,-1.92187 -0.625,-0.67188 -1.53125,-0.67188 -0.9375,0 -1.5625,0.67188 -0.60938,0.65625 -0.60938,1.92187 0,1.25 0.60938,1.92188 0.60937,0.67187 1.51562,0.67187 z m 10.33716,-6.0625 q 0.5625,-0.85937 1.39063,-1.34375 0.84375,-0.5 1.875,-0.5 v 3.375 h -0.875 q -1.1875,0 -1.79688,0.51563 -0.59375,0.5 -0.59375,1.79687 v 4.82813 h -3.1875 v -10.40625 h 3.1875 z"
       id="path21"
       inkscape:connector-curvature="0"
       style="fill:#000000;fill-rule:nonzero" />
    <path
       d="m 463.8788,246.41168 h 171.51535 c 23.68127,0 42.87878,38.25967 42.87878,85.45538 0,47.19571 -19.19751,85.45538 -42.87878,85.45538 H 463.8788 v 0 c -23.6813,0 -42.87881,-38.25967 -42.87881,-85.45538 0,-47.19571 19.19751,-85.45538 42.87881,-85.45538 z"
       id="path23"
       inkscape:connector-curvature="0"
       style="fill:#32c8cd;fill-opacity:0.88829998;fill-rule:evenodd" />
    <path
       d="m 635.39417,417.32245 c -23.68133,0 -42.87884,-38.25967 -42.87884,-85.45538 0,-47.19571 19.19751,-85.45538 42.87884,-85.45538"
       id="path25"
       inkscape:connector-curvature="0"
       style="fill:#000000;fill-opacity:0;fill-rule:evenodd" />
    <path
       d="m 463.8788,246.41168 h 171.51535 c 23.68127,0 42.87878,38.25967 42.87878,85.45538 0,47.19571 -19.19751,85.45538 -42.87878,85.45538 H 463.8788 v 0 c -23.6813,0 -42.87881,-38.25967 -42.87881,-85.45538 0,-47.19571 19.19751,-85.45538 42.87881,-85.45538 z"
       id="path27"
       inkscape:connector-curvature="0"
       style="fill:#000000;fill-opacity:0;fill-rule:evenodd" />
    <path
       d="m 635.39417,417.32245 c -23.68133,0 -42.87884,-38.25967 -42.87884,-85.45538 0,-47.19571 19.19751,-85.45538 42.87884,-85.45538"
       id="path29"
       inkscape:connector-curvature="0"
       style="fill-rule:evenodd;stroke:#ffffff;stroke-width:3;stroke-linecap:butt;stroke-linejoin:round" />
    <path
       d="m 463.8788,246.41168 h 171.51535 c 23.68127,0 42.87878,38.25967 42.87878,85.45538 0,47.19571 -19.19751,85.45538 -42.87878,85.45538 H 463.8788 v 0 c -23.6813,0 -42.87881,-38.25967 -42.87881,-85.45538 0,-47.19571 19.19751,-85.45538 42.87881,-85.45538 z"
       id="path31"
       inkscape:connector-curvature="0"
       style="fill-rule:evenodd;stroke:#ffffff;stroke-width:3;stroke-linecap:butt;stroke-linejoin:round" />
    <path
       d="m 483.45694,325.69333 v 2.54687 h -3.46875 v 10.54688 h -3.1875 V 328.2402 h -3.46875 v -2.54687 z m 11.88522,2.6875 v 10.40625 h -3.1875 v -1.42188 q -0.48437,0.6875 -1.32812,1.10938 -0.82813,0.42187 -1.82813,0.42187 -1.1875,0 -2.10937,-0.53125 -0.90625,-0.53125 -1.42188,-1.53125 -0.5,-1.01562 -0.5,-2.375 v -6.07812 h 3.17188 v 5.65625 q 0,1.03125 0.53125,1.60937 0.54687,0.57813 1.46875,0.57813 0.92187,0 1.46875,-0.57813 0.54687,-0.57812 0.54687,-1.60937 v -5.65625 z m 8.63681,-0.10938 q 1.82813,0 2.92188,1.1875 1.09375,1.17188 1.09375,3.25 v 6.07813 h -3.17188 v -5.65625 q 0,-1.04688 -0.54687,-1.625 -0.54688,-0.57813 -1.45313,-0.57813 -0.92187,0 -1.46875,0.57813 -0.53125,0.57812 -0.53125,1.625 v 5.65625 h -3.1875 v -10.40625 h 3.1875 v 1.375 q 0.48438,-0.6875 1.29688,-1.07813 0.82812,-0.40625 1.85937,-0.40625 z m 16.04306,5.14063 q 0,0.45312 -0.0625,0.9375 h -7.21875 q 0.0781,0.96875 0.625,1.48437 0.5625,0.51563 1.35938,0.51563 1.1875,0 1.65625,-1.01563 h 3.40625 q -0.26563,1.03125 -0.95313,1.85938 -0.67187,0.8125 -1.70312,1.28125 -1.03125,0.46875 -2.29688,0.46875 -1.53125,0 -2.73437,-0.65625 -1.1875,-0.65625 -1.85938,-1.85938 -0.67187,-1.21875 -0.67187,-2.84375 0,-1.625 0.65625,-2.82812 0.67187,-1.21875 1.85937,-1.875 1.20313,-0.65625 2.75,-0.65625 1.51563,0 2.6875,0.64062 1.17188,0.625 1.82813,1.8125 0.67187,1.17188 0.67187,2.73438 z m -3.26562,-0.84375 q 0,-0.8125 -0.5625,-1.29688 -0.5625,-0.48437 -1.39063,-0.48437 -0.8125,0 -1.35937,0.46875 -0.54688,0.45312 -0.67188,1.3125 z m 8.13287,-2.45313 q 0.5625,-0.85937 1.39063,-1.34375 0.84375,-0.5 1.875,-0.5 v 3.375 h -0.875 q -1.1875,0 -1.79688,0.51563 -0.59375,0.5 -0.59375,1.79687 v 4.82813 h -3.1875 v -10.40625 h 3.1875 z"
       id="path33"
       inkscape:connector-curvature="0"
       style="fill:#000000;fill-rule:nonzero" />
    <path
       d="m 253.33553,10.832943 h 171.5153 c 23.68133,0 42.87881,38.259678 42.87881,85.45538 0,47.195697 -19.19747,85.455377 -42.87881,85.455377 h -171.5153 v 0 c -23.68132,0 -42.87883,-38.25968 -42.87883,-85.455378 0,-47.1957 19.19751,-85.45538 42.87883,-85.455379 z"
       id="path65"
       inkscape:connector-curvature="0"
       style="fill:#32c8cd;fill-opacity:0.88829998;fill-rule:evenodd" />
    <path
       d="m 424.85083,181.7437 c -23.68134,0 -42.87882,-38.25967 -42.87882,-85.455376 0,-47.1957 19.19748,-85.45538 42.87882,-85.45538"
       id="path67"
       inkscape:connector-curvature="0"
       style="fill:#000000;fill-opacity:0;fill-rule:evenodd" />
    <path
       d="m 253.33553,10.832943 h 171.5153 c 23.68133,0 42.87881,38.259678 42.87881,85.45538 0,47.195697 -19.19747,85.455377 -42.87881,85.455377 h -171.5153 v 0 c -23.68132,0 -42.87883,-38.25968 -42.87883,-85.455378 0,-47.1957 19.19751,-85.45538 42.87883,-85.455379 z"
       id="path69"
       inkscape:connector-curvature="0"
       style="fill:#000000;fill-opacity:0;fill-rule:evenodd" />
    <path
       d="m 424.85083,181.7437 c -23.68134,0 -42.87882,-38.25967 -42.87882,-85.455376 0,-47.1957 19.19748,-85.45538 42.87882,-85.45538"
       id="path71"
       inkscape:connector-curvature="0"
       style="fill-rule:evenodd;stroke:#ffffff;stroke-width:3;stroke-linecap:butt;stroke-linejoin:round" />
    <path
       d="m 253.33553,10.832943 h 171.5153 c 23.68133,0 42.87881,38.259678 42.87881,85.45538 0,47.195697 -19.19747,85.455377 -42.87881,85.455377 h -171.5153 v 0 c -23.68132,0 -42.87883,-38.25968 -42.87883,-85.455378 0,-47.1957 19.19751,-85.45538 42.87883,-85.455379 z"
       id="path73"
       inkscape:connector-curvature="0"
       style="fill-rule:evenodd;stroke:#ffffff;stroke-width:3;stroke-linecap:butt;stroke-linejoin:round" />
    <path
       d="m 272.91364,90.11457 v 2.546875 h -3.46875 v 10.546875 h -3.1875 V 92.661445 h -3.46875 V 90.11457 Z m 11.88522,2.6875 v 10.40625 h -3.1875 v -1.42187 q -0.48437,0.6875 -1.32812,1.10937 -0.82813,0.42188 -1.82813,0.42188 -1.1875,0 -2.10937,-0.53125 -0.90625,-0.53125 -1.42188,-1.53125 -0.5,-1.01563 -0.5,-2.375005 V 92.80207 h 3.17188 v 5.65625 q 0,1.03125 0.53125,1.60938 0.54687,0.57812 1.46875,0.57812 0.92187,0 1.46875,-0.57812 0.54687,-0.57813 0.54687,-1.60938 v -5.65625 z m 8.63681,-0.109375 q 1.82813,0 2.92188,1.1875 1.09375,1.171875 1.09375,3.25 v 6.078125 h -3.17188 v -5.65625 q 0,-1.046875 -0.54687,-1.625 -0.54688,-0.578125 -1.45313,-0.578125 -0.92187,0 -1.46875,0.578125 -0.53125,0.578125 -0.53125,1.625 v 5.65625 h -3.1875 V 92.80207 h 3.1875 v 1.375 q 0.48438,-0.6875 1.29688,-1.078125 0.82812,-0.40625 1.85937,-0.40625 z m 16.04306,5.140625 q 0,0.453125 -0.0625,0.9375 h -7.21875 q 0.0781,0.96875 0.625,1.48438 0.5625,0.51562 1.35938,0.51562 1.1875,0 1.65625,-1.015625 h 3.40625 q -0.26563,1.031255 -0.95313,1.859375 -0.67187,0.8125 -1.70312,1.28125 -1.03125,0.46875 -2.29688,0.46875 -1.53125,0 -2.73437,-0.65625 -1.1875,-0.65625 -1.85938,-1.85937 -0.67187,-1.218755 -0.67187,-2.843755 0,-1.625 0.65625,-2.828125 0.67187,-1.21875 1.85937,-1.875 1.20313,-0.65625 2.75,-0.65625 1.51563,0 2.6875,0.640625 1.17188,0.625 1.82813,1.8125 0.67187,1.171875 0.67187,2.734375 z m -3.26562,-0.84375 q 0,-0.8125 -0.5625,-1.296875 -0.5625,-0.484375 -1.39063,-0.484375 -0.8125,0 -1.35937,0.46875 -0.54688,0.453125 -0.67188,1.3125 z m 8.13287,-2.453125 q 0.5625,-0.859375 1.39063,-1.34375 0.84375,-0.5 1.875,-0.5 v 3.375 h -0.875 q -1.1875,0 -1.79688,0.515625 -0.59375,0.5 -0.59375,1.796875 v 4.828125 h -3.1875 V 92.80207 h 3.1875 z"
       id="path75"
       inkscape:connector-curvature="0"
       style="fill:#000000;fill-rule:nonzero" />
    <path
       d="M 10.65748,6.8342547 H 152.73622 V 79.968115 H 10.65748 Z"
       id="path77"
       inkscape:connector-curvature="0"
       style="fill:#000000;fill-opacity:0;fill-rule:evenodd" />
    <path
       d="m 23.22518,48.74618 h 4.546875 v 1.375 h -6.25 v -13 h 1.703125 z m 5.715759,-3.78125 q 0,-1.5625 0.640625,-2.734375 0.640625,-1.1875 1.75,-1.84375 1.109377,-0.65625 2.468752,-0.65625 1.34375,0 2.328125,0.578125 0.984375,0.578125 1.46875,1.453125 V 39.90243 h 1.71875 v 10.21875 h -1.71875 v -1.90625 q -0.5,0.90625 -1.5,1.5 -1,0.578125 -2.3125,0.578125 -1.375,0 -2.468752,-0.671875 -1.09375,-0.671875 -1.734375,-1.875 -0.640625,-1.21875 -0.640625,-2.78125 z m 8.656252,0.03125 q 0,-1.15625 -0.46875,-2.015625 -0.453125,-0.859375 -1.25,-1.3125 -0.796875,-0.46875 -1.75,-0.46875 -0.953125,0 -1.734375,0.453125 -0.781252,0.453125 -1.250002,1.3125 -0.46875,0.84375 -0.46875,2 0,1.1875 0.46875,2.0625 0.46875,0.859375 1.250002,1.3125 0.78125,0.453125 1.734375,0.453125 0.953125,0 1.75,-0.453125 0.796875,-0.453125 1.25,-1.3125 0.46875,-0.875 0.46875,-2.03125 z m 6.299134,-3.203125 q 0.515625,-0.90625 1.515625,-1.484375 1.015625,-0.578125 2.296875,-0.578125 1.390625,0 2.484375,0.65625 1.109375,0.65625 1.734375,1.84375 0.640625,1.171875 0.640625,2.734375 0,1.5625 -0.640625,2.78125 -0.625,1.203125 -1.734375,1.875 -1.109375,0.671875 -2.484375,0.671875 -1.3125,0 -2.3125,-0.578125 -1,-0.578125 -1.5,-1.484375 V 50.12118 H 42.1932 v -13.8125 h 1.703125 z m 6.9375,3.171875 q 0,-1.15625 -0.46875,-2 -0.46875,-0.859375 -1.265625,-1.3125 -0.78125,-0.453125 -1.734375,-0.453125 -0.9375,0 -1.734375,0.46875 -0.796875,0.453125 -1.265625,1.328125 -0.46875,0.859375 -0.46875,2 0,1.15625 0.46875,2.03125 0.46875,0.859375 1.265625,1.3125 0.796875,0.453125 1.734375,0.453125 0.953125,0 1.734375,-0.453125 0.796875,-0.453125 1.265625,-1.3125 0.46875,-0.875 0.46875,-2.0625 z m 13.299133,-0.34375 q 0,0.484375 -0.0625,1.015625 h -8.171875 q 0.09375,1.515625 1.03125,2.375 0.953125,0.84375 2.296875,0.84375 1.09375,0 1.828125,-0.515625 0.75,-0.515625 1.046875,-1.375 h 1.828125 q -0.40625,1.484375 -1.640625,2.40625 -1.234375,0.921875 -3.0625,0.921875 -1.453125,0 -2.609375,-0.65625 -1.140625,-0.65625 -1.796875,-1.859375 -0.65625,-1.203125 -0.65625,-2.78125 0,-1.59375 0.640625,-2.78125 0.640625,-1.203125 1.78125,-1.84375 1.140625,-0.640625 2.640625,-0.640625 1.453125,0 2.5625,0.640625 1.125,0.625 1.734375,1.734375 0.609375,1.109375 0.609375,2.515625 z m -1.75,-0.359375 q 0,-0.96875 -0.4375,-1.671875 -0.421875,-0.703125 -1.171875,-1.0625 -0.734375,-0.359375 -1.625,-0.359375 -1.28125,0 -2.1875,0.828125 -0.90625,0.8125 -1.03125,2.265625 z m 5.691879,-7.953125 v 13.8125 h -1.703125 v -13.8125 z m 12.214432,8.3125 q 0,0.484375 -0.0625,1.015625 h -8.171875 q 0.09375,1.515625 1.03125,2.375 0.953125,0.84375 2.296875,0.84375 1.09375,0 1.828125,-0.515625 0.75,-0.515625 1.046875,-1.375 h 1.828125 q -0.40625,1.484375 -1.640625,2.40625 -1.234375,0.921875 -3.0625,0.921875 -1.453125,0 -2.609375,-0.65625 -1.140625,-0.65625 -1.796875,-1.859375 -0.65625,-1.203125 -0.65625,-2.78125 0,-1.59375 0.640625,-2.78125 0.640625,-1.203125 1.78125,-1.84375 1.140625,-0.640625 2.640625,-0.640625 1.453125,0 2.5625,0.640625 1.125,0.625 1.734375,1.734375 0.609375,1.109375 0.609375,2.515625 z m -1.75,-0.359375 q 0,-0.96875 -0.4375,-1.671875 -0.421875,-0.703125 -1.171875,-1.0625 -0.734375,-0.359375 -1.625,-0.359375 -1.28125,0 -2.1875,0.828125 -0.90625,0.8125 -1.03125,2.265625 z m 3.348129,0.703125 q 0,-1.5625 0.640625,-2.734375 0.640625,-1.1875 1.75,-1.84375 1.109375,-0.65625 2.484375,-0.65625 1.1875,0 2.21875,0.546875 1.03125,0.546875 1.5625,1.453125 V 36.30868 h 1.71875 v 13.8125 h -1.71875 v -1.921875 q -0.5,0.921875 -1.484375,1.515625 -0.984375,0.578125 -2.3125,0.578125 -1.359375,0 -2.46875,-0.671875 -1.109375,-0.671875 -1.75,-1.875 -0.640625,-1.21875 -0.640625,-2.78125 z m 8.65625,0.03125 q 0,-1.15625 -0.46875,-2.015625 -0.453125,-0.859375 -1.25,-1.3125 -0.796875,-0.46875 -1.75,-0.46875 -0.953125,0 -1.734375,0.453125 -0.78125,0.453125 -1.25,1.3125 -0.46875,0.84375 -0.46875,2 0,1.1875 0.46875,2.0625 0.46875,0.859375 1.25,1.3125 0.78125,0.453125 1.734375,0.453125 0.953125,0 1.75,-0.453125 0.796875,-0.453125 1.25,-1.3125 0.46875,-0.875 0.46875,-2.03125 z m 8.9366,-0.03125 q 0,-1.5625 0.640622,-2.734375 0.64063,-1.1875 1.75,-1.84375 1.10938,-0.65625 2.48438,-0.65625 1.1875,0 2.21875,0.546875 1.03125,0.546875 1.5625,1.453125 V 36.30868 h 1.71875 v 13.8125 h -1.71875 v -1.921875 q -0.5,0.921875 -1.48438,1.515625 -0.98437,0.578125 -2.3125,0.578125 -1.35937,0 -2.46875,-0.671875 -1.10937,-0.671875 -1.75,-1.875 -0.640622,-1.21875 -0.640622,-2.78125 z m 8.656252,0.03125 q 0,-1.15625 -0.46875,-2.015625 -0.45313,-0.859375 -1.25,-1.3125 -0.79688,-0.46875 -1.75,-0.46875 -0.95313,0 -1.73438,0.453125 -0.78125,0.453125 -1.25,1.3125 -0.46875,0.84375 -0.46875,2 0,1.1875 0.46875,2.0625 0.46875,0.859375 1.25,1.3125 0.78125,0.453125 1.73438,0.453125 0.95312,0 1.75,-0.453125 0.79687,-0.453125 1.25,-1.3125 0.46875,-0.875 0.46875,-2.03125 z m 3.95538,-0.03125 q 0,-1.5625 0.64063,-2.734375 0.64062,-1.1875 1.75,-1.84375 1.10937,-0.65625 2.46875,-0.65625 1.34375,0 2.32812,0.578125 0.98438,0.578125 1.46875,1.453125 V 39.90243 h 1.71875 v 10.21875 h -1.71875 v -1.90625 q -0.5,0.90625 -1.5,1.5 -1,0.578125 -2.3125,0.578125 -1.375,0 -2.46875,-0.671875 -1.09375,-0.671875 -1.73437,-1.875 -0.64063,-1.21875 -0.64063,-2.78125 z m 8.65625,0.03125 q 0,-1.15625 -0.46875,-2.015625 -0.45312,-0.859375 -1.25,-1.3125 -0.79687,-0.46875 -1.75,-0.46875 -0.95312,0 -1.73437,0.453125 -0.78125,0.453125 -1.25,1.3125 -0.46875,0.84375 -0.46875,2 0,1.1875 0.46875,2.0625 0.46875,0.859375 1.25,1.3125 0.78125,0.453125 1.73437,0.453125 0.95313,0 1.75,-0.453125 0.79688,-0.453125 1.25,-1.3125 0.46875,-0.875 0.46875,-2.03125 z m 6.65851,-3.703125 v 6.03125 q 0,0.75 0.3125,1.0625 0.32813,0.296875 1.10938,0.296875 h 1.25 v 1.4375 h -1.53125 q -1.40626,0 -2.12501,-0.65625 -0.70312,-0.65625 -0.70312,-2.140625 v -6.03125 h -1.32813 V 39.90243 h 1.32813 v -2.578125 h 1.6875 v 2.578125 h 2.67188 v 1.390625 z m 4.08776,3.671875 q 0,-1.5625 0.64063,-2.734375 0.64062,-1.1875 1.75,-1.84375 1.10937,-0.65625 2.46875,-0.65625 1.34375,0 2.32812,0.578125 0.98438,0.578125 1.46875,1.453125 V 39.90243 h 1.71875 v 10.21875 h -1.71875 v -1.90625 q -0.5,0.90625 -1.5,1.5 -1,0.578125 -2.3125,0.578125 -1.375,0 -2.46875,-0.671875 -1.09375,-0.671875 -1.73437,-1.875 -0.64063,-1.21875 -0.64063,-2.78125 z m 8.65625,0.03125 q 0,-1.15625 -0.46875,-2.015625 -0.45312,-0.859375 -1.25,-1.3125 -0.79687,-0.46875 -1.75,-0.46875 -0.95312,0 -1.73437,0.453125 -0.78125,0.453125 -1.25,1.3125 -0.46875,0.84375 -0.46875,2 0,1.1875 0.46875,2.0625 0.46875,0.859375 1.25,1.3125 0.78125,0.453125 1.73437,0.453125 0.95313,0 1.75,-0.453125 0.79688,-0.453125 1.25,-1.3125 0.46875,-0.875 0.46875,-2.03125 z"
       id="path79"
       inkscape:connector-curvature="0"
       style="fill:#000000;fill-rule:nonzero" />
    <path
       d="m 10.65748,104.41431 h 142.07874 v 73.13387 H 10.65748 Z"
       id="path81"
       inkscape:connector-curvature="0"
       style="fill:#000000;fill-opacity:0;fill-rule:evenodd" />
    <path
       d="m 31.17275,124.87624 v 4.34375 h 4.734377 v 1.40625 H 31.17275 v 4.46875 h 5.296877 v 1.40625 h -7.000002 v -13.01563 h 7.000002 v 1.39063 z m 20.164415,1.21875 q 1.1875,0 2.125,0.5 0.9375,0.48437 1.46875,1.48437 0.546875,0.98438 0.546875,2.39063 v 6.03125 h -1.6875 v -5.78125 q 0,-1.53125 -0.75,-2.34375 -0.75,-0.8125 -2.046875,-0.8125 -1.3125,0 -2.109375,0.85937 -0.78125,0.84375 -0.78125,2.4375 v 5.64063 h -1.671875 v -5.78125 q 0,-1.53125 -0.765625,-2.34375 -0.75,-0.8125 -2.03125,-0.8125 -1.328125,0 -2.109375,0.85937 -0.78125,0.84375 -0.78125,2.4375 v 5.64063 H 39.04029 v -10.21875 h 1.703125 v 1.46875 q 0.5,-0.79688 1.34375,-1.21875 0.84375,-0.4375 1.875,-0.4375 1.296875,0 2.28125,0.57812 0.984375,0.57813 1.46875,1.6875 0.4375,-1.07812 1.421875,-1.67187 0.984375,-0.59375 2.203125,-0.59375 z m 8.622192,2.07812 q 0.515625,-0.90625 1.515625,-1.48437 1.015625,-0.57813 2.296875,-0.57813 1.390625,0 2.484375,0.65625 1.109375,0.65625 1.734375,1.84375 0.640625,1.17188 0.640625,2.73438 0,1.5625 -0.640625,2.78125 -0.625,1.20312 -1.734375,1.875 -1.109375,0.67187 -2.484375,0.67187 -1.3125,0 -2.3125,-0.57812 -1,-0.57813 -1.5,-1.48438 v 1.89063 h -1.703125 v -13.8125 h 1.703125 z m 6.9375,3.17188 q 0,-1.15625 -0.46875,-2 -0.46875,-0.85938 -1.265625,-1.3125 -0.78125,-0.45313 -1.734375,-0.45313 -0.9375,0 -1.734375,0.46875 -0.796875,0.45313 -1.265625,1.32813 -0.46875,0.85937 -0.46875,2 0,1.15625 0.46875,2.03125 0.46875,0.85937 1.265625,1.3125 0.796875,0.45312 1.734375,0.45312 0.953125,0 1.734375,-0.45312 0.796875,-0.45313 1.265625,-1.3125 0.46875,-0.875 0.46875,-2.0625 z m 13.299133,-0.34375 q 0,0.48437 -0.0625,1.01562 h -8.171875 q 0.09375,1.51563 1.03125,2.375 0.953125,0.84375 2.296875,0.84375 1.09375,0 1.828125,-0.51562 0.75,-0.51563 1.046875,-1.375 h 1.828125 q -0.40625,1.48437 -1.640625,2.40625 -1.234375,0.92187 -3.0625,0.92187 -1.453125,0 -2.609375,-0.65625 -1.140625,-0.65625 -1.796875,-1.85937 -0.65625,-1.20313 -0.65625,-2.78125 0,-1.59375 0.640625,-2.78125 0.640625,-1.20313 1.78125,-1.84375 1.140625,-0.64063 2.640625,-0.64063 1.453125,0 2.5625,0.64063 1.125,0.625 1.734375,1.73437 0.609375,1.10938 0.609375,2.51563 z m -1.75,-0.35938 q 0,-0.96875 -0.4375,-1.67187 -0.421875,-0.70313 -1.171875,-1.0625 -0.734375,-0.35938 -1.625,-0.35938 -1.28125,0 -2.1875,0.82813 -0.90625,0.8125 -1.03125,2.26562 z m 3.348129,0.70313 q 0,-1.5625 0.640625,-2.73438 0.640625,-1.1875 1.75,-1.84375 1.109375,-0.65625 2.484375,-0.65625 1.1875,0 2.21875,0.54688 1.03125,0.54687 1.5625,1.45312 v -5.42187 h 1.71875 v 13.8125 h -1.71875 v -1.92188 q -0.5,0.92188 -1.484375,1.51563 -0.984375,0.57812 -2.3125,0.57812 -1.359375,0 -2.46875,-0.67187 -1.109375,-0.67188 -1.75,-1.875 -0.640625,-1.21875 -0.640625,-2.78125 z m 8.65625,0.0312 q 0,-1.15625 -0.46875,-2.01563 -0.453125,-0.85937 -1.25,-1.3125 -0.796875,-0.46875 -1.75,-0.46875 -0.953125,0 -1.734375,0.45313 -0.78125,0.45312 -1.25,1.3125 -0.46875,0.84375 -0.46875,2 0,1.1875 0.46875,2.0625 0.46875,0.85937 1.25,1.3125 0.78125,0.45312 1.734375,0.45312 0.953125,0 1.75,-0.45312 0.796875,-0.45313 1.25,-1.3125 0.46875,-0.875 0.46875,-2.03125 z m 3.955384,-0.0312 q 0,-1.5625 0.640625,-2.73438 0.640625,-1.1875 1.75,-1.84375 1.109375,-0.65625 2.484375,-0.65625 1.187497,0 2.218747,0.54688 1.03125,0.54687 1.5625,1.45312 v -5.42187 h 1.71875 v 13.8125 H 103.062 v -1.92188 q -0.5,0.92188 -1.48437,1.51563 -0.98438,0.57812 -2.312502,0.57812 -1.359375,0 -2.46875,-0.67187 -1.109375,-0.67188 -1.75,-1.875 -0.640625,-1.21875 -0.640625,-2.78125 z m 8.656247,0.0312 q 0,-1.15625 -0.46875,-2.01563 -0.45312,-0.85937 -1.25,-1.3125 -0.79687,-0.46875 -1.749997,-0.46875 -0.953125,0 -1.734375,0.45313 -0.78125,0.45312 -1.25,1.3125 -0.46875,0.84375 -0.46875,2 0,1.1875 0.46875,2.0625 0.46875,0.85937 1.25,1.3125 0.78125,0.45312 1.734375,0.45312 0.953127,0 1.749997,-0.45312 0.79688,-0.45313 1.25,-1.3125 0.46875,-0.875 0.46875,-2.03125 z m 5.47101,-6.76563 q -0.48437,0 -0.82812,-0.32812 -0.32813,-0.34375 -0.32813,-0.82813 0,-0.48437 0.32813,-0.8125 0.34375,-0.34375 0.82812,-0.34375 0.46875,0 0.79688,0.34375 0.32812,0.32813 0.32812,0.8125 0,0.48438 -0.32812,0.82813 -0.32813,0.32812 -0.79688,0.32812 z m 0.82813,1.67188 v 10.21875 h -1.70313 v -10.21875 z m 7.87068,-0.1875 q 1.85937,0 3.01562,1.125 1.15625,1.125 1.15625,3.25 v 6.03125 h -1.67187 v -5.78125 q 0,-1.53125 -0.76563,-2.34375 -0.76562,-0.8125 -2.09375,-0.8125 -1.34375,0 -2.14062,0.84375 -0.78125,0.84375 -0.78125,2.4375 v 5.65625 h -1.70313 v -10.21875 h 1.70313 v 1.45312 q 0.5,-0.78125 1.35937,-1.20312 0.875,-0.4375 1.92188,-0.4375 z m 11.17438,0.0156 q 1.32813,0 2.3125,0.57813 1,0.57812 1.48438,1.45312 v -1.85937 h 1.71875 v 10.4375 q 0,1.40625 -0.59375,2.5 -0.59375,1.09375 -1.70313,1.70312 -1.10937,0.60938 -2.59375,0.60938 -2.01563,0 -3.35938,-0.95313 -1.34375,-0.9375 -1.57812,-2.57812 h 1.67187 q 0.28125,0.92187 1.15625,1.48437 0.89063,0.57813 2.10938,0.57813 1.40625,0 2.28125,-0.875 0.89063,-0.875 0.89063,-2.46875 v -2.14063 q -0.5,0.89063 -1.48438,1.5 -0.98437,0.59375 -2.3125,0.59375 -1.35938,0 -2.46875,-0.67187 -1.10938,-0.67188 -1.75,-1.875 -0.64063,-1.21875 -0.64063,-2.78125 0,-1.5625 0.64063,-2.73438 0.64062,-1.1875 1.75,-1.84375 1.10937,-0.65625 2.46875,-0.65625 z m 3.79688,5.26563 q 0,-1.15625 -0.46875,-2.01563 -0.45313,-0.85937 -1.25,-1.3125 -0.79688,-0.46875 -1.75,-0.46875 -0.95313,0 -1.73438,0.45313 -0.78125,0.45312 -1.25,1.3125 -0.46875,0.84375 -0.46875,2 0,1.1875 0.46875,2.0625 0.46875,0.85937 1.25,1.3125 0.78125,0.45312 1.73438,0.45312 0.95312,0 1.75,-0.45312 0.79687,-0.45313 1.25,-1.3125 0.46875,-0.875 0.46875,-2.03125 z"
       id="path83"
       inkscape:connector-curvature="0"
       style="fill:#000000;fill-rule:nonzero" />
    <path
       d="m 65.469284,148.49498 q 1.1875,0 2.125,0.5 0.9375,0.48437 1.46875,1.48437 0.546875,0.98438 0.546875,2.39063 v 6.03125 h -1.6875 v -5.78125 q 0,-1.53125 -0.75,-2.34375 -0.75,-0.8125 -2.046875,-0.8125 -1.3125,0 -2.109375,0.85937 -0.78125,0.84375 -0.78125,2.4375 v 5.64063 h -1.671875 v -5.78125 q 0,-1.53125 -0.765625,-2.34375 -0.75,-0.8125 -2.03125,-0.8125 -1.328125,0 -2.109375,0.85937 -0.78125,0.84375 -0.78125,2.4375 v 5.64063 h -1.703125 v -10.21875 h 1.703125 v 1.46875 q 0.5,-0.79688 1.34375,-1.21875 0.84375,-0.4375 1.875,-0.4375 1.296875,0 2.28125,0.57812 0.984375,0.57813 1.46875,1.6875 0.4375,-1.07812 1.421875,-1.67187 0.984375,-0.59375 2.203125,-0.59375 z m 11.372185,10.57812 q -1.4375,0 -2.609367,-0.65625 -1.15625,-0.65625 -1.828125,-1.85937 -0.65625,-1.20313 -0.65625,-2.78125 0,-1.57813 0.6875,-2.78125 0.6875,-1.20313 1.859375,-1.84375 1.171867,-0.64063 2.624992,-0.64063 1.453125,0 2.625,0.64063 1.1875,0.64062 1.859375,1.84375 0.6875,1.1875 0.6875,2.78125 0,1.57812 -0.703125,2.78125 -0.703125,1.20312 -1.90625,1.85937 -1.1875,0.65625 -2.640625,0.65625 z m 0,-1.5 q 0.921875,0 1.71875,-0.42187 0.796875,-0.4375 1.296875,-1.29688 0.5,-0.85937 0.5,-2.07812 0,-1.23438 -0.484375,-2.09375 -0.484375,-0.85938 -1.28125,-1.28125 -0.78125,-0.42188 -1.6875,-0.42188 -0.9375,0 -1.71875,0.42188 -0.765617,0.42187 -1.234367,1.28125 -0.46875,0.85937 -0.46875,2.09375 0,1.25 0.453125,2.10937 0.46875,0.84375 1.234367,1.26563 0.765625,0.42187 1.671875,0.42187 z m 6.846252,-3.82812 q 0,-1.5625 0.640625,-2.73438 0.640625,-1.1875 1.75,-1.84375 1.109375,-0.65625 2.484375,-0.65625 1.1875,0 2.21875,0.54688 1.03125,0.54687 1.5625,1.45312 v -5.42187 h 1.71875 v 13.8125 h -1.71875 v -1.92188 q -0.5,0.92188 -1.484375,1.51563 -0.984375,0.57812 -2.3125,0.57812 -1.359375,0 -2.46875,-0.67187 -1.109375,-0.67188 -1.75,-1.875 -0.640625,-1.21875 -0.640625,-2.78125 z m 8.65625,0.0312 q 0,-1.15625 -0.46875,-2.01563 -0.453125,-0.85937 -1.25,-1.3125 -0.796875,-0.46875 -1.75,-0.46875 -0.953125,0 -1.734375,0.45313 -0.78125,0.45312 -1.25,1.3125 -0.46875,0.84375 -0.46875,2 0,1.1875 0.46875,2.0625 0.46875,0.85937 1.25,1.3125 0.78125,0.45312 1.734375,0.45312 0.953125,0 1.75,-0.45312 0.796875,-0.45313 1.25,-1.3125 0.46875,-0.875 0.46875,-2.03125 z m 13.924129,-0.375 q 0,0.48437 -0.0625,1.01562 h -8.171871 q 0.09375,1.51563 1.03125,2.375 0.953121,0.84375 2.296871,0.84375 1.09375,0 1.82813,-0.51562 0.75,-0.51563 1.04687,-1.375 h 1.82813 q -0.40625,1.48437 -1.64063,2.40625 -1.23437,0.92187 -3.0625,0.92187 -1.453121,0 -2.609371,-0.65625 -1.140625,-0.65625 -1.796875,-1.85937 -0.65625,-1.20313 -0.65625,-2.78125 0,-1.59375 0.640625,-2.78125 0.640625,-1.20313 1.78125,-1.84375 1.140625,-0.64063 2.640621,-0.64063 1.45313,0 2.5625,0.64063 1.125,0.625 1.73438,1.73437 0.60937,1.10938 0.60937,2.51563 z m -1.75,-0.35938 q 0,-0.96875 -0.4375,-1.67187 -0.42187,-0.70313 -1.17187,-1.0625 -0.73438,-0.35938 -1.625,-0.35938 -1.28125,0 -2.187501,0.82813 -0.90625,0.8125 -1.03125,2.26562 z m 5.69188,-7.95312 v 13.8125 h -1.70312 v -13.8125 z"
       id="path85"
       inkscape:connector-curvature="0"
       style="fill:#000000;fill-rule:nonzero" />
    <path
       d="m 10.65748,246.5101 h 142.07874 v 73.13385 H 10.65748 Z"
       id="path87"
       inkscape:connector-curvature="0"
       style="fill:#000000;fill-opacity:0;fill-rule:evenodd" />
    <path
       d="m 23.22518,288.42203 h 4.546875 v 1.375 h -6.25 v -13 h 1.703125 z m 5.715759,-3.78125 q 0,-1.5625 0.640625,-2.73438 0.640625,-1.1875 1.75,-1.84375 1.109377,-0.65625 2.468752,-0.65625 1.34375,0 2.328125,0.57813 0.984375,0.57812 1.46875,1.45312 v -1.85937 h 1.71875 v 10.21875 h -1.71875 v -1.90625 q -0.5,0.90625 -1.5,1.5 -1,0.57812 -2.3125,0.57812 -1.375,0 -2.468752,-0.67187 -1.09375,-0.67188 -1.734375,-1.875 -0.640625,-1.21875 -0.640625,-2.78125 z m 8.656252,0.0312 q 0,-1.15625 -0.46875,-2.01563 -0.453125,-0.85937 -1.25,-1.3125 -0.796875,-0.46875 -1.75,-0.46875 -0.953125,0 -1.734375,0.45313 -0.781252,0.45312 -1.250002,1.3125 -0.46875,0.84375 -0.46875,2 0,1.1875 0.46875,2.0625 0.46875,0.85937 1.250002,1.3125 0.78125,0.45312 1.734375,0.45312 0.953125,0 1.75,-0.45312 0.796875,-0.45313 1.25,-1.3125 0.46875,-0.875 0.46875,-2.03125 z m 6.299134,-3.20313 q 0.515625,-0.90625 1.515625,-1.48437 1.015625,-0.57813 2.296875,-0.57813 1.390625,0 2.484375,0.65625 1.109375,0.65625 1.734375,1.84375 0.640625,1.17188 0.640625,2.73438 0,1.5625 -0.640625,2.78125 -0.625,1.20312 -1.734375,1.875 -1.109375,0.67187 -2.484375,0.67187 -1.3125,0 -2.3125,-0.57812 -1,-0.57813 -1.5,-1.48438 v 1.89063 H 42.1932 v -13.8125 h 1.703125 z m 6.9375,3.17188 q 0,-1.15625 -0.46875,-2 -0.46875,-0.85938 -1.265625,-1.3125 -0.78125,-0.45313 -1.734375,-0.45313 -0.9375,0 -1.734375,0.46875 -0.796875,0.45313 -1.265625,1.32813 -0.46875,0.85937 -0.46875,2 0,1.15625 0.46875,2.03125 0.46875,0.85937 1.265625,1.3125 0.796875,0.45312 1.734375,0.45312 0.953125,0 1.734375,-0.45312 0.796875,-0.45313 1.265625,-1.3125 0.46875,-0.875 0.46875,-2.0625 z m 13.299133,-0.34375 q 0,0.48437 -0.0625,1.01562 h -8.171875 q 0.09375,1.51563 1.03125,2.375 0.953125,0.84375 2.296875,0.84375 1.09375,0 1.828125,-0.51562 0.75,-0.51563 1.046875,-1.375 h 1.828125 q -0.40625,1.48437 -1.640625,2.40625 -1.234375,0.92187 -3.0625,0.92187 -1.453125,0 -2.609375,-0.65625 -1.140625,-0.65625 -1.796875,-1.85937 -0.65625,-1.20313 -0.65625,-2.78125 0,-1.59375 0.640625,-2.78125 0.640625,-1.20313 1.78125,-1.84375 1.140625,-0.64063 2.640625,-0.64063 1.453125,0 2.5625,0.64063 1.125,0.625 1.734375,1.73437 0.609375,1.10938 0.609375,2.51563 z m -1.75,-0.35938 q 0,-0.96875 -0.4375,-1.67187 -0.421875,-0.70313 -1.171875,-1.0625 -0.734375,-0.35938 -1.625,-0.35938 -1.28125,0 -2.1875,0.82813 -0.90625,0.8125 -1.03125,2.26562 z m 5.691879,-7.95312 v 13.8125 h -1.703125 v -13.8125 z m 12.214432,8.3125 q 0,0.48437 -0.0625,1.01562 h -8.171875 q 0.09375,1.51563 1.03125,2.375 0.953125,0.84375 2.296875,0.84375 1.09375,0 1.828125,-0.51562 0.75,-0.51563 1.046875,-1.375 h 1.828125 q -0.40625,1.48437 -1.640625,2.40625 -1.234375,0.92187 -3.0625,0.92187 -1.453125,0 -2.609375,-0.65625 -1.140625,-0.65625 -1.796875,-1.85937 -0.65625,-1.20313 -0.65625,-2.78125 0,-1.59375 0.640625,-2.78125 0.640625,-1.20313 1.78125,-1.84375 1.140625,-0.64063 2.640625,-0.64063 1.453125,0 2.5625,0.64063 1.125,0.625 1.734375,1.73437 0.609375,1.10938 0.609375,2.51563 z m -1.75,-0.35938 q 0,-0.96875 -0.4375,-1.67187 -0.421875,-0.70313 -1.171875,-1.0625 -0.734375,-0.35938 -1.625,-0.35938 -1.28125,0 -2.1875,0.82813 -0.90625,0.8125 -1.03125,2.26562 z m 3.348129,0.70313 q 0,-1.5625 0.640625,-2.73438 0.640625,-1.1875 1.75,-1.84375 1.109375,-0.65625 2.484375,-0.65625 1.1875,0 2.21875,0.54688 1.03125,0.54687 1.5625,1.45312 v -5.42187 h 1.71875 v 13.8125 h -1.71875 v -1.92188 q -0.5,0.92188 -1.484375,1.51563 -0.984375,0.57812 -2.3125,0.57812 -1.359375,0 -2.46875,-0.67187 -1.109375,-0.67188 -1.75,-1.875 -0.640625,-1.21875 -0.640625,-2.78125 z m 8.65625,0.0312 q 0,-1.15625 -0.46875,-2.01563 -0.453125,-0.85937 -1.25,-1.3125 -0.796875,-0.46875 -1.75,-0.46875 -0.953125,0 -1.734375,0.45313 -0.78125,0.45312 -1.25,1.3125 -0.46875,0.84375 -0.46875,2 0,1.1875 0.46875,2.0625 0.46875,0.85937 1.25,1.3125 0.78125,0.45312 1.734375,0.45312 0.953125,0 1.75,-0.45312 0.796875,-0.45313 1.25,-1.3125 0.46875,-0.875 0.46875,-2.03125 z m 8.9366,-0.0312 q 0,-1.5625 0.640622,-2.73438 0.64063,-1.1875 1.75,-1.84375 1.10938,-0.65625 2.48438,-0.65625 1.1875,0 2.21875,0.54688 1.03125,0.54687 1.5625,1.45312 v -5.42187 h 1.71875 v 13.8125 h -1.71875 v -1.92188 q -0.5,0.92188 -1.48438,1.51563 -0.98437,0.57812 -2.3125,0.57812 -1.35937,0 -2.46875,-0.67187 -1.10937,-0.67188 -1.75,-1.875 -0.640622,-1.21875 -0.640622,-2.78125 z m 8.656252,0.0312 q 0,-1.15625 -0.46875,-2.01563 -0.45313,-0.85937 -1.25,-1.3125 -0.79688,-0.46875 -1.75,-0.46875 -0.95313,0 -1.73438,0.45313 -0.78125,0.45312 -1.25,1.3125 -0.46875,0.84375 -0.46875,2 0,1.1875 0.46875,2.0625 0.46875,0.85937 1.25,1.3125 0.78125,0.45312 1.73438,0.45312 0.95312,0 1.75,-0.45312 0.79687,-0.45313 1.25,-1.3125 0.46875,-0.875 0.46875,-2.03125 z m 3.95538,-0.0312 q 0,-1.5625 0.64063,-2.73438 0.64062,-1.1875 1.75,-1.84375 1.10937,-0.65625 2.46875,-0.65625 1.34375,0 2.32812,0.57813 0.98438,0.57812 1.46875,1.45312 v -1.85937 h 1.71875 v 10.21875 h -1.71875 v -1.90625 q -0.5,0.90625 -1.5,1.5 -1,0.57812 -2.3125,0.57812 -1.375,0 -2.46875,-0.67187 -1.09375,-0.67188 -1.73437,-1.875 -0.64063,-1.21875 -0.64063,-2.78125 z m 8.65625,0.0312 q 0,-1.15625 -0.46875,-2.01563 -0.45312,-0.85937 -1.25,-1.3125 -0.79687,-0.46875 -1.75,-0.46875 -0.95312,0 -1.73437,0.45313 -0.78125,0.45312 -1.25,1.3125 -0.46875,0.84375 -0.46875,2 0,1.1875 0.46875,2.0625 0.46875,0.85937 1.25,1.3125 0.78125,0.45312 1.73437,0.45312 0.95313,0 1.75,-0.45312 0.79688,-0.45313 1.25,-1.3125 0.46875,-0.875 0.46875,-2.03125 z m 6.65851,-3.70313 v 6.03125 q 0,0.75 0.3125,1.0625 0.32813,0.29688 1.10938,0.29688 h 1.25 v 1.4375 h -1.53125 q -1.40626,0 -2.12501,-0.65625 -0.70312,-0.65625 -0.70312,-2.14063 v -6.03125 h -1.32813 v -1.39062 h 1.32813 v -2.57813 h 1.6875 v 2.57813 h 2.67188 v 1.39062 z m 4.08776,3.67188 q 0,-1.5625 0.64063,-2.73438 0.64062,-1.1875 1.75,-1.84375 1.10937,-0.65625 2.46875,-0.65625 1.34375,0 2.32812,0.57813 0.98438,0.57812 1.46875,1.45312 v -1.85937 h 1.71875 v 10.21875 h -1.71875 v -1.90625 q -0.5,0.90625 -1.5,1.5 -1,0.57812 -2.3125,0.57812 -1.375,0 -2.46875,-0.67187 -1.09375,-0.67188 -1.73437,-1.875 -0.64063,-1.21875 -0.64063,-2.78125 z m 8.65625,0.0312 q 0,-1.15625 -0.46875,-2.01563 -0.45312,-0.85937 -1.25,-1.3125 -0.79687,-0.46875 -1.75,-0.46875 -0.95312,0 -1.73437,0.45313 -0.78125,0.45312 -1.25,1.3125 -0.46875,0.84375 -0.46875,2 0,1.1875 0.46875,2.0625 0.46875,0.85937 1.25,1.3125 0.78125,0.45312 1.73437,0.45312 0.95313,0 1.75,-0.45312 0.79688,-0.45313 1.25,-1.3125 0.46875,-0.875 0.46875,-2.03125 z"
       id="path89"
       inkscape:connector-curvature="0"
       style="fill:#000000;fill-rule:nonzero" />
    <path
       d="m 10.65748,344.09015 h 142.07874 v 73.13388 H 10.65748 Z"
       id="path91"
       inkscape:connector-curvature="0"
       style="fill:#000000;fill-opacity:0;fill-rule:evenodd" />
    <path
       d="m 56.10401,366.94272 q -0.53125,-1.14063 -1.5625,-1.76563 -1.03125,-0.625 -2.390625,-0.625 -1.359375,0 -2.453125,0.625 -1.09375,0.625 -1.71875,1.79688 -0.625,1.15625 -0.625,2.6875 0,1.53125 0.625,2.6875 0.625,1.15625 1.71875,1.78125 1.09375,0.625 2.453125,0.625 1.90625,0 3.140625,-1.125 1.234375,-1.14063 1.4375,-3.09375 h -5.1875 v -1.375 h 7 v 1.3125 q -0.15625,1.59375 -1.015625,2.9375 -0.859375,1.32812 -2.265625,2.10937 -1.390625,0.76563 -3.109375,0.76563 -1.8125,0 -3.3125,-0.84375 -1.484375,-0.84375 -2.359375,-2.35938 -0.859375,-1.51562 -0.859375,-3.42187 0,-1.89063 0.859375,-3.40625 0.875,-1.53125 2.359375,-2.375 1.5,-0.85938 3.3125,-0.85938 2.078125,0 3.671875,1.03125 1.59375,1.03125 2.328125,2.89063 z m 13.998947,3.73437 q 0,0.48438 -0.0625,1.01563 h -8.171875 q 0.09375,1.51562 1.03125,2.375 0.953125,0.84375 2.296875,0.84375 1.09375,0 1.828125,-0.51563 0.75,-0.51562 1.046875,-1.375 h 1.828125 q -0.40625,1.48438 -1.640625,2.40625 -1.234375,0.92188 -3.0625,0.92188 -1.453125,0 -2.609375,-0.65625 -1.140625,-0.65625 -1.796875,-1.85938 -0.65625,-1.20312 -0.65625,-2.78125 0,-1.59375 0.640625,-2.78125 0.640625,-1.20312 1.78125,-1.84375 1.140625,-0.64062 2.640625,-0.64062 1.453125,0 2.5625,0.64062 1.125,0.625 1.734375,1.73438 0.609375,1.10937 0.609375,2.51562 z m -1.75,-0.35937 q 0,-0.96875 -0.4375,-1.67188 -0.421875,-0.70312 -1.171875,-1.0625 -0.734375,-0.35937 -1.625,-0.35937 -1.28125,0 -2.1875,0.82812 -0.90625,0.8125 -1.03125,2.26563 z m 8.973129,-4.54688 q 1.859375,0 3.015625,1.125 1.15625,1.125 1.15625,3.25 v 6.03125 h -1.671875 v -5.78125 q 0,-1.53125 -0.765625,-2.34375 -0.765625,-0.8125 -2.09375,-0.8125 -1.34375,0 -2.140625,0.84375 -0.78125,0.84375 -0.78125,2.4375 v 5.65625 h -1.703125 v -10.21875 h 1.703125 v 1.45313 q 0.5,-0.78125 1.359375,-1.20313 0.875,-0.4375 1.921875,-0.4375 z m 16.283752,4.90625 q 0,0.48438 -0.0625,1.01563 h -8.171875 q 0.09375,1.51562 1.03125,2.375 0.953125,0.84375 2.296875,0.84375 1.09375,0 1.828125,-0.51563 0.75,-0.51562 1.046875,-1.375 h 1.828125 q -0.40625,1.48438 -1.640625,2.40625 -1.234375,0.92188 -3.0625,0.92188 -1.453125,0 -2.609375,-0.65625 -1.140625,-0.65625 -1.796875,-1.85938 -0.65625,-1.20312 -0.65625,-2.78125 0,-1.59375 0.640625,-2.78125 0.640625,-1.20312 1.78125,-1.84375 1.140625,-0.64062 2.640625,-0.64062 1.453125,0 2.5625,0.64062 1.125,0.625 1.734375,1.73438 0.609375,1.10937 0.609375,2.51562 z m -1.75,-0.35937 q 0,-0.96875 -0.4375,-1.67188 -0.421875,-0.70312 -1.171875,-1.0625 -0.734375,-0.35937 -1.625,-0.35937 -1.28125,0 -2.1875,0.82812 -0.90625,0.8125 -1.03125,2.26563 z m 5.691879,-2.70313 q 0.4375,-0.875 1.265625,-1.35937 0.84375,-0.48438 2.031248,-0.48438 v 1.75 h -0.45312 q -2.843753,0 -2.843753,3.09375 v 5.5625 h -1.703125 v -10.21875 h 1.703125 z m 4.615033,3.40625 q 0,-1.5625 0.64063,-2.73437 0.64062,-1.1875 1.75,-1.84375 1.10937,-0.65625 2.46875,-0.65625 1.34375,0 2.32812,0.57812 0.98438,0.57813 1.46875,1.45313 v -1.85938 h 1.71875 v 10.21875 H 110.823 v -1.90625 q -0.5,0.90625 -1.5,1.5 -1,0.57813 -2.3125,0.57813 -1.375,0 -2.46875,-0.67188 -1.09375,-0.67187 -1.73437,-1.875 -0.64063,-1.21875 -0.64063,-2.78125 z m 8.65625,0.0312 q 0,-1.15625 -0.46875,-2.01562 -0.45312,-0.85938 -1.25,-1.3125 -0.79687,-0.46875 -1.75,-0.46875 -0.95312,0 -1.73437,0.45312 -0.78125,0.45313 -1.25,1.3125 -0.46875,0.84375 -0.46875,2 0,1.1875 0.46875,2.0625 0.46875,0.85938 1.25,1.3125 0.78125,0.45313 1.73437,0.45313 0.95313,0 1.75,-0.45313 0.79688,-0.45312 1.25,-1.3125 0.46875,-0.875 0.46875,-2.03125 z m 6.29914,-8.6875 v 13.8125 h -1.70313 v -13.8125 z"
       id="path93"
       inkscape:connector-curvature="0"
       style="fill:#000000;fill-rule:nonzero" />
    <path
       d="m 65.469284,388.17084 q 1.1875,0 2.125,0.5 0.9375,0.48437 1.46875,1.48437 0.546875,0.98438 0.546875,2.39063 v 6.03125 h -1.6875 v -5.78125 q 0,-1.53125 -0.75,-2.34375 -0.75,-0.8125 -2.046875,-0.8125 -1.3125,0 -2.109375,0.85937 -0.78125,0.84375 -0.78125,2.4375 v 5.64063 h -1.671875 v -5.78125 q 0,-1.53125 -0.765625,-2.34375 -0.75,-0.8125 -2.03125,-0.8125 -1.328125,0 -2.109375,0.85937 -0.78125,0.84375 -0.78125,2.4375 v 5.64063 h -1.703125 v -10.21875 h 1.703125 v 1.46875 q 0.5,-0.79688 1.34375,-1.21875 0.84375,-0.4375 1.875,-0.4375 1.296875,0 2.28125,0.57812 0.984375,0.57813 1.46875,1.6875 0.4375,-1.07812 1.421875,-1.67187 0.984375,-0.59375 2.203125,-0.59375 z m 11.372185,10.57812 q -1.4375,0 -2.609367,-0.65625 -1.15625,-0.65625 -1.828125,-1.85937 -0.65625,-1.20313 -0.65625,-2.78125 0,-1.57813 0.6875,-2.78125 0.6875,-1.20313 1.859375,-1.84375 1.171867,-0.64063 2.624992,-0.64063 1.453125,0 2.625,0.64063 1.1875,0.64062 1.859375,1.84375 0.6875,1.1875 0.6875,2.78125 0,1.57812 -0.703125,2.78125 -0.703125,1.20312 -1.90625,1.85937 -1.1875,0.65625 -2.640625,0.65625 z m 0,-1.5 q 0.921875,0 1.71875,-0.42187 0.796875,-0.4375 1.296875,-1.29688 0.5,-0.85937 0.5,-2.07812 0,-1.23438 -0.484375,-2.09375 -0.484375,-0.85938 -1.28125,-1.28125 -0.78125,-0.42188 -1.6875,-0.42188 -0.9375,0 -1.71875,0.42188 -0.765617,0.42187 -1.234367,1.28125 -0.46875,0.85937 -0.46875,2.09375 0,1.25 0.453125,2.10937 0.46875,0.84375 1.234367,1.26563 0.765625,0.42187 1.671875,0.42187 z m 6.846252,-3.82812 q 0,-1.5625 0.640625,-2.73438 0.640625,-1.1875 1.75,-1.84375 1.109375,-0.65625 2.484375,-0.65625 1.1875,0 2.21875,0.54688 1.03125,0.54687 1.5625,1.45312 v -5.42187 h 1.71875 v 13.8125 h -1.71875 v -1.92188 q -0.5,0.92188 -1.484375,1.51563 -0.984375,0.57812 -2.3125,0.57812 -1.359375,0 -2.46875,-0.67187 -1.109375,-0.67188 -1.75,-1.875 -0.640625,-1.21875 -0.640625,-2.78125 z m 8.65625,0.0312 q 0,-1.15625 -0.46875,-2.01563 -0.453125,-0.85937 -1.25,-1.3125 -0.796875,-0.46875 -1.75,-0.46875 -0.953125,0 -1.734375,0.45313 -0.78125,0.45312 -1.25,1.3125 -0.46875,0.84375 -0.46875,2 0,1.1875 0.46875,2.0625 0.46875,0.85937 1.25,1.3125 0.78125,0.45312 1.734375,0.45312 0.953125,0 1.75,-0.45312 0.796875,-0.45313 1.25,-1.3125 0.46875,-0.875 0.46875,-2.03125 z m 13.924129,-0.375 q 0,0.48437 -0.0625,1.01562 h -8.171871 q 0.09375,1.51563 1.03125,2.375 0.953121,0.84375 2.296871,0.84375 1.09375,0 1.82813,-0.51562 0.75,-0.51563 1.04687,-1.375 h 1.82813 q -0.40625,1.48437 -1.64063,2.40625 -1.23437,0.92187 -3.0625,0.92187 -1.453121,0 -2.609371,-0.65625 -1.140625,-0.65625 -1.796875,-1.85937 -0.65625,-1.20313 -0.65625,-2.78125 0,-1.59375 0.640625,-2.78125 0.640625,-1.20313 1.78125,-1.84375 1.140625,-0.64063 2.640621,-0.64063 1.45313,0 2.5625,0.64063 1.125,0.625 1.73438,1.73437 0.60937,1.10938 0.60937,2.51563 z m -1.75,-0.35938 q 0,-0.96875 -0.4375,-1.67187 -0.42187,-0.70313 -1.17187,-1.0625 -0.73438,-0.35938 -1.625,-0.35938 -1.28125,0 -2.187501,0.82813 -0.90625,0.8125 -1.03125,2.26562 z m 5.69188,-7.95312 v 13.8125 h -1.70312 v -13.8125 z"
       id="path95"
       inkscape:connector-curvature="0"
       style="fill:#000000;fill-rule:nonzero" />
    <path
       d="m 152.73622,47.401184 57.73228,48.88189"
       id="path121"
       inkscape:connector-curvature="0"
       style="fill:#000000;fill-opacity:0;fill-rule:evenodd" />
    <path
       d="m 152.73622,47.401184 55.11679,46.66736"
       id="path123"
       inkscape:connector-curvature="0"
       style="fill-rule:evenodd;stroke:#000000;stroke-width:1;stroke-linecap:butt;stroke-linejoin:round" />
    <path
       d="m 207.85301,94.06854 -1.58495,0.131577 3.08475,1.138298 -1.63136,-2.854821 z"
       id="path125"
       inkscape:connector-curvature="0"
       style="fill:#000000;fill-rule:evenodd;stroke:#000000;stroke-width:1;stroke-linecap:butt" />
    <path
       d="M 152.73622,144.98123 210.4685,96.28832"
       id="path137"
       inkscape:connector-curvature="0"
       style="fill:#000000;fill-opacity:0;fill-rule:evenodd" />
    <path
       d="M 152.73622,144.98123 207.8488,98.497854"
       id="path139"
       inkscape:connector-curvature="0"
       style="fill-rule:evenodd;stroke:#000000;stroke-width:1;stroke-linecap:butt;stroke-linejoin:round" />
    <path
       d="m 207.84879,98.497856 -0.1346,1.584694 1.63683,-2.8517 -3.08692,1.132408 z"
       id="path141"
       inkscape:connector-curvature="0"
       style="fill:#000000;fill-rule:evenodd;stroke:#000000;stroke-width:1;stroke-linecap:butt" />
    <path
       d="m 152.73622,283.07703 64.97638,48.78741"
       id="path143"
       inkscape:connector-curvature="0"
       style="fill:#000000;fill-opacity:0;fill-rule:evenodd" />
    <path
       d="m 152.73622,283.07703 62.23582,46.72967"
       id="path145"
       inkscape:connector-curvature="0"
       style="fill-rule:evenodd;stroke:#000000;stroke-width:1;stroke-linecap:butt;stroke-linejoin:round" />
    <path
       d="m 214.97205,329.8067 -1.57454,0.22406 3.14604,0.9559 -1.79556,-2.75451 z"
       id="path147"
       inkscape:connector-curvature="0"
       style="fill:#000000;fill-rule:evenodd;stroke:#000000;stroke-width:1;stroke-linecap:butt" />
    <path
       d="M 152.73622,380.6571 217.7126,331.86968"
       id="path149"
       inkscape:connector-curvature="0"
       style="fill:#000000;fill-opacity:0;fill-rule:evenodd" />
    <path
       d="m 152.73622,380.65707 62.23582,-46.72965"
       id="path151"
       inkscape:connector-curvature="0"
       style="fill-rule:evenodd;stroke:#000000;stroke-width:1;stroke-linecap:butt;stroke-linejoin:round" />
    <path
       d="m 214.97205,333.92743 -0.22406,1.57452 1.79556,-2.75448 -3.14604,0.9559 z"
       id="path153"
       inkscape:connector-curvature="0"
       style="fill:#000000;fill-rule:evenodd;stroke:#000000;stroke-width:1;stroke-linecap:butt" />
  </g>
</svg>
