<?xml version="1.0" encoding="UTF-8"?>
<svg width="160px" height="160px" viewBox="0 0 160 160" version="1.1" xmlns="http://www.w3.org/2000/svg" xmlns:xlink="http://www.w3.org/1999/xlink">
    <title>finetuner+_light备份</title>
    <g id="finetuner+_light备份" stroke="none" stroke-width="1" fill="none" fill-rule="evenodd">
        <g id="编组-14" transform="translate(20.000000, 20.000000)">
            <path d="M93.3199978,62.2395495 C94.133294,64.7333188 96.2079164,66.7091998 98.9271487,67.2342774 C101.727505,67.7750119 104.474198,66.6347166 106.158256,64.5088508 C109.378557,65.8615976 112.06779,67.798205 114.060789,70.2536352 C115.247433,71.7156123 117.156299,74.5979735 117.766741,76.0791829 C117.350444,77.8466793 117.907999,75.9548162 116.393657,80.3235712 C114.879315,84.6923263 111.90138,90.2308731 108.695332,94.6987938 L108.694065,94.6979296 C109.471403,91.3126142 109.139004,88.105184 107.568027,85.3841719 C105.088935,81.0902589 100.018625,78.8618483 93.6602808,78.866691 C87.61582,78.8712947 80.7141614,80.8895127 74.2881196,84.5995896 C72.3365295,85.7263407 70.4981458,86.9691058 68.7994407,88.3000592 C65.082848,86.0091443 60.2582163,86.6972296 57.6919834,90.1027357 C55.2745959,93.3107172 55.7275125,97.7804282 58.4851922,100.747839 C56.3463455,105.486148 56.1850353,110.102036 58.3276341,113.813126 C59.8986112,116.534138 62.5101276,118.425719 65.8305657,119.445183 C60.479569,120.432203 51.9753851,120.256409 46.0425376,118.408761 C44.5878786,117.260141 42.3187116,113.238806 41.8324939,111.954661 C36.4798276,99.1556328 46.0427544,82.0270031 66.1128157,70.4395478 C75.6610027,64.9268995 85.1347733,62.3485055 93.3199978,62.2395495 Z M93.741733,83.7819236 C98.6563687,83.7781804 102.229627,85.3486339 103.811281,88.0881389 C105.392935,90.8276439 104.966358,94.707403 102.505799,98.9617308 C99.8880905,103.48777 95.2588314,107.911549 89.4811801,111.247277 C83.7035288,114.583006 77.5577946,116.380172 72.3292755,116.384155 C67.4146398,116.387898 63.8413816,114.817444 62.2597276,112.077939 C60.9386577,109.789779 61.018601,106.706137 62.5145635,103.273175 C65.7966589,104.270706 69.4105436,103.303886 71.5111799,100.516247 C73.4290884,97.9710967 73.5402757,94.6317469 72.1271705,91.8785425 C73.5168767,90.8238216 75.0104451,89.8306584 76.5898284,88.9188011 C82.3674797,85.5830725 88.5132139,83.7859058 93.741733,83.7819236 Z M96.6262913,41.9513937 C106.285264,43.3398827 114.273864,47.8206516 119.762092,54.800241 L119.763593,54.8004888 C120.147032,59.4835571 119.972436,64.1725799 119.266111,68.7698632 L119.265173,68.7695432 C119.073297,68.3759838 118.867133,67.9880412 118.646578,67.6060286 C116.290323,63.5248745 112.526632,60.5278407 107.750674,58.6944042 C107.333843,55.5904412 105.030014,52.9747165 101.837859,52.3583187 C98.4336701,51.7009873 95.1087825,53.5277955 93.6757047,56.5894265 C84.10036,56.8894744 73.4271703,60.1174839 63.4718196,65.8652083 C52.7671414,72.0455572 44.1704729,80.4013301 39.2487394,89.230827 C34.1559458,98.3672024 33.3146523,107.456128 37.3920347,114.518361 C37.6125898,114.900374 37.8454764,115.272888 38.0903704,115.635838 L38.0901786,115.63681 C33.7590332,113.951179 29.6140124,111.759978 25.7526473,109.089209 L25.7531863,109.087822 C23.3632727,103.087022 22.7740851,96.5505125 24.0272051,89.920925 C26.533829,89.9606652 29.025706,89.1562313 31.0519682,87.4574698 C35.6380634,83.6126136 36.1226894,76.6253134 32.179523,71.753899 C37.3954996,64.5861661 44.825219,58.0086208 54.2334554,52.4782175 L54.6306804,52.2461095 L55.5335587,51.7278163 C70.1803613,43.427145 84.4312902,40.1983477 96.6262913,41.9513937 Z M90.6535908,20.3523087 C98.3825267,21.1330554 105.132159,23.6073104 110.55473,27.5564912 L110.555798,27.555422 C111.035942,28.3079505 111.501677,29.074656 111.952431,29.8553863 C114.502712,34.2726025 116.424442,38.8806101 117.745412,43.5762022 L118.179013,45.2346004 C117.606383,43.8319579 113.766217,40.9049802 111.529648,39.7034 C107.416782,37.4937929 102.626757,36.1105168 97.5863757,35.3859559 C83.9787579,33.4298444 68.4439103,36.8991445 52.7413013,45.6924389 L52.2654151,45.9605318 C51.9485376,46.1397041 51.6342222,46.3211741 51.3208456,46.5021022 L50.8531323,46.7759374 C40.6609297,52.7708629 32.5253147,59.9835893 26.7502733,67.9443504 C23.1923083,66.7304829 19.2004358,67.2931549 16.217582,69.7938959 C11.5770429,73.6843963 11.1359324,80.7923948 15.2323338,85.6700564 C15.9551395,86.530714 16.7709209,87.2644248 17.6498564,87.8678193 C17.058561,90.6628363 16.7509878,93.4521812 16.7480125,96.1990303 C16.7470107,97.1239756 17.1534616,99.3541381 17.3214316,99.9224669 C17.3391127,99.9822909 17.3635905,100.060065 17.3948652,100.155789 L17.4664768,100.37117 C17.6547163,100.929569 17.9909748,101.878877 18.4752523,103.219094 C16.7625398,101.731289 14.2112005,98.7966447 12.4316852,96.4772267 C10.7650724,94.3049658 9.28272007,91.9876397 8.04609298,89.8457388 C7.59533811,89.0650085 7.16421892,88.2783179 6.75258194,87.4862369 L6.75404194,87.4858466 C6.04523654,80.8151719 7.27728519,73.7326912 10.4656067,66.648863 C16.1749016,53.9639237 27.8012368,41.9905848 44.2161586,32.5134253 C51.8584622,28.1011393 59.4503616,24.858279 66.7789544,22.7934201 C69.2698862,26.6070961 74.5143649,28.7143073 78.8097569,27.8884447 C82.7634794,27.1282738 85.8274935,23.9172355 86.1644527,20.0928101 C87.6855654,20.1170508 89.182804,20.2037356 90.6535908,20.3523087 Z M85.909552,7.17152591 C87.3462741,7.39738064 88.7560299,7.67797176 90.1368488,8.01200071 L90.1371516,8.01135762 C94.8997503,10.7605234 100.044355,14.8916568 103.848235,19.0053398 C102.237053,18.2441788 99.8069074,17.2660928 97.818251,16.6692644 C95.8295946,16.0724361 93.4411706,15.7632669 91.1520747,15.5320315 C89.1715348,15.3319651 87.1511167,15.234831 85.0959527,15.2401249 C82.8016142,11.0463783 77.3964414,8.55165007 72.770523,9.30159396 C68.422002,10.006567 65.250774,13.9044958 65.3273154,18.1726413 C57.6403215,20.3522953 49.7250702,23.7419944 41.7952455,28.3202808 C24.5425654,38.2811203 12.1968302,50.9953306 6.04188219,64.670424 C5.0158819,66.9499965 4.17184938,69.23709 3.51006033,71.5193597 C3.02885425,73.1788644 2.68295986,75.9116409 2.69996325,77.5851772 C1.06746123,72.451175 0.120470826,66.1092835 0.0416054124,60.7549473 L0.0369574363,60.0311973 C0.43808935,58.6683585 0.899968223,57.3071786 1.42273332,55.9500134 C5.59668863,45.1138906 13.4619425,34.9639348 24.5265106,26.3473628 C26.4664714,27.4798337 29.1982894,27.4327244 31.5509627,26.0192352 C34.1764669,24.4418288 35.5210178,21.6486714 35.0516567,19.197781 C35.4161375,18.9807316 35.7843872,18.7652568 36.1550842,18.5512348 C53.4180611,8.58445039 70.7557175,4.78932177 85.909552,7.17152591 Z M79.3546157,3.1362558 L80.4870446,3.56966823 C66.352896,3.03196238 49.7649437,6.77997716 34.460445,15.6160336 C34.0737763,15.8392769 33.6897318,16.0642498 33.3083189,16.290924 C31.3664249,14.7193038 28.2631872,14.5922026 25.6335991,16.1720626 C22.7106258,17.9281888 21.3753127,21.1911611 22.3630705,23.811126 C13.577289,30.7745416 6.75524743,38.7597739 2.04499517,47.2104558 C1.88700815,47.493901 1.5026327,48.5012824 0.891868812,50.2326001 C3.38222505,33.5590523 14.5022767,17.0203202 30.0789769,8.02710819 C45.655677,-0.966103836 63.5791996,-2.1969237 79.3546157,3.1362558 Z" id="形状结合" fill="#FBCB67"></path>
            <path d="M75.2205826,12.5042186 C72.1904085,12.035586 69.3119649,14.433013 69.3119649,17.468037 C69.3119649,20.7343123 72.7358151,24.2764265 76.2502235,24.7152104 C79.3990133,25.1083457 82.1271415,22.9314599 82.1271415,20.0233681 C82.1271415,16.6548254 78.8088321,13.0591605 75.2205826,12.5042186 Z" id="椭圆形" fill="#4285F4" fill-rule="nonzero" transform="translate(75.719553, 18.603321) rotate(-18.000000) translate(-75.719553, -18.603321) "></path>
            <path d="M64.6432617,90.3429583 C67.0698681,90.3429583 69.0975678,92.528255 69.0975678,95.292334 C69.0975678,98.0564131 67.0698681,100.24171 64.6432617,100.24171 C62.2166553,100.24171 60.1889555,98.0564131 60.1889555,95.292334 C60.1889555,92.528255 62.2166553,90.3429583 64.6432617,90.3429583 Z" id="椭圆形备份-26" fill="#FF4559" transform="translate(64.643262, 95.292334) rotate(-53.000000) translate(-64.643262, -95.292334) "></path>
        </g>
    </g>
</svg>